<?xml version="1.0" encoding="UTF-8" standalone="no"?>
<svg
   contentStyleType="text/css"
   height="189.375"
   preserveAspectRatio="none"
   version="1.1"
   viewBox="0 0 110.5 189.375"
   width="110.5"
   zoomAndPan="magnify"
   id="svg205"
   sodipodi:docname="elem_AbstractItem.svg.temp.svg"
   xmlns:inkscape="http://www.inkscape.org/namespaces/inkscape"
   xmlns:sodipodi="http://sodipodi.sourceforge.net/DTD/sodipodi-0.dtd"
   xmlns="http://www.w3.org/2000/svg"
   xmlns:svg="http://www.w3.org/2000/svg">
  <sodipodi:namedview
     id="namedview205"
     pagecolor="#ffffff"
     bordercolor="#000000"
     borderopacity="0.25"
     inkscape:showpageshadow="2"
     inkscape:pageopacity="0.0"
     inkscape:pagecheckerboard="0"
     inkscape:deskcolor="#d1d1d1" />
  <defs
     id="defs1" />
  <g
     id="g205"
     transform="translate(-42.75,-1011.3594)">
    <!--class NotificationPreferenceEntity-->
    <!--class AllergyEntity-->
    <!--class TransactionEntity-->
    <!--class UserDeviceEntity-->
    <!--class AbstractItem-->
    <g
       id="elem_AbstractItem">
      <rect
         codeLine="65"
         fill="#f1f1f1"
         height="188.875"
         id="AbstractItem"
         rx="2.5"
         ry="2.5"
         style="stroke:#181818;stroke-width:0.5"
         width="110"
         x="43"
         y="1011.6094" />
      <circle
         cx="58"
         cy="1027.6094"
         fill="#aaaaff"
         style="stroke:#181818;stroke-width:1"
         id="ellipse44"
         r="11" />
      <path
         d="m 60.7656,1023.4844 q 0.1563,-0.2188 0.3438,-0.3281 0.1875,-0.1094 0.4062,-0.1094 0.375,0 0.6094,0.2656 0.2344,0.25 0.2344,0.8594 v 1.4531 q 0,0.6094 -0.2344,0.875 -0.2344,0.2656 -0.6094,0.2656 -0.3437,0 -0.5468,-0.2031 -0.2032,-0.1875 -0.3125,-0.7031 -0.0469,-0.3594 -0.2344,-0.5469 -0.3281,-0.375 -0.9375,-0.5937 Q 58.875,1024.5 58.25,1024.5 q -0.7656,0 -1.4062,0.3281 -0.625,0.3282 -1.125,1.0782 -0.4844,0.75 -0.4844,1.7812 v 1.0938 q 0,1.2343 0.8906,2.0625 0.8906,0.8125 2.4844,0.8125 0.9375,0 1.5937,-0.25 0.3907,-0.1563 0.8125,-0.5938 0.2657,-0.2656 0.4063,-0.3437 0.1562,-0.078 0.3594,-0.078 0.3281,0 0.5781,0.2657 0.2656,0.25 0.2656,0.5937 0,0.3438 -0.3437,0.75 -0.5,0.5781 -1.2969,0.9063 -1.0781,0.4531 -2.375,0.4531 -1.5156,0 -2.7188,-0.625 -0.9843,-0.5 -1.6718,-1.5625 -0.6875,-1.0781 -0.6875,-2.3594 v -1.1562 q 0,-1.3282 0.6093,-2.4688 0.625,-1.1562 1.7188,-1.7656 1.0937,-0.625 2.3281,-0.625 0.7344,0 1.375,0.1719 0.6563,0.1562 1.2031,0.5156 z"
         fill="#000000"
         id="path44" />
      <text
         fill="#000000"
         font-family="sans-serif"
         font-size="14px"
         lengthAdjust="spacing"
         textLength="78"
         x="72"
         y="1033.3379"
         id="text45">AbstractItem</text>
      <line
         style="stroke:#181818;stroke-width:0.5"
         x1="44"
         x2="152"
         y1="1043.6094"
         y2="1043.6094"
         id="line45" />
      <text
         fill="#000000"
         font-family="sans-serif"
         font-size="14px"
         lengthAdjust="spacing"
         textLength="35"
         x="49"
         y="1062.1426"
         id="text46">name</text>
      <text
         fill="#000000"
         font-family="sans-serif"
         font-size="14px"
         lengthAdjust="spacing"
         textLength="85"
         x="49"
         y="1079.752"
         id="text47">delivery_date</text>
      <text
         fill="#000000"
         font-family="sans-serif"
         font-size="14px"
         lengthAdjust="spacing"
         textLength="69"
         x="49"
         y="1097.3613"
         id="text48">description</text>
      <text
         fill="#000000"
         font-family="sans-serif"
         font-size="14px"
         lengthAdjust="spacing"
         textLength="25"
         x="49"
         y="1114.9707"
         id="text49">kcal</text>
      <text
         fill="#000000"
         font-family="sans-serif"
         font-size="14px"
         lengthAdjust="spacing"
         textLength="31"
         x="49"
         y="1132.5801"
         id="text50">price</text>
      <text
         fill="#000000"
         font-family="sans-serif"
         font-size="14px"
         lengthAdjust="spacing"
         textLength="46"
         x="49"
         y="1150.1895"
         id="text51">edit_by</text>
      <text
         fill="#000000"
         font-family="sans-serif"
         font-size="14px"
         lengthAdjust="spacing"
         textLength="75"
         x="49"
         y="1167.7988"
         id="text52">image_hero</text>
      <text
         fill="#000000"
         font-family="sans-serif"
         font-size="14px"
         lengthAdjust="spacing"
         textLength="80"
         x="49"
         y="1185.4082"
         id="text53">image_detail</text>
      <line
         style="stroke:#181818;stroke-width:0.5"
         x1="44"
         x2="152"
         y1="1192.4844"
         y2="1192.4844"
         id="line53" />
    </g>
    <!--class UserEventEntity-->
    <!--class MenuItemEntity-->
    <!--class UserProfileEntity-->
    <!--class OrderEntity-->
    <!--class RefreshTokenEntity-->
    <!--class OrderItemFeedbackEntity-->
    <!--class TransactionAuditEntity-->
    <!--class UserEntity-->
    <!--class NotificationEntity-->
    <!--class ReportEntity-->
    <!--class CampusEntity-->
    <!--class AccountEntity-->
    <!--class ResidenceEntity-->
    <!--class OrderItemEntity-->
    <!--SRC=[jLVVRzis47xtNy6s3uk111k6RGz54C1BxI5ecWHk-j0dWgREDc6AL4ZAZJliVz-HicHHabjsyV8GcSSZ-TqFVdTybS5IA22FapzlfsUAvN2UWULZmYMpbdW1OPQyziBNvFAId3sUlvdD9lWt9bTNerVxzTUtauyVazPVdx_ngsUpQFt3_ER3PFwPlfz-FdiUaylowldov_BgBNbut-ZCxkVJcx_k6XtXTGJgp0uwT_UFzExJxMrGM7Y5nTLev8IJGAOAlpio1ycSqCgkHK7U2ROoB1-DVYAtRATBHp9XW3kn1KkS9WQoaWEHVczkjBL2hUp8ReGg6AuZXgcDXOByzajBg3IQsnNwBTok0AADM-kHXAKB1uZLkZbKAm_aMXiWuC4A1751EFusJ992M-5r4CAeYjUTTc8fU33dmS0I32WEbPtdP7XsJFuUaSZV8XkZvE82_pNkAqgxfg3OGaAORIOWPq8EpcYJWQ5baJ47Dfh9GPM34unpNIetE5SOdMiFdSb8RdVMGKwPKhYK0-xjueLFfG17rxeqbbh7Z3iw2ogsW1j061bbyP8ANIqEVcgdOcdHRE_3V_PHcKW9PhMhmx0VflcTxPN_2wpw_4TCIij2EjKOMg8q71aiXEkYo3eYKogVZ7J19FEPrPvpXnEfnpcETxVSY2B0YR5_GcU-WwquPF51aeOSWrfeeMAanQ-__v6juzmhNIm8SMGhw2mLbhB01v4KsGtJriA94wYYqSd2elkuky54n_nfZIeNU5R5JmOIOPbTy6yODrx5qOOpYP_2eEVmwuD75ply9N8qagx1w6QGWSDR7GLXkaL7j6CG16aXa7eb58LjrvL1GZq9fbsa3yWRtkeQHZrEGv4KZ4CkWmHceP-h5QqjTWE9-c3qKiWeK_UYP8IPvtacgIhp1PXJ9bCivYn7IX-OC615vkl2m5nDp-sOt7jtr1Q7GPgjJhikaJlcIll_cTnceBO5SrYYqUj7lO667zkoL7kyQfJTpmLMSTi5VyGc0rlS8HkITLKZhld-hGb1yTTa1f0j6Dz4qMfFf5bgi85GgmZHijxWvS6hhfVm9RrjHAjWJKgahe525kHf9WY5ZTCGEAbPXbAkbUkILJfD1NPiSK0QfgKm65PFvVrWzwIXwueh6hRNNz1vSG9fUQJ3KdW9gWJDZivBpJVzWhPdA7jqYw5Uy4TRbdQhEjI-9jv9t-PtEazhiS0D1lPRH8HLKnj4qUbQeA3OnczeQU9WL5MqAxLyZQy7T0rTwfZQhQ-37T_ig_aGKx2Ux0ZN673O3eI8nkh6Q4E7d75InZN-POMhzdSwujm2dpq7jlMZj9ZshaAdT_oXiFhIt0jJ4FQE2L8hldRoIUH0UoU51nuuj7dBPDc1YnwXItpBzALE3wTBznd48JmxgyTCFrOj3QxpGiA0pl4427oJwIzgJuLfrUix-M7WgGJh5NpVL2V1TUX1wYIeHecDKgNx4eQPL4JNFCgguGaxoTPPyxgdEYJyNf1OSHlrbw1eodsl_gUXU2fPM7Yw8Xy8uLy0]-->
  </g>
</svg>
