<?xml version="1.0" encoding="us-ascii" standalone="no"?><svg xmlns="http://www.w3.org/2000/svg" xmlns:xlink="http://www.w3.org/1999/xlink" contentStyleType="text/css" height="1549px" preserveAspectRatio="none" style="width:2533px;height:1549px;background:#FFFFFF;" version="1.1" viewBox="0 0 2533 1549" width="2533px" zoomAndPan="magnify"><defs/><g><!--class LoginScreen--><g id="elem_LoginScreen"><rect codeLine="7" fill="#F1F1F1" height="206.4844" id="LoginScreen" rx="2.5" ry="2.5" style="stroke:#181818;stroke-width:0.5;" width="228" x="62" y="60"/><ellipse cx="131.75" cy="76" fill="#ADD1B2" rx="11" ry="11" style="stroke:#181818;stroke-width:1.0;"/><path d="M134.5156,71.875 Q134.6719,71.6563 134.8594,71.5469 Q135.0469,71.4375 135.2656,71.4375 Q135.6406,71.4375 135.875,71.7031 Q136.1094,71.9531 136.1094,72.5625 L136.1094,74.0156 Q136.1094,74.625 135.875,74.8906 Q135.6406,75.1563 135.2656,75.1563 Q134.9219,75.1563 134.7188,74.9531 Q134.5156,74.7656 134.4063,74.25 Q134.3594,73.8906 134.1719,73.7031 Q133.8438,73.3281 133.2344,73.1094 Q132.625,72.8906 132,72.8906 Q131.2344,72.8906 130.5938,73.2188 Q129.9688,73.5469 129.4688,74.2969 Q128.9844,75.0469 128.9844,76.0781 L128.9844,77.1719 Q128.9844,78.4063 129.875,79.2344 Q130.7656,80.0469 132.3594,80.0469 Q133.2969,80.0469 133.9531,79.7969 Q134.3438,79.6406 134.7656,79.2031 Q135.0313,78.9375 135.1719,78.8594 Q135.3281,78.7813 135.5313,78.7813 Q135.8594,78.7813 136.1094,79.0469 Q136.375,79.2969 136.375,79.6406 Q136.375,79.9844 136.0313,80.3906 Q135.5313,80.9688 134.7344,81.2969 Q133.6563,81.75 132.3594,81.75 Q130.8438,81.75 129.6406,81.125 Q128.6563,80.625 127.9688,79.5625 Q127.2813,78.4844 127.2813,77.2031 L127.2813,76.0469 Q127.2813,74.7188 127.8906,73.5781 Q128.5156,72.4219 129.6094,71.8125 Q130.7031,71.1875 131.9375,71.1875 Q132.6719,71.1875 133.3125,71.3594 Q133.9688,71.5156 134.5156,71.875 Z " fill="#000000"/><text fill="#000000" font-family="sans-serif" font-size="14" lengthAdjust="spacing" textLength="80" x="152.25" y="81.7285">LoginScreen</text><line style="stroke:#181818;stroke-width:0.5;" x1="63" x2="289" y1="92" y2="92"/><text fill="#000000" font-family="sans-serif" font-size="14" lengthAdjust="spacing" textLength="78" x="68" y="110.5332">email: String</text><text fill="#000000" font-family="sans-serif" font-size="14" lengthAdjust="spacing" textLength="105" x="68" y="128.1426">password: String</text><text fill="#000000" font-family="sans-serif" font-size="14" lengthAdjust="spacing" textLength="10" x="68" y="145.752">--</text><line style="stroke:#181818;stroke-width:0.5;" x1="63" x2="289" y1="152.8281" y2="152.8281"/><ellipse cx="73" cy="167.1328" fill="#84BE84" rx="3" ry="3" style="stroke:#038048;stroke-width:1.0;"/><text fill="#000000" font-family="sans-serif" font-size="14" lengthAdjust="spacing" textLength="86" x="82" y="171.3613">submitLogin()</text><ellipse cx="73" cy="184.7422" fill="#84BE84" rx="3" ry="3" style="stroke:#038048;stroke-width:1.0;"/><text fill="#000000" font-family="sans-serif" font-size="14" lengthAdjust="spacing" textLength="59" x="82" y="188.9707">validate()</text><ellipse cx="73" cy="202.3516" fill="#84BE84" rx="3" ry="3" style="stroke:#038048;stroke-width:1.0;"/><text fill="#000000" font-family="sans-serif" font-size="14" lengthAdjust="spacing" textLength="174" x="82" y="206.5801">showValidationErrors(error)</text><ellipse cx="73" cy="219.9609" fill="#84BE84" rx="3" ry="3" style="stroke:#038048;stroke-width:1.0;"/><text fill="#000000" font-family="sans-serif" font-size="14" lengthAdjust="spacing" textLength="174" x="82" y="224.1895">redirectToUserDashboard()</text><ellipse cx="73" cy="237.5703" fill="#84BE84" rx="3" ry="3" style="stroke:#038048;stroke-width:1.0;"/><text fill="#000000" font-family="sans-serif" font-size="14" lengthAdjust="spacing" textLength="184" x="82" y="241.7988">redirectToAdminDashboard()</text><ellipse cx="73" cy="255.1797" fill="#84BE84" rx="3" ry="3" style="stroke:#038048;stroke-width:1.0;"/><text fill="#000000" font-family="sans-serif" font-size="14" lengthAdjust="spacing" textLength="202" x="82" y="259.4082">navigateToRegistrationScreen()</text></g><!--class RegistrationScreen--><g id="elem_RegistrationScreen"><rect codeLine="19" fill="#F1F1F1" height="312.1406" id="RegistrationScreen" rx="2.5" ry="2.5" style="stroke:#181818;stroke-width:0.5;" width="200" x="325" y="7"/><ellipse cx="361.15" cy="23" fill="#ADD1B2" rx="11" ry="11" style="stroke:#181818;stroke-width:1.0;"/><path d="M363.9156,18.875 Q364.0719,18.6563 364.2594,18.5469 Q364.4469,18.4375 364.6656,18.4375 Q365.0406,18.4375 365.275,18.7031 Q365.5094,18.9531 365.5094,19.5625 L365.5094,21.0156 Q365.5094,21.625 365.275,21.8906 Q365.0406,22.1563 364.6656,22.1563 Q364.3219,22.1563 364.1188,21.9531 Q363.9156,21.7656 363.8063,21.25 Q363.7594,20.8906 363.5719,20.7031 Q363.2438,20.3281 362.6344,20.1094 Q362.025,19.8906 361.4,19.8906 Q360.6344,19.8906 359.9938,20.2188 Q359.3688,20.5469 358.8688,21.2969 Q358.3844,22.0469 358.3844,23.0781 L358.3844,24.1719 Q358.3844,25.4063 359.275,26.2344 Q360.1656,27.0469 361.7594,27.0469 Q362.6969,27.0469 363.3531,26.7969 Q363.7438,26.6406 364.1656,26.2031 Q364.4313,25.9375 364.5719,25.8594 Q364.7281,25.7813 364.9313,25.7813 Q365.2594,25.7813 365.5094,26.0469 Q365.775,26.2969 365.775,26.6406 Q365.775,26.9844 365.4313,27.3906 Q364.9313,27.9688 364.1344,28.2969 Q363.0563,28.75 361.7594,28.75 Q360.2438,28.75 359.0406,28.125 Q358.0563,27.625 357.3688,26.5625 Q356.6813,25.4844 356.6813,24.2031 L356.6813,23.0469 Q356.6813,21.7188 357.2906,20.5781 Q357.9156,19.4219 359.0094,18.8125 Q360.1031,18.1875 361.3375,18.1875 Q362.0719,18.1875 362.7125,18.3594 Q363.3688,18.5156 363.9156,18.875 Z " fill="#000000"/><text fill="#000000" font-family="sans-serif" font-size="14" lengthAdjust="spacing" textLength="121" x="379.85" y="28.7285">RegistrationScreen</text><line style="stroke:#181818;stroke-width:0.5;" x1="326" x2="524" y1="39" y2="39"/><text fill="#000000" font-family="sans-serif" font-size="14" lengthAdjust="spacing" textLength="80" x="331" y="57.5332">name: String</text><text fill="#000000" font-family="sans-serif" font-size="14" lengthAdjust="spacing" textLength="78" x="331" y="75.1426">email: String</text><text fill="#000000" font-family="sans-serif" font-size="14" lengthAdjust="spacing" textLength="105" x="331" y="92.752">password: String</text><text fill="#000000" font-family="sans-serif" font-size="14" lengthAdjust="spacing" textLength="152" x="331" y="110.3613">confirmPassword: String</text><text fill="#000000" font-family="sans-serif" font-size="14" lengthAdjust="spacing" textLength="104" x="331" y="127.9707">firstName: String</text><text fill="#000000" font-family="sans-serif" font-size="14" lengthAdjust="spacing" textLength="103" x="331" y="145.5801">lastName: String</text><text fill="#000000" font-family="sans-serif" font-size="14" lengthAdjust="spacing" textLength="94" x="331" y="163.1895">campus: String</text><text fill="#000000" font-family="sans-serif" font-size="14" lengthAdjust="spacing" textLength="107" x="331" y="180.7988">residence: String</text><text fill="#000000" font-family="sans-serif" font-size="14" lengthAdjust="spacing" textLength="136" x="331" y="198.4082">allergies: List&lt;String&gt;</text><text fill="#000000" font-family="sans-serif" font-size="14" lengthAdjust="spacing" textLength="10" x="331" y="216.0176">--</text><line style="stroke:#181818;stroke-width:0.5;" x1="326" x2="524" y1="223.0938" y2="223.0938"/><ellipse cx="336" cy="237.3984" fill="#84BE84" rx="3" ry="3" style="stroke:#038048;stroke-width:1.0;"/><text fill="#000000" font-family="sans-serif" font-size="14" lengthAdjust="spacing" textLength="127" x="345" y="241.627">submitRegistration()</text><ellipse cx="336" cy="255.0078" fill="#84BE84" rx="3" ry="3" style="stroke:#038048;stroke-width:1.0;"/><text fill="#000000" font-family="sans-serif" font-size="14" lengthAdjust="spacing" textLength="59" x="345" y="259.2363">validate()</text><ellipse cx="336" cy="272.6172" fill="#84BE84" rx="3" ry="3" style="stroke:#038048;stroke-width:1.0;"/><text fill="#000000" font-family="sans-serif" font-size="14" lengthAdjust="spacing" textLength="174" x="345" y="276.8457">showValidationErrors(error)</text><ellipse cx="336" cy="290.2266" fill="#84BE84" rx="3" ry="3" style="stroke:#038048;stroke-width:1.0;"/><text fill="#000000" font-family="sans-serif" font-size="14" lengthAdjust="spacing" textLength="161" x="345" y="294.4551">navigateToLoginScreen()</text><ellipse cx="336" cy="307.8359" fill="#84BE84" rx="3" ry="3" style="stroke:#038048;stroke-width:1.0;"/><text fill="#000000" font-family="sans-serif" font-size="14" lengthAdjust="spacing" textLength="174" x="345" y="312.0645">redirectToUserDashboard()</text></g><!--class UserDashboardScreen--><g id="elem_UserDashboardScreen"><rect codeLine="37" fill="#F1F1F1" height="206.4844" id="UserDashboardScreen" rx="2.5" ry="2.5" style="stroke:#181818;stroke-width:0.5;" width="277" x="560.5" y="60"/><ellipse cx="622.75" cy="76" fill="#ADD1B2" rx="11" ry="11" style="stroke:#181818;stroke-width:1.0;"/><path d="M625.5156,71.875 Q625.6719,71.6563 625.8594,71.5469 Q626.0469,71.4375 626.2656,71.4375 Q626.6406,71.4375 626.875,71.7031 Q627.1094,71.9531 627.1094,72.5625 L627.1094,74.0156 Q627.1094,74.625 626.875,74.8906 Q626.6406,75.1563 626.2656,75.1563 Q625.9219,75.1563 625.7188,74.9531 Q625.5156,74.7656 625.4063,74.25 Q625.3594,73.8906 625.1719,73.7031 Q624.8438,73.3281 624.2344,73.1094 Q623.625,72.8906 623,72.8906 Q622.2344,72.8906 621.5938,73.2188 Q620.9688,73.5469 620.4688,74.2969 Q619.9844,75.0469 619.9844,76.0781 L619.9844,77.1719 Q619.9844,78.4063 620.875,79.2344 Q621.7656,80.0469 623.3594,80.0469 Q624.2969,80.0469 624.9531,79.7969 Q625.3438,79.6406 625.7656,79.2031 Q626.0313,78.9375 626.1719,78.8594 Q626.3281,78.7813 626.5313,78.7813 Q626.8594,78.7813 627.1094,79.0469 Q627.375,79.2969 627.375,79.6406 Q627.375,79.9844 627.0313,80.3906 Q626.5313,80.9688 625.7344,81.2969 Q624.6563,81.75 623.3594,81.75 Q621.8438,81.75 620.6406,81.125 Q619.6563,80.625 618.9688,79.5625 Q618.2813,78.4844 618.2813,77.2031 L618.2813,76.0469 Q618.2813,74.7188 618.8906,73.5781 Q619.5156,72.4219 620.6094,71.8125 Q621.7031,71.1875 622.9375,71.1875 Q623.6719,71.1875 624.3125,71.3594 Q624.9688,71.5156 625.5156,71.875 Z " fill="#000000"/><text fill="#000000" font-family="sans-serif" font-size="14" lengthAdjust="spacing" textLength="144" x="643.25" y="81.7285">UserDashboardScreen</text><line style="stroke:#181818;stroke-width:0.5;" x1="561.5" x2="836.5" y1="92" y2="92"/><text fill="#000000" font-family="sans-serif" font-size="14" lengthAdjust="spacing" textLength="265" x="566.5" y="110.5332">userBalance: Decimal(19, 4) (REST state)</text><text fill="#000000" font-family="sans-serif" font-size="14" lengthAdjust="spacing" textLength="108" x="566.5" y="128.1426">user: UserDetails</text><line style="stroke:#181818;stroke-width:1.0;" x1="561.5" x2="836.5" y1="135.2188" y2="135.2188"/><ellipse cx="571.5" cy="149.5234" fill="#84BE84" rx="3" ry="3" style="stroke:#038048;stroke-width:1.0;"/><text fill="#000000" font-family="sans-serif" font-size="14" lengthAdjust="spacing" textLength="113" x="580.5" y="153.752">fetchUserDetails()</text><ellipse cx="571.5" cy="167.1328" fill="#84BE84" rx="3" ry="3" style="stroke:#038048;stroke-width:1.0;"/><text fill="#000000" font-family="sans-serif" font-size="14" lengthAdjust="spacing" textLength="92" x="580.5" y="171.3613">fetchBalance()</text><ellipse cx="571.5" cy="184.7422" fill="#84BE84" rx="3" ry="3" style="stroke:#038048;stroke-width:1.0;"/><text fill="#000000" font-family="sans-serif" font-size="14" lengthAdjust="spacing" textLength="109" x="580.5" y="188.9707">fetchMenuItems()</text><ellipse cx="571.5" cy="202.3516" fill="#84BE84" rx="3" ry="3" style="stroke:#038048;stroke-width:1.0;"/><text fill="#000000" font-family="sans-serif" font-size="14" lengthAdjust="spacing" textLength="125" x="580.5" y="206.5801">navigateToOrders()</text><ellipse cx="571.5" cy="219.9609" fill="#84BE84" rx="3" ry="3" style="stroke:#038048;stroke-width:1.0;"/><text fill="#000000" font-family="sans-serif" font-size="14" lengthAdjust="spacing" textLength="121" x="580.5" y="224.1895">navigateToProfile()</text><ellipse cx="571.5" cy="237.5703" fill="#84BE84" rx="3" ry="3" style="stroke:#038048;stroke-width:1.0;"/><text fill="#000000" font-family="sans-serif" font-size="14" lengthAdjust="spacing" textLength="132" x="580.5" y="241.7988">navigateToSettings()</text><ellipse cx="571.5" cy="255.1797" fill="#84BE84" rx="3" ry="3" style="stroke:#038048;stroke-width:1.0;"/><text fill="#000000" font-family="sans-serif" font-size="14" lengthAdjust="spacing" textLength="125" x="580.5" y="259.4082">navigateToLogout()</text></g><!--class AdminDashboardScreen--><g id="elem_AdminDashboardScreen"><rect codeLine="50" fill="#F1F1F1" height="171.2656" id="AdminDashboardScreen" rx="2.5" ry="2.5" style="stroke:#181818;stroke-width:0.5;" width="249" x="872.5" y="77.5"/><ellipse cx="915.85" cy="93.5" fill="#ADD1B2" rx="11" ry="11" style="stroke:#181818;stroke-width:1.0;"/><path d="M918.6156,89.375 Q918.7719,89.1563 918.9594,89.0469 Q919.1469,88.9375 919.3656,88.9375 Q919.7406,88.9375 919.975,89.2031 Q920.2094,89.4531 920.2094,90.0625 L920.2094,91.5156 Q920.2094,92.125 919.975,92.3906 Q919.7406,92.6563 919.3656,92.6563 Q919.0219,92.6563 918.8188,92.4531 Q918.6156,92.2656 918.5063,91.75 Q918.4594,91.3906 918.2719,91.2031 Q917.9438,90.8281 917.3344,90.6094 Q916.725,90.3906 916.1,90.3906 Q915.3344,90.3906 914.6938,90.7188 Q914.0688,91.0469 913.5688,91.7969 Q913.0844,92.5469 913.0844,93.5781 L913.0844,94.6719 Q913.0844,95.9063 913.975,96.7344 Q914.8656,97.5469 916.4594,97.5469 Q917.3969,97.5469 918.0531,97.2969 Q918.4438,97.1406 918.8656,96.7031 Q919.1313,96.4375 919.2719,96.3594 Q919.4281,96.2813 919.6313,96.2813 Q919.9594,96.2813 920.2094,96.5469 Q920.475,96.7969 920.475,97.1406 Q920.475,97.4844 920.1313,97.8906 Q919.6313,98.4688 918.8344,98.7969 Q917.7563,99.25 916.4594,99.25 Q914.9438,99.25 913.7406,98.625 Q912.7563,98.125 912.0688,97.0625 Q911.3813,95.9844 911.3813,94.7031 L911.3813,93.5469 Q911.3813,92.2188 911.9906,91.0781 Q912.6156,89.9219 913.7094,89.3125 Q914.8031,88.6875 916.0375,88.6875 Q916.7719,88.6875 917.4125,88.8594 Q918.0688,89.0156 918.6156,89.375 Z " fill="#000000"/><text fill="#000000" font-family="sans-serif" font-size="14" lengthAdjust="spacing" textLength="154" x="936.15" y="99.2285">AdminDashboardScreen</text><line style="stroke:#181818;stroke-width:0.5;" x1="873.5" x2="1120.5" y1="109.5" y2="109.5"/><text fill="#000000" font-family="sans-serif" font-size="14" lengthAdjust="spacing" textLength="237" x="878.5" y="128.0332">systemStatistics: Map&lt;String, Object&gt;</text><text fill="#000000" font-family="sans-serif" font-size="14" lengthAdjust="spacing" textLength="10" x="878.5" y="145.6426">--</text><line style="stroke:#181818;stroke-width:0.5;" x1="873.5" x2="1120.5" y1="152.7188" y2="152.7188"/><ellipse cx="883.5" cy="167.0234" fill="#84BE84" rx="3" ry="3" style="stroke:#038048;stroke-width:1.0;"/><text fill="#000000" font-family="sans-serif" font-size="14" lengthAdjust="spacing" textLength="143" x="892.5" y="171.252">fetchSystemStatistics()</text><ellipse cx="883.5" cy="184.6328" fill="#84BE84" rx="3" ry="3" style="stroke:#038048;stroke-width:1.0;"/><text fill="#000000" font-family="sans-serif" font-size="14" lengthAdjust="spacing" textLength="168" x="892.5" y="188.8613">navigateToManageUsers()</text><ellipse cx="883.5" cy="202.2422" fill="#84BE84" rx="3" ry="3" style="stroke:#038048;stroke-width:1.0;"/><text fill="#000000" font-family="sans-serif" font-size="14" lengthAdjust="spacing" textLength="176" x="892.5" y="206.4707">navigateToManageOrders()</text><ellipse cx="883.5" cy="219.8516" fill="#84BE84" rx="3" ry="3" style="stroke:#038048;stroke-width:1.0;"/><text fill="#000000" font-family="sans-serif" font-size="14" lengthAdjust="spacing" textLength="131" x="892.5" y="224.0801">navigateToReports()</text><ellipse cx="883.5" cy="237.4609" fill="#84BE84" rx="3" ry="3" style="stroke:#038048;stroke-width:1.0;"/><text fill="#000000" font-family="sans-serif" font-size="14" lengthAdjust="spacing" textLength="132" x="892.5" y="241.6895">navigateToSettings()</text></g><!--class ProfileScreen--><g id="elem_ProfileScreen"><rect codeLine="60" fill="#F1F1F1" height="206.4844" id="ProfileScreen" rx="2.5" ry="2.5" style="stroke:#181818;stroke-width:0.5;" width="568" x="1157" y="60"/><ellipse cx="1394.25" cy="76" fill="#ADD1B2" rx="11" ry="11" style="stroke:#181818;stroke-width:1.0;"/><path d="M1397.0156,71.875 Q1397.1719,71.6563 1397.3594,71.5469 Q1397.5469,71.4375 1397.7656,71.4375 Q1398.1406,71.4375 1398.375,71.7031 Q1398.6094,71.9531 1398.6094,72.5625 L1398.6094,74.0156 Q1398.6094,74.625 1398.375,74.8906 Q1398.1406,75.1563 1397.7656,75.1563 Q1397.4219,75.1563 1397.2188,74.9531 Q1397.0156,74.7656 1396.9063,74.25 Q1396.8594,73.8906 1396.6719,73.7031 Q1396.3438,73.3281 1395.7344,73.1094 Q1395.125,72.8906 1394.5,72.8906 Q1393.7344,72.8906 1393.0938,73.2188 Q1392.4688,73.5469 1391.9688,74.2969 Q1391.4844,75.0469 1391.4844,76.0781 L1391.4844,77.1719 Q1391.4844,78.4063 1392.375,79.2344 Q1393.2656,80.0469 1394.8594,80.0469 Q1395.7969,80.0469 1396.4531,79.7969 Q1396.8438,79.6406 1397.2656,79.2031 Q1397.5313,78.9375 1397.6719,78.8594 Q1397.8281,78.7813 1398.0313,78.7813 Q1398.3594,78.7813 1398.6094,79.0469 Q1398.875,79.2969 1398.875,79.6406 Q1398.875,79.9844 1398.5313,80.3906 Q1398.0313,80.9688 1397.2344,81.2969 Q1396.1563,81.75 1394.8594,81.75 Q1393.3438,81.75 1392.1406,81.125 Q1391.1563,80.625 1390.4688,79.5625 Q1389.7813,78.4844 1389.7813,77.2031 L1389.7813,76.0469 Q1389.7813,74.7188 1390.3906,73.5781 Q1391.0156,72.4219 1392.1094,71.8125 Q1393.2031,71.1875 1394.4375,71.1875 Q1395.1719,71.1875 1395.8125,71.3594 Q1396.4688,71.5156 1397.0156,71.875 Z " fill="#000000"/><text fill="#000000" font-family="sans-serif" font-size="14" lengthAdjust="spacing" textLength="85" x="1414.75" y="81.7285">ProfileScreen</text><line style="stroke:#181818;stroke-width:0.5;" x1="1158" x2="1724" y1="92" y2="92"/><text fill="#000000" font-family="sans-serif" font-size="14" lengthAdjust="spacing" textLength="108" x="1163" y="110.5332">user: UserDetails</text><text fill="#000000" font-family="sans-serif" font-size="14" lengthAdjust="spacing" textLength="145" x="1163" y="128.1426">userProfile: UserProfile</text><text fill="#000000" font-family="sans-serif" font-size="14" lengthAdjust="spacing" textLength="10" x="1163" y="145.752">--</text><line style="stroke:#181818;stroke-width:0.5;" x1="1158" x2="1724" y1="152.8281" y2="152.8281"/><ellipse cx="1168" cy="167.1328" fill="#84BE84" rx="3" ry="3" style="stroke:#038048;stroke-width:1.0;"/><text fill="#000000" font-family="sans-serif" font-size="14" lengthAdjust="spacing" textLength="113" x="1177" y="171.3613">fetchUserDetails()</text><ellipse cx="1168" cy="184.7422" fill="#84BE84" rx="3" ry="3" style="stroke:#038048;stroke-width:1.0;"/><text fill="#000000" font-family="sans-serif" font-size="14" lengthAdjust="spacing" textLength="110" x="1177" y="188.9707">fetchUserProfile()</text><ellipse cx="1168" cy="202.3516" fill="#84BE84" rx="3" ry="3" style="stroke:#038048;stroke-width:1.0;"/><text fill="#000000" font-family="sans-serif" font-size="14" lengthAdjust="spacing" textLength="99" x="1177" y="206.5801">validateProfile()</text><ellipse cx="1168" cy="219.9609" fill="#84BE84" rx="3" ry="3" style="stroke:#038048;stroke-width:1.0;"/><text fill="#000000" font-family="sans-serif" font-size="14" lengthAdjust="spacing" textLength="290" x="1177" y="224.1895">submitProfileChanges(newProfile: UserProfile)</text><ellipse cx="1168" cy="237.5703" fill="#84BE84" rx="3" ry="3" style="stroke:#038048;stroke-width:1.0;"/><text fill="#000000" font-family="sans-serif" font-size="14" lengthAdjust="spacing" textLength="542" x="1177" y="241.7988">changePassword(oldPassword: String, newPassword: String, confirmPassword: String)</text><ellipse cx="1168" cy="255.1797" fill="#84BE84" rx="3" ry="3" style="stroke:#038048;stroke-width:1.0;"/><text fill="#000000" font-family="sans-serif" font-size="14" lengthAdjust="spacing" textLength="180" x="1177" y="259.4082">navigateToUserDashboard()</text></g><!--class UserDetails--><g id="elem_UserDetails"><rect codeLine="72" fill="#F1F1F1" height="118.4375" id="UserDetails" rx="2.5" ry="2.5" style="stroke:#181818;stroke-width:0.5;" width="126" x="1760" y="104"/><ellipse cx="1784.9" cy="120" fill="#ADD1B2" rx="11" ry="11" style="stroke:#181818;stroke-width:1.0;"/><path d="M1787.6656,115.875 Q1787.8219,115.6563 1788.0094,115.5469 Q1788.1969,115.4375 1788.4156,115.4375 Q1788.7906,115.4375 1789.025,115.7031 Q1789.2594,115.9531 1789.2594,116.5625 L1789.2594,118.0156 Q1789.2594,118.625 1789.025,118.8906 Q1788.7906,119.1563 1788.4156,119.1563 Q1788.0719,119.1563 1787.8688,118.9531 Q1787.6656,118.7656 1787.5563,118.25 Q1787.5094,117.8906 1787.3219,117.7031 Q1786.9938,117.3281 1786.3844,117.1094 Q1785.775,116.8906 1785.15,116.8906 Q1784.3844,116.8906 1783.7438,117.2188 Q1783.1188,117.5469 1782.6188,118.2969 Q1782.1344,119.0469 1782.1344,120.0781 L1782.1344,121.1719 Q1782.1344,122.4063 1783.025,123.2344 Q1783.9156,124.0469 1785.5094,124.0469 Q1786.4469,124.0469 1787.1031,123.7969 Q1787.4938,123.6406 1787.9156,123.2031 Q1788.1813,122.9375 1788.3219,122.8594 Q1788.4781,122.7813 1788.6813,122.7813 Q1789.0094,122.7813 1789.2594,123.0469 Q1789.525,123.2969 1789.525,123.6406 Q1789.525,123.9844 1789.1813,124.3906 Q1788.6813,124.9688 1787.8844,125.2969 Q1786.8063,125.75 1785.5094,125.75 Q1783.9938,125.75 1782.7906,125.125 Q1781.8063,124.625 1781.1188,123.5625 Q1780.4313,122.4844 1780.4313,121.2031 L1780.4313,120.0469 Q1780.4313,118.7188 1781.0406,117.5781 Q1781.6656,116.4219 1782.7594,115.8125 Q1783.8531,115.1875 1785.0875,115.1875 Q1785.8219,115.1875 1786.4625,115.3594 Q1787.1188,115.5156 1787.6656,115.875 Z " fill="#000000"/><text fill="#000000" font-family="sans-serif" font-size="14" lengthAdjust="spacing" textLength="72" x="1801.1" y="125.7285">UserDetails</text><line style="stroke:#181818;stroke-width:0.5;" x1="1761" x2="1885" y1="136" y2="136"/><text fill="#000000" font-family="sans-serif" font-size="14" lengthAdjust="spacing" textLength="56" x="1766" y="154.5332">id: String</text><text fill="#000000" font-family="sans-serif" font-size="14" lengthAdjust="spacing" textLength="80" x="1766" y="172.1426">name: String</text><text fill="#000000" font-family="sans-serif" font-size="14" lengthAdjust="spacing" textLength="78" x="1766" y="189.752">email: String</text><text fill="#000000" font-family="sans-serif" font-size="14" lengthAdjust="spacing" textLength="114" x="1766" y="207.3613">roles: List&lt;String&gt;</text><line style="stroke:#181818;stroke-width:0.5;" x1="1761" x2="1885" y1="214.4375" y2="214.4375"/></g><!--class UserProfile--><g id="elem_UserProfile"><rect codeLine="79" fill="#F1F1F1" height="136.0469" id="UserProfile" rx="2.5" ry="2.5" style="stroke:#181818;stroke-width:0.5;" width="148" x="102" y="396.5"/><ellipse cx="138.15" cy="412.5" fill="#ADD1B2" rx="11" ry="11" style="stroke:#181818;stroke-width:1.0;"/><path d="M140.9156,408.375 Q141.0719,408.1563 141.2594,408.0469 Q141.4469,407.9375 141.6656,407.9375 Q142.0406,407.9375 142.275,408.2031 Q142.5094,408.4531 142.5094,409.0625 L142.5094,410.5156 Q142.5094,411.125 142.275,411.3906 Q142.0406,411.6563 141.6656,411.6563 Q141.3219,411.6563 141.1188,411.4531 Q140.9156,411.2656 140.8063,410.75 Q140.7594,410.3906 140.5719,410.2031 Q140.2438,409.8281 139.6344,409.6094 Q139.025,409.3906 138.4,409.3906 Q137.6344,409.3906 136.9938,409.7188 Q136.3688,410.0469 135.8688,410.7969 Q135.3844,411.5469 135.3844,412.5781 L135.3844,413.6719 Q135.3844,414.9063 136.275,415.7344 Q137.1656,416.5469 138.7594,416.5469 Q139.6969,416.5469 140.3531,416.2969 Q140.7438,416.1406 141.1656,415.7031 Q141.4313,415.4375 141.5719,415.3594 Q141.7281,415.2813 141.9313,415.2813 Q142.2594,415.2813 142.5094,415.5469 Q142.775,415.7969 142.775,416.1406 Q142.775,416.4844 142.4313,416.8906 Q141.9313,417.4688 141.1344,417.7969 Q140.0563,418.25 138.7594,418.25 Q137.2438,418.25 136.0406,417.625 Q135.0563,417.125 134.3688,416.0625 Q133.6813,414.9844 133.6813,413.7031 L133.6813,412.5469 Q133.6813,411.2188 134.2906,410.0781 Q134.9156,408.9219 136.0094,408.3125 Q137.1031,407.6875 138.3375,407.6875 Q139.0719,407.6875 139.7125,407.8594 Q140.3688,408.0156 140.9156,408.375 Z " fill="#000000"/><text fill="#000000" font-family="sans-serif" font-size="14" lengthAdjust="spacing" textLength="69" x="156.85" y="418.2285">UserProfile</text><line style="stroke:#181818;stroke-width:0.5;" x1="103" x2="249" y1="428.5" y2="428.5"/><text fill="#000000" font-family="sans-serif" font-size="14" lengthAdjust="spacing" textLength="104" x="108" y="447.0332">firstName: String</text><text fill="#000000" font-family="sans-serif" font-size="14" lengthAdjust="spacing" textLength="103" x="108" y="464.6426">lastName: String</text><text fill="#000000" font-family="sans-serif" font-size="14" lengthAdjust="spacing" textLength="94" x="108" y="482.252">campus: String</text><text fill="#000000" font-family="sans-serif" font-size="14" lengthAdjust="spacing" textLength="107" x="108" y="499.8613">residence: String</text><text fill="#000000" font-family="sans-serif" font-size="14" lengthAdjust="spacing" textLength="136" x="108" y="517.4707">allergies: List&lt;String&gt;</text><line style="stroke:#181818;stroke-width:0.5;" x1="103" x2="249" y1="524.5469" y2="524.5469"/></g><!--class AdminUserManagementScreen--><g id="elem_AdminUserManagementScreen"><rect codeLine="87" fill="#F1F1F1" height="171.2656" id="AdminUserManagementScreen" rx="2.5" ry="2.5" style="stroke:#181818;stroke-width:0.5;" width="227" x="285.5" y="379"/><ellipse cx="300.5" cy="395" fill="#ADD1B2" rx="11" ry="11" style="stroke:#181818;stroke-width:1.0;"/><path d="M303.2656,390.875 Q303.4219,390.6563 303.6094,390.5469 Q303.7969,390.4375 304.0156,390.4375 Q304.3906,390.4375 304.625,390.7031 Q304.8594,390.9531 304.8594,391.5625 L304.8594,393.0156 Q304.8594,393.625 304.625,393.8906 Q304.3906,394.1563 304.0156,394.1563 Q303.6719,394.1563 303.4688,393.9531 Q303.2656,393.7656 303.1563,393.25 Q303.1094,392.8906 302.9219,392.7031 Q302.5938,392.3281 301.9844,392.1094 Q301.375,391.8906 300.75,391.8906 Q299.9844,391.8906 299.3438,392.2188 Q298.7188,392.5469 298.2188,393.2969 Q297.7344,394.0469 297.7344,395.0781 L297.7344,396.1719 Q297.7344,397.4063 298.625,398.2344 Q299.5156,399.0469 301.1094,399.0469 Q302.0469,399.0469 302.7031,398.7969 Q303.0938,398.6406 303.5156,398.2031 Q303.7813,397.9375 303.9219,397.8594 Q304.0781,397.7813 304.2813,397.7813 Q304.6094,397.7813 304.8594,398.0469 Q305.125,398.2969 305.125,398.6406 Q305.125,398.9844 304.7813,399.3906 Q304.2813,399.9688 303.4844,400.2969 Q302.4063,400.75 301.1094,400.75 Q299.5938,400.75 298.3906,400.125 Q297.4063,399.625 296.7188,398.5625 Q296.0313,397.4844 296.0313,396.2031 L296.0313,395.0469 Q296.0313,393.7188 296.6406,392.5781 Q297.2656,391.4219 298.3594,390.8125 Q299.4531,390.1875 300.6875,390.1875 Q301.4219,390.1875 302.0625,390.3594 Q302.7188,390.5156 303.2656,390.875 Z " fill="#000000"/><text fill="#000000" font-family="sans-serif" font-size="14" lengthAdjust="spacing" textLength="195" x="314.5" y="400.7285">AdminUserManagementScreen</text><line style="stroke:#181818;stroke-width:0.5;" x1="286.5" x2="511.5" y1="411" y2="411"/><text fill="#000000" font-family="sans-serif" font-size="14" lengthAdjust="spacing" textLength="153" x="291.5" y="429.5332">users: List&lt;UserDetails&gt;</text><text fill="#000000" font-family="sans-serif" font-size="14" lengthAdjust="spacing" textLength="10" x="291.5" y="447.1426">--</text><line style="stroke:#181818;stroke-width:0.5;" x1="286.5" x2="511.5" y1="454.2188" y2="454.2188"/><ellipse cx="296.5" cy="468.5234" fill="#84BE84" rx="3" ry="3" style="stroke:#038048;stroke-width:1.0;"/><text fill="#000000" font-family="sans-serif" font-size="14" lengthAdjust="spacing" textLength="77" x="305.5" y="472.752">fetchUsers()</text><ellipse cx="296.5" cy="486.1328" fill="#84BE84" rx="3" ry="3" style="stroke:#038048;stroke-width:1.0;"/><text fill="#000000" font-family="sans-serif" font-size="14" lengthAdjust="spacing" textLength="187" x="305.5" y="490.3613">createUser(user: UserDetails)</text><ellipse cx="296.5" cy="503.7422" fill="#84BE84" rx="3" ry="3" style="stroke:#038048;stroke-width:1.0;"/><text fill="#000000" font-family="sans-serif" font-size="14" lengthAdjust="spacing" textLength="191" x="305.5" y="507.9707">updateUser(user: UserDetails)</text><ellipse cx="296.5" cy="521.3516" fill="#84BE84" rx="3" ry="3" style="stroke:#038048;stroke-width:1.0;"/><text fill="#000000" font-family="sans-serif" font-size="14" lengthAdjust="spacing" textLength="168" x="305.5" y="525.5801">disableUser(userId: String)</text><ellipse cx="296.5" cy="538.9609" fill="#84BE84" rx="3" ry="3" style="stroke:#038048;stroke-width:1.0;"/><text fill="#000000" font-family="sans-serif" font-size="14" lengthAdjust="spacing" textLength="190" x="305.5" y="543.1895">navigateToAdminDashboard()</text></g><!--class OrderScreen--><g id="elem_OrderScreen"><rect codeLine="97" fill="#F1F1F1" height="153.6563" id="OrderScreen" rx="2.5" ry="2.5" style="stroke:#181818;stroke-width:0.5;" width="206" x="548" y="387.5"/><ellipse cx="605.75" cy="403.5" fill="#ADD1B2" rx="11" ry="11" style="stroke:#181818;stroke-width:1.0;"/><path d="M608.5156,399.375 Q608.6719,399.1563 608.8594,399.0469 Q609.0469,398.9375 609.2656,398.9375 Q609.6406,398.9375 609.875,399.2031 Q610.1094,399.4531 610.1094,400.0625 L610.1094,401.5156 Q610.1094,402.125 609.875,402.3906 Q609.6406,402.6563 609.2656,402.6563 Q608.9219,402.6563 608.7188,402.4531 Q608.5156,402.2656 608.4063,401.75 Q608.3594,401.3906 608.1719,401.2031 Q607.8438,400.8281 607.2344,400.6094 Q606.625,400.3906 606,400.3906 Q605.2344,400.3906 604.5938,400.7188 Q603.9688,401.0469 603.4688,401.7969 Q602.9844,402.5469 602.9844,403.5781 L602.9844,404.6719 Q602.9844,405.9063 603.875,406.7344 Q604.7656,407.5469 606.3594,407.5469 Q607.2969,407.5469 607.9531,407.2969 Q608.3438,407.1406 608.7656,406.7031 Q609.0313,406.4375 609.1719,406.3594 Q609.3281,406.2813 609.5313,406.2813 Q609.8594,406.2813 610.1094,406.5469 Q610.375,406.7969 610.375,407.1406 Q610.375,407.4844 610.0313,407.8906 Q609.5313,408.4688 608.7344,408.7969 Q607.6563,409.25 606.3594,409.25 Q604.8438,409.25 603.6406,408.625 Q602.6563,408.125 601.9688,407.0625 Q601.2813,405.9844 601.2813,404.7031 L601.2813,403.5469 Q601.2813,402.2188 601.8906,401.0781 Q602.5156,399.9219 603.6094,399.3125 Q604.7031,398.6875 605.9375,398.6875 Q606.6719,398.6875 607.3125,398.8594 Q607.9688,399.0156 608.5156,399.375 Z " fill="#000000"/><text fill="#000000" font-family="sans-serif" font-size="14" lengthAdjust="spacing" textLength="82" x="626.25" y="409.2285">OrderScreen</text><line style="stroke:#181818;stroke-width:0.5;" x1="549" x2="753" y1="419.5" y2="419.5"/><text fill="#000000" font-family="sans-serif" font-size="14" lengthAdjust="spacing" textLength="124" x="554" y="438.0332">orders: List&lt;Order&gt;</text><text fill="#000000" font-family="sans-serif" font-size="14" lengthAdjust="spacing" textLength="10" x="554" y="455.6426">--</text><line style="stroke:#181818;stroke-width:0.5;" x1="549" x2="753" y1="462.7188" y2="462.7188"/><ellipse cx="559" cy="477.0234" fill="#84BE84" rx="3" ry="3" style="stroke:#038048;stroke-width:1.0;"/><text fill="#000000" font-family="sans-serif" font-size="14" lengthAdjust="spacing" textLength="85" x="568" y="481.252">fetchOrders()</text><ellipse cx="559" cy="494.6328" fill="#84BE84" rx="3" ry="3" style="stroke:#038048;stroke-width:1.0;"/><text fill="#000000" font-family="sans-serif" font-size="14" lengthAdjust="spacing" textLength="170" x="568" y="498.8613">updateOrder(order: Order)</text><ellipse cx="559" cy="512.2422" fill="#84BE84" rx="3" ry="3" style="stroke:#038048;stroke-width:1.0;"/><text fill="#000000" font-family="sans-serif" font-size="14" lengthAdjust="spacing" textLength="178" x="568" y="516.4707">cancelOrder(orderId: String)</text><ellipse cx="559" cy="529.8516" fill="#84BE84" rx="3" ry="3" style="stroke:#038048;stroke-width:1.0;"/><text fill="#000000" font-family="sans-serif" font-size="14" lengthAdjust="spacing" textLength="180" x="568" y="534.0801">navigateToUserDashboard()</text></g><!--class Order--><g id="elem_Order"><rect codeLine="106" fill="#F1F1F1" height="118.4375" id="Order" rx="2.5" ry="2.5" style="stroke:#181818;stroke-width:0.5;" width="187" x="789.5" y="405.5"/><ellipse cx="860.25" cy="421.5" fill="#ADD1B2" rx="11" ry="11" style="stroke:#181818;stroke-width:1.0;"/><path d="M863.0156,417.375 Q863.1719,417.1563 863.3594,417.0469 Q863.5469,416.9375 863.7656,416.9375 Q864.1406,416.9375 864.375,417.2031 Q864.6094,417.4531 864.6094,418.0625 L864.6094,419.5156 Q864.6094,420.125 864.375,420.3906 Q864.1406,420.6563 863.7656,420.6563 Q863.4219,420.6563 863.2188,420.4531 Q863.0156,420.2656 862.9063,419.75 Q862.8594,419.3906 862.6719,419.2031 Q862.3438,418.8281 861.7344,418.6094 Q861.125,418.3906 860.5,418.3906 Q859.7344,418.3906 859.0938,418.7188 Q858.4688,419.0469 857.9688,419.7969 Q857.4844,420.5469 857.4844,421.5781 L857.4844,422.6719 Q857.4844,423.9063 858.375,424.7344 Q859.2656,425.5469 860.8594,425.5469 Q861.7969,425.5469 862.4531,425.2969 Q862.8438,425.1406 863.2656,424.7031 Q863.5313,424.4375 863.6719,424.3594 Q863.8281,424.2813 864.0313,424.2813 Q864.3594,424.2813 864.6094,424.5469 Q864.875,424.7969 864.875,425.1406 Q864.875,425.4844 864.5313,425.8906 Q864.0313,426.4688 863.2344,426.7969 Q862.1563,427.25 860.8594,427.25 Q859.3438,427.25 858.1406,426.625 Q857.1563,426.125 856.4688,425.0625 Q855.7813,423.9844 855.7813,422.7031 L855.7813,421.5469 Q855.7813,420.2188 856.3906,419.0781 Q857.0156,417.9219 858.1094,417.3125 Q859.2031,416.6875 860.4375,416.6875 Q861.1719,416.6875 861.8125,416.8594 Q862.4688,417.0156 863.0156,417.375 Z " fill="#000000"/><text fill="#000000" font-family="sans-serif" font-size="14" lengthAdjust="spacing" textLength="37" x="880.75" y="427.2285">Order</text><line style="stroke:#181818;stroke-width:0.5;" x1="790.5" x2="975.5" y1="437.5" y2="437.5"/><text fill="#000000" font-family="sans-serif" font-size="14" lengthAdjust="spacing" textLength="56" x="795.5" y="456.0332">id: String</text><text fill="#000000" font-family="sans-serif" font-size="14" lengthAdjust="spacing" textLength="140" x="795.5" y="473.6426">items: List&lt;MenuItem&gt;</text><text fill="#000000" font-family="sans-serif" font-size="14" lengthAdjust="spacing" textLength="83" x="795.5" y="491.252">status: String</text><line style="stroke:#181818;stroke-width:0.5;" x1="790.5" x2="975.5" y1="498.3281" y2="498.3281"/><text fill="#000000" font-family="sans-serif" font-size="14" lengthAdjust="spacing" textLength="175" x="795.5" y="516.8613">totalAmount: Decimal(19, 4)</text></g><!--class MenuItem--><g id="elem_MenuItem"><rect codeLine="113" fill="#F1F1F1" height="118.4375" id="MenuItem" rx="2.5" ry="2.5" style="stroke:#181818;stroke-width:0.5;" width="143" x="1011.5" y="405.5"/><ellipse cx="1049" cy="421.5" fill="#ADD1B2" rx="11" ry="11" style="stroke:#181818;stroke-width:1.0;"/><path d="M1051.7656,417.375 Q1051.9219,417.1563 1052.1094,417.0469 Q1052.2969,416.9375 1052.5156,416.9375 Q1052.8906,416.9375 1053.125,417.2031 Q1053.3594,417.4531 1053.3594,418.0625 L1053.3594,419.5156 Q1053.3594,420.125 1053.125,420.3906 Q1052.8906,420.6563 1052.5156,420.6563 Q1052.1719,420.6563 1051.9688,420.4531 Q1051.7656,420.2656 1051.6563,419.75 Q1051.6094,419.3906 1051.4219,419.2031 Q1051.0938,418.8281 1050.4844,418.6094 Q1049.875,418.3906 1049.25,418.3906 Q1048.4844,418.3906 1047.8438,418.7188 Q1047.2188,419.0469 1046.7188,419.7969 Q1046.2344,420.5469 1046.2344,421.5781 L1046.2344,422.6719 Q1046.2344,423.9063 1047.125,424.7344 Q1048.0156,425.5469 1049.6094,425.5469 Q1050.5469,425.5469 1051.2031,425.2969 Q1051.5938,425.1406 1052.0156,424.7031 Q1052.2813,424.4375 1052.4219,424.3594 Q1052.5781,424.2813 1052.7813,424.2813 Q1053.1094,424.2813 1053.3594,424.5469 Q1053.625,424.7969 1053.625,425.1406 Q1053.625,425.4844 1053.2813,425.8906 Q1052.7813,426.4688 1051.9844,426.7969 Q1050.9063,427.25 1049.6094,427.25 Q1048.0938,427.25 1046.8906,426.625 Q1045.9063,426.125 1045.2188,425.0625 Q1044.5313,423.9844 1044.5313,422.7031 L1044.5313,421.5469 Q1044.5313,420.2188 1045.1406,419.0781 Q1045.7656,417.9219 1046.8594,417.3125 Q1047.9531,416.6875 1049.1875,416.6875 Q1049.9219,416.6875 1050.5625,416.8594 Q1051.2188,417.0156 1051.7656,417.375 Z " fill="#000000"/><text fill="#000000" font-family="sans-serif" font-size="14" lengthAdjust="spacing" textLength="61" x="1068" y="427.2285">MenuItem</text><line style="stroke:#181818;stroke-width:0.5;" x1="1012.5" x2="1153.5" y1="437.5" y2="437.5"/><text fill="#000000" font-family="sans-serif" font-size="14" lengthAdjust="spacing" textLength="56" x="1017.5" y="456.0332">id: String</text><text fill="#000000" font-family="sans-serif" font-size="14" lengthAdjust="spacing" textLength="80" x="1017.5" y="473.6426">name: String</text><text fill="#000000" font-family="sans-serif" font-size="14" lengthAdjust="spacing" textLength="114" x="1017.5" y="491.252">description: String</text><line style="stroke:#181818;stroke-width:0.5;" x1="1012.5" x2="1153.5" y1="498.3281" y2="498.3281"/><text fill="#000000" font-family="sans-serif" font-size="14" lengthAdjust="spacing" textLength="131" x="1017.5" y="516.8613">price: Decimal(19, 4)</text></g><!--class SettingsScreen--><g id="elem_SettingsScreen"><rect codeLine="120" fill="#F1F1F1" height="136.0469" id="SettingsScreen" rx="2.5" ry="2.5" style="stroke:#181818;stroke-width:0.5;" width="317" x="1189.5" y="396.5"/><ellipse cx="1295.75" cy="412.5" fill="#ADD1B2" rx="11" ry="11" style="stroke:#181818;stroke-width:1.0;"/><path d="M1298.5156,408.375 Q1298.6719,408.1563 1298.8594,408.0469 Q1299.0469,407.9375 1299.2656,407.9375 Q1299.6406,407.9375 1299.875,408.2031 Q1300.1094,408.4531 1300.1094,409.0625 L1300.1094,410.5156 Q1300.1094,411.125 1299.875,411.3906 Q1299.6406,411.6563 1299.2656,411.6563 Q1298.9219,411.6563 1298.7188,411.4531 Q1298.5156,411.2656 1298.4063,410.75 Q1298.3594,410.3906 1298.1719,410.2031 Q1297.8438,409.8281 1297.2344,409.6094 Q1296.625,409.3906 1296,409.3906 Q1295.2344,409.3906 1294.5938,409.7188 Q1293.9688,410.0469 1293.4688,410.7969 Q1292.9844,411.5469 1292.9844,412.5781 L1292.9844,413.6719 Q1292.9844,414.9063 1293.875,415.7344 Q1294.7656,416.5469 1296.3594,416.5469 Q1297.2969,416.5469 1297.9531,416.2969 Q1298.3438,416.1406 1298.7656,415.7031 Q1299.0313,415.4375 1299.1719,415.3594 Q1299.3281,415.2813 1299.5313,415.2813 Q1299.8594,415.2813 1300.1094,415.5469 Q1300.375,415.7969 1300.375,416.1406 Q1300.375,416.4844 1300.0313,416.8906 Q1299.5313,417.4688 1298.7344,417.7969 Q1297.6563,418.25 1296.3594,418.25 Q1294.8438,418.25 1293.6406,417.625 Q1292.6563,417.125 1291.9688,416.0625 Q1291.2813,414.9844 1291.2813,413.7031 L1291.2813,412.5469 Q1291.2813,411.2188 1291.8906,410.0781 Q1292.5156,408.9219 1293.6094,408.3125 Q1294.7031,407.6875 1295.9375,407.6875 Q1296.6719,407.6875 1297.3125,407.8594 Q1297.9688,408.0156 1298.5156,408.375 Z " fill="#000000"/><text fill="#000000" font-family="sans-serif" font-size="14" lengthAdjust="spacing" textLength="96" x="1316.25" y="418.2285">SettingsScreen</text><line style="stroke:#181818;stroke-width:0.5;" x1="1190.5" x2="1505.5" y1="428.5" y2="428.5"/><text fill="#000000" font-family="sans-serif" font-size="14" lengthAdjust="spacing" textLength="186" x="1195.5" y="447.0332">settings: Map&lt;String, Object&gt;</text><text fill="#000000" font-family="sans-serif" font-size="14" lengthAdjust="spacing" textLength="10" x="1195.5" y="464.6426">--</text><line style="stroke:#181818;stroke-width:0.5;" x1="1190.5" x2="1505.5" y1="471.7188" y2="471.7188"/><ellipse cx="1200.5" cy="486.0234" fill="#84BE84" rx="3" ry="3" style="stroke:#038048;stroke-width:1.0;"/><text fill="#000000" font-family="sans-serif" font-size="14" lengthAdjust="spacing" textLength="92" x="1209.5" y="490.252">fetchSettings()</text><ellipse cx="1200.5" cy="503.6328" fill="#84BE84" rx="3" ry="3" style="stroke:#038048;stroke-width:1.0;"/><text fill="#000000" font-family="sans-serif" font-size="14" lengthAdjust="spacing" textLength="291" x="1209.5" y="507.8613">updateSettings(settings: Map&lt;String, Object&gt;)</text><ellipse cx="1200.5" cy="521.2422" fill="#84BE84" rx="3" ry="3" style="stroke:#038048;stroke-width:1.0;"/><text fill="#000000" font-family="sans-serif" font-size="14" lengthAdjust="spacing" textLength="180" x="1209.5" y="525.4707">navigateToUserDashboard()</text></g><!--class AdminOrderManagementScreen--><g id="elem_AdminOrderManagementScreen"><rect codeLine="128" fill="#F1F1F1" height="153.6563" id="AdminOrderManagementScreen" rx="2.5" ry="2.5" style="stroke:#181818;stroke-width:0.5;" width="338" x="7" y="662.5"/><ellipse cx="70.25" cy="678.5" fill="#ADD1B2" rx="11" ry="11" style="stroke:#181818;stroke-width:1.0;"/><path d="M73.0156,674.375 Q73.1719,674.1563 73.3594,674.0469 Q73.5469,673.9375 73.7656,673.9375 Q74.1406,673.9375 74.375,674.2031 Q74.6094,674.4531 74.6094,675.0625 L74.6094,676.5156 Q74.6094,677.125 74.375,677.3906 Q74.1406,677.6563 73.7656,677.6563 Q73.4219,677.6563 73.2188,677.4531 Q73.0156,677.2656 72.9063,676.75 Q72.8594,676.3906 72.6719,676.2031 Q72.3438,675.8281 71.7344,675.6094 Q71.125,675.3906 70.5,675.3906 Q69.7344,675.3906 69.0938,675.7188 Q68.4688,676.0469 67.9688,676.7969 Q67.4844,677.5469 67.4844,678.5781 L67.4844,679.6719 Q67.4844,680.9063 68.375,681.7344 Q69.2656,682.5469 70.8594,682.5469 Q71.7969,682.5469 72.4531,682.2969 Q72.8438,682.1406 73.2656,681.7031 Q73.5313,681.4375 73.6719,681.3594 Q73.8281,681.2813 74.0313,681.2813 Q74.3594,681.2813 74.6094,681.5469 Q74.875,681.7969 74.875,682.1406 Q74.875,682.4844 74.5313,682.8906 Q74.0313,683.4688 73.2344,683.7969 Q72.1563,684.25 70.8594,684.25 Q69.3438,684.25 68.1406,683.625 Q67.1563,683.125 66.4688,682.0625 Q65.7813,680.9844 65.7813,679.7031 L65.7813,678.5469 Q65.7813,677.2188 66.3906,676.0781 Q67.0156,674.9219 68.1094,674.3125 Q69.2031,673.6875 70.4375,673.6875 Q71.1719,673.6875 71.8125,673.8594 Q72.4688,674.0156 73.0156,674.375 Z " fill="#000000"/><text fill="#000000" font-family="sans-serif" font-size="14" lengthAdjust="spacing" textLength="203" x="90.75" y="684.2285">AdminOrderManagementScreen</text><line style="stroke:#181818;stroke-width:0.5;" x1="8" x2="344" y1="694.5" y2="694.5"/><text fill="#000000" font-family="sans-serif" font-size="14" lengthAdjust="spacing" textLength="124" x="13" y="713.0332">orders: List&lt;Order&gt;</text><text fill="#000000" font-family="sans-serif" font-size="14" lengthAdjust="spacing" textLength="10" x="13" y="730.6426">--</text><line style="stroke:#181818;stroke-width:0.5;" x1="8" x2="344" y1="737.7188" y2="737.7188"/><ellipse cx="18" cy="752.0234" fill="#84BE84" rx="3" ry="3" style="stroke:#038048;stroke-width:1.0;"/><text fill="#000000" font-family="sans-serif" font-size="14" lengthAdjust="spacing" textLength="85" x="27" y="756.252">fetchOrders()</text><ellipse cx="18" cy="769.6328" fill="#84BE84" rx="3" ry="3" style="stroke:#038048;stroke-width:1.0;"/><text fill="#000000" font-family="sans-serif" font-size="14" lengthAdjust="spacing" textLength="312" x="27" y="773.8613">updateOrderStatus(orderId: String, status: String)</text><ellipse cx="18" cy="787.2422" fill="#84BE84" rx="3" ry="3" style="stroke:#038048;stroke-width:1.0;"/><text fill="#000000" font-family="sans-serif" font-size="14" lengthAdjust="spacing" textLength="237" x="27" y="791.4707">sendOrderNotification(orderId: String)</text><ellipse cx="18" cy="804.8516" fill="#84BE84" rx="3" ry="3" style="stroke:#038048;stroke-width:1.0;"/><text fill="#000000" font-family="sans-serif" font-size="14" lengthAdjust="spacing" textLength="190" x="27" y="809.0801">navigateToAdminDashboard()</text></g><!--class UserMenuScreen--><g id="elem_UserMenuScreen"><rect codeLine="137" fill="#F1F1F1" height="259.3125" id="UserMenuScreen" rx="2.5" ry="2.5" style="stroke:#181818;stroke-width:0.5;" width="607" x="380.5" y="610"/><ellipse cx="625.25" cy="626" fill="#ADD1B2" rx="11" ry="11" style="stroke:#181818;stroke-width:1.0;"/><path d="M628.0156,621.875 Q628.1719,621.6563 628.3594,621.5469 Q628.5469,621.4375 628.7656,621.4375 Q629.1406,621.4375 629.375,621.7031 Q629.6094,621.9531 629.6094,622.5625 L629.6094,624.0156 Q629.6094,624.625 629.375,624.8906 Q629.1406,625.1563 628.7656,625.1563 Q628.4219,625.1563 628.2188,624.9531 Q628.0156,624.7656 627.9063,624.25 Q627.8594,623.8906 627.6719,623.7031 Q627.3438,623.3281 626.7344,623.1094 Q626.125,622.8906 625.5,622.8906 Q624.7344,622.8906 624.0938,623.2188 Q623.4688,623.5469 622.9688,624.2969 Q622.4844,625.0469 622.4844,626.0781 L622.4844,627.1719 Q622.4844,628.4063 623.375,629.2344 Q624.2656,630.0469 625.8594,630.0469 Q626.7969,630.0469 627.4531,629.7969 Q627.8438,629.6406 628.2656,629.2031 Q628.5313,628.9375 628.6719,628.8594 Q628.8281,628.7813 629.0313,628.7813 Q629.3594,628.7813 629.6094,629.0469 Q629.875,629.2969 629.875,629.6406 Q629.875,629.9844 629.5313,630.3906 Q629.0313,630.9688 628.2344,631.2969 Q627.1563,631.75 625.8594,631.75 Q624.3438,631.75 623.1406,631.125 Q622.1563,630.625 621.4688,629.5625 Q620.7813,628.4844 620.7813,627.2031 L620.7813,626.0469 Q620.7813,624.7188 621.3906,623.5781 Q622.0156,622.4219 623.1094,621.8125 Q624.2031,621.1875 625.4375,621.1875 Q626.1719,621.1875 626.8125,621.3594 Q627.4688,621.5156 628.0156,621.875 Z " fill="#000000"/><text fill="#000000" font-family="sans-serif" font-size="14" lengthAdjust="spacing" textLength="109" x="645.75" y="631.7285">UserMenuScreen</text><line style="stroke:#181818;stroke-width:0.5;" x1="381.5" x2="986.5" y1="642" y2="642"/><text fill="#000000" font-family="sans-serif" font-size="14" lengthAdjust="spacing" textLength="175" x="386.5" y="660.5332">menuItems: List&lt;MenuItem&gt;</text><text fill="#000000" font-family="sans-serif" font-size="14" lengthAdjust="spacing" textLength="10" x="386.5" y="678.1426">--</text><line style="stroke:#181818;stroke-width:0.5;" x1="381.5" x2="986.5" y1="685.2188" y2="685.2188"/><text fill="#000000" font-family="sans-serif" font-size="14" lengthAdjust="spacing" textLength="581" x="400.5" y="703.752">orderBasket: List&lt;MenuItem&gt; (Browser LocalStorage -&gt; shared with UserMealDetailsScreen)</text><ellipse cx="391.5" cy="717.1328" fill="#84BE84" rx="3" ry="3" style="stroke:#038048;stroke-width:1.0;"/><text fill="#000000" font-family="sans-serif" font-size="14" lengthAdjust="spacing" textLength="109" x="400.5" y="721.3613">fetchMenuItems()</text><ellipse cx="391.5" cy="734.7422" fill="#84BE84" rx="3" ry="3" style="stroke:#038048;stroke-width:1.0;"/><text fill="#000000" font-family="sans-serif" font-size="14" lengthAdjust="spacing" textLength="155" x="400.5" y="738.9707">showAllergyInformation()</text><ellipse cx="391.5" cy="752.3516" fill="#84BE84" rx="3" ry="3" style="stroke:#038048;stroke-width:1.0;"/><text fill="#000000" font-family="sans-serif" font-size="14" lengthAdjust="spacing" textLength="266" x="400.5" y="756.5801">navigateToMealDetails(menuItemId: Long)</text><ellipse cx="391.5" cy="769.9609" fill="#84BE84" rx="3" ry="3" style="stroke:#038048;stroke-width:1.0;"/><text fill="#000000" font-family="sans-serif" font-size="14" lengthAdjust="spacing" textLength="360" x="400.5" y="774.1895">addItemToBasket(menuItem: MenuItem, quantity: Integer)</text><ellipse cx="391.5" cy="787.5703" fill="#84BE84" rx="3" ry="3" style="stroke:#038048;stroke-width:1.0;"/><text fill="#000000" font-family="sans-serif" font-size="14" lengthAdjust="spacing" textLength="271" x="400.5" y="791.7988">removeItemFromBasket(menuItemId: Long)</text><ellipse cx="391.5" cy="805.1797" fill="#84BE84" rx="3" ry="3" style="stroke:#038048;stroke-width:1.0;"/><text fill="#000000" font-family="sans-serif" font-size="14" lengthAdjust="spacing" textLength="84" x="400.5" y="809.4082">clearBasket()</text><ellipse cx="391.5" cy="822.7891" fill="#84BE84" rx="3" ry="3" style="stroke:#038048;stroke-width:1.0;"/><text fill="#000000" font-family="sans-serif" font-size="14" lengthAdjust="spacing" textLength="88" x="400.5" y="827.0176">submitOrder()</text><ellipse cx="391.5" cy="840.3984" fill="#84BE84" rx="3" ry="3" style="stroke:#038048;stroke-width:1.0;"/><text fill="#000000" font-family="sans-serif" font-size="14" lengthAdjust="spacing" textLength="112" x="400.5" y="844.627">redirectToOrder()</text><ellipse cx="391.5" cy="858.0078" fill="#84BE84" rx="3" ry="3" style="stroke:#038048;stroke-width:1.0;"/><text fill="#000000" font-family="sans-serif" font-size="14" lengthAdjust="spacing" textLength="180" x="400.5" y="862.2363">navigateToUserDashboard()</text></g><!--class UserMealDetailsScreen--><g id="elem_UserMealDetailsScreen"><rect codeLine="152" fill="#F1F1F1" height="153.6563" id="UserMealDetailsScreen" rx="2.5" ry="2.5" style="stroke:#181818;stroke-width:0.5;" width="569" x="1022.5" y="662.5"/><ellipse cx="1229.25" cy="678.5" fill="#ADD1B2" rx="11" ry="11" style="stroke:#181818;stroke-width:1.0;"/><path d="M1232.0156,674.375 Q1232.1719,674.1563 1232.3594,674.0469 Q1232.5469,673.9375 1232.7656,673.9375 Q1233.1406,673.9375 1233.375,674.2031 Q1233.6094,674.4531 1233.6094,675.0625 L1233.6094,676.5156 Q1233.6094,677.125 1233.375,677.3906 Q1233.1406,677.6563 1232.7656,677.6563 Q1232.4219,677.6563 1232.2188,677.4531 Q1232.0156,677.2656 1231.9063,676.75 Q1231.8594,676.3906 1231.6719,676.2031 Q1231.3438,675.8281 1230.7344,675.6094 Q1230.125,675.3906 1229.5,675.3906 Q1228.7344,675.3906 1228.0938,675.7188 Q1227.4688,676.0469 1226.9688,676.7969 Q1226.4844,677.5469 1226.4844,678.5781 L1226.4844,679.6719 Q1226.4844,680.9063 1227.375,681.7344 Q1228.2656,682.5469 1229.8594,682.5469 Q1230.7969,682.5469 1231.4531,682.2969 Q1231.8438,682.1406 1232.2656,681.7031 Q1232.5313,681.4375 1232.6719,681.3594 Q1232.8281,681.2813 1233.0313,681.2813 Q1233.3594,681.2813 1233.6094,681.5469 Q1233.875,681.7969 1233.875,682.1406 Q1233.875,682.4844 1233.5313,682.8906 Q1233.0313,683.4688 1232.2344,683.7969 Q1231.1563,684.25 1229.8594,684.25 Q1228.3438,684.25 1227.1406,683.625 Q1226.1563,683.125 1225.4688,682.0625 Q1224.7813,680.9844 1224.7813,679.7031 L1224.7813,678.5469 Q1224.7813,677.2188 1225.3906,676.0781 Q1226.0156,674.9219 1227.1094,674.3125 Q1228.2031,673.6875 1229.4375,673.6875 Q1230.1719,673.6875 1230.8125,673.8594 Q1231.4688,674.0156 1232.0156,674.375 Z " fill="#000000"/><text fill="#000000" font-family="sans-serif" font-size="14" lengthAdjust="spacing" textLength="147" x="1249.75" y="684.2285">UserMealDetailsScreen</text><line style="stroke:#181818;stroke-width:0.5;" x1="1023.5" x2="1590.5" y1="694.5" y2="694.5"/><text fill="#000000" font-family="sans-serif" font-size="14" lengthAdjust="spacing" textLength="130" x="1028.5" y="713.0332">menuItem: MenuItem</text><text fill="#000000" font-family="sans-serif" font-size="14" lengthAdjust="spacing" textLength="10" x="1028.5" y="730.6426">--</text><line style="stroke:#181818;stroke-width:0.5;" x1="1023.5" x2="1590.5" y1="737.7188" y2="737.7188"/><text fill="#000000" font-family="sans-serif" font-size="14" lengthAdjust="spacing" textLength="543" x="1042.5" y="756.252">orderBasket: List&lt;MenuItem&gt; (Browser LocalStorage -&gt; shared with UserMenuScreen)</text><ellipse cx="1033.5" cy="769.6328" fill="#84BE84" rx="3" ry="3" style="stroke:#038048;stroke-width:1.0;"/><text fill="#000000" font-family="sans-serif" font-size="14" lengthAdjust="spacing" textLength="257" x="1042.5" y="773.8613">fetchMenuItemDetails(menuItemId: Long)</text><ellipse cx="1033.5" cy="787.2422" fill="#84BE84" rx="3" ry="3" style="stroke:#038048;stroke-width:1.0;"/><text fill="#000000" font-family="sans-serif" font-size="14" lengthAdjust="spacing" textLength="334" x="1042.5" y="791.4707">addToBasket(menuItem: MenuItem, quantity: Integer)</text><ellipse cx="1033.5" cy="804.8516" fill="#84BE84" rx="3" ry="3" style="stroke:#038048;stroke-width:1.0;"/><text fill="#000000" font-family="sans-serif" font-size="14" lengthAdjust="spacing" textLength="161" x="1042.5" y="809.0801">navigateToMenuScreen()</text></g><!--class AdminMenuScreen--><g id="elem_AdminMenuScreen"><rect codeLine="161" fill="#F1F1F1" height="171.2656" id="AdminMenuScreen" rx="2.5" ry="2.5" style="stroke:#181818;stroke-width:0.5;" width="271" x="1626.5" y="654"/><ellipse cx="1698.25" cy="670" fill="#ADD1B2" rx="11" ry="11" style="stroke:#181818;stroke-width:1.0;"/><path d="M1701.0156,665.875 Q1701.1719,665.6563 1701.3594,665.5469 Q1701.5469,665.4375 1701.7656,665.4375 Q1702.1406,665.4375 1702.375,665.7031 Q1702.6094,665.9531 1702.6094,666.5625 L1702.6094,668.0156 Q1702.6094,668.625 1702.375,668.8906 Q1702.1406,669.1563 1701.7656,669.1563 Q1701.4219,669.1563 1701.2188,668.9531 Q1701.0156,668.7656 1700.9063,668.25 Q1700.8594,667.8906 1700.6719,667.7031 Q1700.3438,667.3281 1699.7344,667.1094 Q1699.125,666.8906 1698.5,666.8906 Q1697.7344,666.8906 1697.0938,667.2188 Q1696.4688,667.5469 1695.9688,668.2969 Q1695.4844,669.0469 1695.4844,670.0781 L1695.4844,671.1719 Q1695.4844,672.4063 1696.375,673.2344 Q1697.2656,674.0469 1698.8594,674.0469 Q1699.7969,674.0469 1700.4531,673.7969 Q1700.8438,673.6406 1701.2656,673.2031 Q1701.5313,672.9375 1701.6719,672.8594 Q1701.8281,672.7813 1702.0313,672.7813 Q1702.3594,672.7813 1702.6094,673.0469 Q1702.875,673.2969 1702.875,673.6406 Q1702.875,673.9844 1702.5313,674.3906 Q1702.0313,674.9688 1701.2344,675.2969 Q1700.1563,675.75 1698.8594,675.75 Q1697.3438,675.75 1696.1406,675.125 Q1695.1563,674.625 1694.4688,673.5625 Q1693.7813,672.4844 1693.7813,671.2031 L1693.7813,670.0469 Q1693.7813,668.7188 1694.3906,667.5781 Q1695.0156,666.4219 1696.1094,665.8125 Q1697.2031,665.1875 1698.4375,665.1875 Q1699.1719,665.1875 1699.8125,665.3594 Q1700.4688,665.5156 1701.0156,665.875 Z " fill="#000000"/><text fill="#000000" font-family="sans-serif" font-size="14" lengthAdjust="spacing" textLength="119" x="1718.75" y="675.7285">AdminMenuScreen</text><line style="stroke:#181818;stroke-width:0.5;" x1="1627.5" x2="1896.5" y1="686" y2="686"/><text fill="#000000" font-family="sans-serif" font-size="14" lengthAdjust="spacing" textLength="175" x="1632.5" y="704.5332">menuItems: List&lt;MenuItem&gt;</text><text fill="#000000" font-family="sans-serif" font-size="14" lengthAdjust="spacing" textLength="10" x="1632.5" y="722.1426">--</text><line style="stroke:#181818;stroke-width:0.5;" x1="1627.5" x2="1896.5" y1="729.2188" y2="729.2188"/><ellipse cx="1637.5" cy="743.5234" fill="#84BE84" rx="3" ry="3" style="stroke:#038048;stroke-width:1.0;"/><text fill="#000000" font-family="sans-serif" font-size="14" lengthAdjust="spacing" textLength="109" x="1646.5" y="747.752">fetchMenuItems()</text><ellipse cx="1637.5" cy="761.1328" fill="#84BE84" rx="3" ry="3" style="stroke:#038048;stroke-width:1.0;"/><text fill="#000000" font-family="sans-serif" font-size="14" lengthAdjust="spacing" textLength="241" x="1646.5" y="765.3613">createMenuItem(menuItem: MenuItem)</text><ellipse cx="1637.5" cy="778.7422" fill="#84BE84" rx="3" ry="3" style="stroke:#038048;stroke-width:1.0;"/><text fill="#000000" font-family="sans-serif" font-size="14" lengthAdjust="spacing" textLength="245" x="1646.5" y="782.9707">updateMenuItem(menuItem: MenuItem)</text><ellipse cx="1637.5" cy="796.3516" fill="#84BE84" rx="3" ry="3" style="stroke:#038048;stroke-width:1.0;"/><text fill="#000000" font-family="sans-serif" font-size="14" lengthAdjust="spacing" textLength="235" x="1646.5" y="800.5801">removeMenuItem(menuItemId: String)</text><ellipse cx="1637.5" cy="813.9609" fill="#84BE84" rx="3" ry="3" style="stroke:#038048;stroke-width:1.0;"/><text fill="#000000" font-family="sans-serif" font-size="14" lengthAdjust="spacing" textLength="190" x="1646.5" y="818.1895">navigateToAdminDashboard()</text></g><!--class UserFeedbackScreen--><g id="elem_UserFeedbackScreen"><rect codeLine="171" fill="#F1F1F1" height="136.0469" id="UserFeedbackScreen" rx="2.5" ry="2.5" style="stroke:#181818;stroke-width:0.5;" width="337" x="1932.5" y="671.5"/><ellipse cx="2028.25" cy="687.5" fill="#ADD1B2" rx="11" ry="11" style="stroke:#181818;stroke-width:1.0;"/><path d="M2031.0156,683.375 Q2031.1719,683.1563 2031.3594,683.0469 Q2031.5469,682.9375 2031.7656,682.9375 Q2032.1406,682.9375 2032.375,683.2031 Q2032.6094,683.4531 2032.6094,684.0625 L2032.6094,685.5156 Q2032.6094,686.125 2032.375,686.3906 Q2032.1406,686.6563 2031.7656,686.6563 Q2031.4219,686.6563 2031.2188,686.4531 Q2031.0156,686.2656 2030.9063,685.75 Q2030.8594,685.3906 2030.6719,685.2031 Q2030.3438,684.8281 2029.7344,684.6094 Q2029.125,684.3906 2028.5,684.3906 Q2027.7344,684.3906 2027.0938,684.7188 Q2026.4688,685.0469 2025.9688,685.7969 Q2025.4844,686.5469 2025.4844,687.5781 L2025.4844,688.6719 Q2025.4844,689.9063 2026.375,690.7344 Q2027.2656,691.5469 2028.8594,691.5469 Q2029.7969,691.5469 2030.4531,691.2969 Q2030.8438,691.1406 2031.2656,690.7031 Q2031.5313,690.4375 2031.6719,690.3594 Q2031.8281,690.2813 2032.0313,690.2813 Q2032.3594,690.2813 2032.6094,690.5469 Q2032.875,690.7969 2032.875,691.1406 Q2032.875,691.4844 2032.5313,691.8906 Q2032.0313,692.4688 2031.2344,692.7969 Q2030.1563,693.25 2028.8594,693.25 Q2027.3438,693.25 2026.1406,692.625 Q2025.1563,692.125 2024.4688,691.0625 Q2023.7813,689.9844 2023.7813,688.7031 L2023.7813,687.5469 Q2023.7813,686.2188 2024.3906,685.0781 Q2025.0156,683.9219 2026.1094,683.3125 Q2027.2031,682.6875 2028.4375,682.6875 Q2029.1719,682.6875 2029.8125,682.8594 Q2030.4688,683.0156 2031.0156,683.375 Z " fill="#000000"/><text fill="#000000" font-family="sans-serif" font-size="14" lengthAdjust="spacing" textLength="137" x="2048.75" y="693.2285">UserFeedbackScreen</text><line style="stroke:#181818;stroke-width:0.5;" x1="1933.5" x2="2268.5" y1="703.5" y2="703.5"/><text fill="#000000" font-family="sans-serif" font-size="14" lengthAdjust="spacing" textLength="103" x="1938.5" y="722.0332">feedback: String</text><text fill="#000000" font-family="sans-serif" font-size="14" lengthAdjust="spacing" textLength="10" x="1938.5" y="739.6426">--</text><line style="stroke:#181818;stroke-width:0.5;" x1="1933.5" x2="2268.5" y1="746.7188" y2="746.7188"/><ellipse cx="1943.5" cy="761.0234" fill="#84BE84" rx="3" ry="3" style="stroke:#038048;stroke-width:1.0;"/><text fill="#000000" font-family="sans-serif" font-size="14" lengthAdjust="spacing" textLength="311" x="1952.5" y="765.252">submitFeedback(score: Integer, comment: String)</text><ellipse cx="1943.5" cy="778.6328" fill="#84BE84" rx="3" ry="3" style="stroke:#038048;stroke-width:1.0;"/><text fill="#000000" font-family="sans-serif" font-size="14" lengthAdjust="spacing" textLength="201" x="1952.5" y="782.8613">submitFeedback(score: Integer)</text><ellipse cx="1943.5" cy="796.2422" fill="#84BE84" rx="3" ry="3" style="stroke:#038048;stroke-width:1.0;"/><text fill="#000000" font-family="sans-serif" font-size="14" lengthAdjust="spacing" textLength="180" x="1952.5" y="800.4707">navigateToUserDashboard()</text></g><!--class AdminFeedbackScreen--><g id="elem_AdminFeedbackScreen"><rect codeLine="179" fill="#F1F1F1" height="118.4375" id="AdminFeedbackScreen" rx="2.5" ry="2.5" style="stroke:#181818;stroke-width:0.5;" width="216" x="2305" y="680.5"/><ellipse cx="2336.65" cy="696.5" fill="#ADD1B2" rx="11" ry="11" style="stroke:#181818;stroke-width:1.0;"/><path d="M2339.4156,692.375 Q2339.5719,692.1563 2339.7594,692.0469 Q2339.9469,691.9375 2340.1656,691.9375 Q2340.5406,691.9375 2340.775,692.2031 Q2341.0094,692.4531 2341.0094,693.0625 L2341.0094,694.5156 Q2341.0094,695.125 2340.775,695.3906 Q2340.5406,695.6563 2340.1656,695.6563 Q2339.8219,695.6563 2339.6188,695.4531 Q2339.4156,695.2656 2339.3063,694.75 Q2339.2594,694.3906 2339.0719,694.2031 Q2338.7438,693.8281 2338.1344,693.6094 Q2337.525,693.3906 2336.9,693.3906 Q2336.1344,693.3906 2335.4938,693.7188 Q2334.8688,694.0469 2334.3688,694.7969 Q2333.8844,695.5469 2333.8844,696.5781 L2333.8844,697.6719 Q2333.8844,698.9063 2334.775,699.7344 Q2335.6656,700.5469 2337.2594,700.5469 Q2338.1969,700.5469 2338.8531,700.2969 Q2339.2438,700.1406 2339.6656,699.7031 Q2339.9313,699.4375 2340.0719,699.3594 Q2340.2281,699.2813 2340.4313,699.2813 Q2340.7594,699.2813 2341.0094,699.5469 Q2341.275,699.7969 2341.275,700.1406 Q2341.275,700.4844 2340.9313,700.8906 Q2340.4313,701.4688 2339.6344,701.7969 Q2338.5563,702.25 2337.2594,702.25 Q2335.7438,702.25 2334.5406,701.625 Q2333.5563,701.125 2332.8688,700.0625 Q2332.1813,698.9844 2332.1813,697.7031 L2332.1813,696.5469 Q2332.1813,695.2188 2332.7906,694.0781 Q2333.4156,692.9219 2334.5094,692.3125 Q2335.6031,691.6875 2336.8375,691.6875 Q2337.5719,691.6875 2338.2125,691.8594 Q2338.8688,692.0156 2339.4156,692.375 Z " fill="#000000"/><text fill="#000000" font-family="sans-serif" font-size="14" lengthAdjust="spacing" textLength="147" x="2354.35" y="702.2285">AdminFeedbackScreen</text><line style="stroke:#181818;stroke-width:0.5;" x1="2306" x2="2520" y1="712.5" y2="712.5"/><text fill="#000000" font-family="sans-serif" font-size="14" lengthAdjust="spacing" textLength="174" x="2311" y="731.0332">feedbacks: List&lt;Feedback&gt;</text><text fill="#000000" font-family="sans-serif" font-size="14" lengthAdjust="spacing" textLength="10" x="2311" y="748.6426">--</text><line style="stroke:#181818;stroke-width:0.5;" x1="2306" x2="2520" y1="755.7188" y2="755.7188"/><ellipse cx="2316" cy="770.0234" fill="#84BE84" rx="3" ry="3" style="stroke:#038048;stroke-width:1.0;"/><text fill="#000000" font-family="sans-serif" font-size="14" lengthAdjust="spacing" textLength="111" x="2325" y="774.252">fetchFeedbacks()</text><ellipse cx="2316" cy="787.6328" fill="#84BE84" rx="3" ry="3" style="stroke:#038048;stroke-width:1.0;"/><text fill="#000000" font-family="sans-serif" font-size="14" lengthAdjust="spacing" textLength="190" x="2325" y="791.8613">navigateToAdminDashboard()</text></g><!--class UserNotificationScreen--><g id="elem_UserNotificationScreen"><rect codeLine="186" fill="#F1F1F1" height="171.2656" id="UserNotificationScreen" rx="2.5" ry="2.5" style="stroke:#181818;stroke-width:0.5;" width="322" x="15" y="955.5"/><ellipse cx="100.25" cy="971.5" fill="#ADD1B2" rx="11" ry="11" style="stroke:#181818;stroke-width:1.0;"/><path d="M103.0156,967.375 Q103.1719,967.1563 103.3594,967.0469 Q103.5469,966.9375 103.7656,966.9375 Q104.1406,966.9375 104.375,967.2031 Q104.6094,967.4531 104.6094,968.0625 L104.6094,969.5156 Q104.6094,970.125 104.375,970.3906 Q104.1406,970.6563 103.7656,970.6563 Q103.4219,970.6563 103.2188,970.4531 Q103.0156,970.2656 102.9063,969.75 Q102.8594,969.3906 102.6719,969.2031 Q102.3438,968.8281 101.7344,968.6094 Q101.125,968.3906 100.5,968.3906 Q99.7344,968.3906 99.0938,968.7188 Q98.4688,969.0469 97.9688,969.7969 Q97.4844,970.5469 97.4844,971.5781 L97.4844,972.6719 Q97.4844,973.9063 98.375,974.7344 Q99.2656,975.5469 100.8594,975.5469 Q101.7969,975.5469 102.4531,975.2969 Q102.8438,975.1406 103.2656,974.7031 Q103.5313,974.4375 103.6719,974.3594 Q103.8281,974.2813 104.0313,974.2813 Q104.3594,974.2813 104.6094,974.5469 Q104.875,974.7969 104.875,975.1406 Q104.875,975.4844 104.5313,975.8906 Q104.0313,976.4688 103.2344,976.7969 Q102.1563,977.25 100.8594,977.25 Q99.3438,977.25 98.1406,976.625 Q97.1563,976.125 96.4688,975.0625 Q95.7813,973.9844 95.7813,972.7031 L95.7813,971.5469 Q95.7813,970.2188 96.3906,969.0781 Q97.0156,967.9219 98.1094,967.3125 Q99.2031,966.6875 100.4375,966.6875 Q101.1719,966.6875 101.8125,966.8594 Q102.4688,967.0156 103.0156,967.375 Z " fill="#000000"/><text fill="#000000" font-family="sans-serif" font-size="14" lengthAdjust="spacing" textLength="143" x="120.75" y="977.2285">UserNotificationScreen</text><line style="stroke:#181818;stroke-width:0.5;" x1="16" x2="336" y1="987.5" y2="987.5"/><text fill="#000000" font-family="sans-serif" font-size="14" lengthAdjust="spacing" textLength="190" x="21" y="1006.0332">notifications: List&lt;Notification&gt;</text><text fill="#000000" font-family="sans-serif" font-size="14" lengthAdjust="spacing" textLength="10" x="21" y="1023.6426">--</text><line style="stroke:#181818;stroke-width:0.5;" x1="16" x2="336" y1="1030.7188" y2="1030.7188"/><ellipse cx="26" cy="1045.0234" fill="#84BE84" rx="3" ry="3" style="stroke:#038048;stroke-width:1.0;"/><text fill="#000000" font-family="sans-serif" font-size="14" lengthAdjust="spacing" textLength="117" x="35" y="1049.252">fetchNotifications()</text><ellipse cx="26" cy="1062.6328" fill="#84BE84" rx="3" ry="3" style="stroke:#038048;stroke-width:1.0;"/><text fill="#000000" font-family="sans-serif" font-size="14" lengthAdjust="spacing" textLength="284" x="35" y="1066.8613">markNotificationAsRead(notificationId: String)</text><ellipse cx="26" cy="1080.2422" fill="#84BE84" rx="3" ry="3" style="stroke:#038048;stroke-width:1.0;"/><text fill="#000000" font-family="sans-serif" font-size="14" lengthAdjust="spacing" textLength="296" x="35" y="1084.4707">execurteNotificationAction(notificationId: String)</text><ellipse cx="26" cy="1097.8516" fill="#84BE84" rx="3" ry="3" style="stroke:#038048;stroke-width:1.0;"/><text fill="#000000" font-family="sans-serif" font-size="14" lengthAdjust="spacing" textLength="182" x="35" y="1102.0801">markAllNotificationsAsRead()</text><ellipse cx="26" cy="1115.4609" fill="#84BE84" rx="3" ry="3" style="stroke:#038048;stroke-width:1.0;"/><text fill="#000000" font-family="sans-serif" font-size="14" lengthAdjust="spacing" textLength="180" x="35" y="1119.6895">navigateToUserDashboard()</text></g><!--class Notification--><g id="elem_Notification"><rect codeLine="196" fill="#F1F1F1" height="118.4375" id="Notification" rx="2.5" ry="2.5" style="stroke:#181818;stroke-width:0.5;" width="145" x="372.5" y="982"/><ellipse cx="407.3" cy="998" fill="#ADD1B2" rx="11" ry="11" style="stroke:#181818;stroke-width:1.0;"/><path d="M410.0656,993.875 Q410.2219,993.6563 410.4094,993.5469 Q410.5969,993.4375 410.8156,993.4375 Q411.1906,993.4375 411.425,993.7031 Q411.6594,993.9531 411.6594,994.5625 L411.6594,996.0156 Q411.6594,996.625 411.425,996.8906 Q411.1906,997.1563 410.8156,997.1563 Q410.4719,997.1563 410.2688,996.9531 Q410.0656,996.7656 409.9563,996.25 Q409.9094,995.8906 409.7219,995.7031 Q409.3938,995.3281 408.7844,995.1094 Q408.175,994.8906 407.55,994.8906 Q406.7844,994.8906 406.1438,995.2188 Q405.5188,995.5469 405.0188,996.2969 Q404.5344,997.0469 404.5344,998.0781 L404.5344,999.1719 Q404.5344,1000.4063 405.425,1001.2344 Q406.3156,1002.0469 407.9094,1002.0469 Q408.8469,1002.0469 409.5031,1001.7969 Q409.8938,1001.6406 410.3156,1001.2031 Q410.5813,1000.9375 410.7219,1000.8594 Q410.8781,1000.7813 411.0813,1000.7813 Q411.4094,1000.7813 411.6594,1001.0469 Q411.925,1001.2969 411.925,1001.6406 Q411.925,1001.9844 411.5813,1002.3906 Q411.0813,1002.9688 410.2844,1003.2969 Q409.2063,1003.75 407.9094,1003.75 Q406.3938,1003.75 405.1906,1003.125 Q404.2063,1002.625 403.5188,1001.5625 Q402.8313,1000.4844 402.8313,999.2031 L402.8313,998.0469 Q402.8313,996.7188 403.4406,995.5781 Q404.0656,994.4219 405.1594,993.8125 Q406.2531,993.1875 407.4875,993.1875 Q408.2219,993.1875 408.8625,993.3594 Q409.5188,993.5156 410.0656,993.875 Z " fill="#000000"/><text fill="#000000" font-family="sans-serif" font-size="14" lengthAdjust="spacing" textLength="69" x="425.7" y="1003.7285">Notification</text><line style="stroke:#181818;stroke-width:0.5;" x1="373.5" x2="516.5" y1="1014" y2="1014"/><text fill="#000000" font-family="sans-serif" font-size="14" lengthAdjust="spacing" textLength="56" x="378.5" y="1032.5332">id: String</text><text fill="#000000" font-family="sans-serif" font-size="14" lengthAdjust="spacing" textLength="102" x="378.5" y="1050.1426">message: String</text><text fill="#000000" font-family="sans-serif" font-size="14" lengthAdjust="spacing" textLength="133" x="378.5" y="1067.752">timestamp: DateTime</text><text fill="#000000" font-family="sans-serif" font-size="14" lengthAdjust="spacing" textLength="89" x="378.5" y="1085.3613">read: Boolean</text><line style="stroke:#181818;stroke-width:0.5;" x1="373.5" x2="516.5" y1="1092.4375" y2="1092.4375"/></g><!--class AdminNotificationScreen--><g id="elem_AdminNotificationScreen"><rect codeLine="203" fill="#F1F1F1" height="171.2656" id="AdminNotificationScreen" rx="2.5" ry="2.5" style="stroke:#181818;stroke-width:0.5;" width="672" x="553" y="955.5"/><ellipse cx="808.25" cy="971.5" fill="#ADD1B2" rx="11" ry="11" style="stroke:#181818;stroke-width:1.0;"/><path d="M811.0156,967.375 Q811.1719,967.1563 811.3594,967.0469 Q811.5469,966.9375 811.7656,966.9375 Q812.1406,966.9375 812.375,967.2031 Q812.6094,967.4531 812.6094,968.0625 L812.6094,969.5156 Q812.6094,970.125 812.375,970.3906 Q812.1406,970.6563 811.7656,970.6563 Q811.4219,970.6563 811.2188,970.4531 Q811.0156,970.2656 810.9063,969.75 Q810.8594,969.3906 810.6719,969.2031 Q810.3438,968.8281 809.7344,968.6094 Q809.125,968.3906 808.5,968.3906 Q807.7344,968.3906 807.0938,968.7188 Q806.4688,969.0469 805.9688,969.7969 Q805.4844,970.5469 805.4844,971.5781 L805.4844,972.6719 Q805.4844,973.9063 806.375,974.7344 Q807.2656,975.5469 808.8594,975.5469 Q809.7969,975.5469 810.4531,975.2969 Q810.8438,975.1406 811.2656,974.7031 Q811.5313,974.4375 811.6719,974.3594 Q811.8281,974.2813 812.0313,974.2813 Q812.3594,974.2813 812.6094,974.5469 Q812.875,974.7969 812.875,975.1406 Q812.875,975.4844 812.5313,975.8906 Q812.0313,976.4688 811.2344,976.7969 Q810.1563,977.25 808.8594,977.25 Q807.3438,977.25 806.1406,976.625 Q805.1563,976.125 804.4688,975.0625 Q803.7813,973.9844 803.7813,972.7031 L803.7813,971.5469 Q803.7813,970.2188 804.3906,969.0781 Q805.0156,967.9219 806.1094,967.3125 Q807.2031,966.6875 808.4375,966.6875 Q809.1719,966.6875 809.8125,966.8594 Q810.4688,967.0156 811.0156,967.375 Z " fill="#000000"/><text fill="#000000" font-family="sans-serif" font-size="14" lengthAdjust="spacing" textLength="153" x="828.75" y="977.2285">AdminNotificationScreen</text><line style="stroke:#181818;stroke-width:0.5;" x1="554" x2="1224" y1="987.5" y2="987.5"/><text fill="#000000" font-family="sans-serif" font-size="14" lengthAdjust="spacing" textLength="206" x="559" y="1006.0332">potentialRecipients: List&lt;UserId&gt;</text><text fill="#000000" font-family="sans-serif" font-size="14" lengthAdjust="spacing" textLength="190" x="559" y="1023.6426">notifications: List&lt;Notification&gt;</text><text fill="#000000" font-family="sans-serif" font-size="14" lengthAdjust="spacing" textLength="10" x="559" y="1041.252">--</text><line style="stroke:#181818;stroke-width:0.5;" x1="554" x2="1224" y1="1048.3281" y2="1048.3281"/><ellipse cx="564" cy="1062.6328" fill="#84BE84" rx="3" ry="3" style="stroke:#038048;stroke-width:1.0;"/><text fill="#000000" font-family="sans-serif" font-size="14" lengthAdjust="spacing" textLength="117" x="573" y="1066.8613">fetchNotifications()</text><ellipse cx="564" cy="1080.2422" fill="#84BE84" rx="3" ry="3" style="stroke:#038048;stroke-width:1.0;"/><text fill="#000000" font-family="sans-serif" font-size="14" lengthAdjust="spacing" textLength="426" x="573" y="1084.4707">createNotification(message: String, targetUsers: List&lt;UserId&gt; = null)</text><ellipse cx="564" cy="1097.8516" fill="#84BE84" rx="3" ry="3" style="stroke:#038048;stroke-width:1.0;"/><text fill="#000000" font-family="sans-serif" font-size="14" lengthAdjust="spacing" textLength="244" x="573" y="1102.0801">cancelNotification(notificationId: String)</text><ellipse cx="564" cy="1115.4609" fill="#84BE84" rx="3" ry="3" style="stroke:#038048;stroke-width:1.0;"/><text fill="#000000" font-family="sans-serif" font-size="14" lengthAdjust="spacing" textLength="646" x="573" y="1119.6895">scheduleNotification(message: String, targetUsers: List&lt;UserId&gt; = null, scheduleTime: DateTime = null)</text></g><!--class AdminReportScreen--><g id="elem_AdminReportScreen"><rect codeLine="213" fill="#F1F1F1" height="171.2656" id="AdminReportScreen" rx="2.5" ry="2.5" style="stroke:#181818;stroke-width:0.5;" width="468" x="1260" y="955.5"/><ellipse cx="1426.25" cy="971.5" fill="#ADD1B2" rx="11" ry="11" style="stroke:#181818;stroke-width:1.0;"/><path d="M1429.0156,967.375 Q1429.1719,967.1563 1429.3594,967.0469 Q1429.5469,966.9375 1429.7656,966.9375 Q1430.1406,966.9375 1430.375,967.2031 Q1430.6094,967.4531 1430.6094,968.0625 L1430.6094,969.5156 Q1430.6094,970.125 1430.375,970.3906 Q1430.1406,970.6563 1429.7656,970.6563 Q1429.4219,970.6563 1429.2188,970.4531 Q1429.0156,970.2656 1428.9063,969.75 Q1428.8594,969.3906 1428.6719,969.2031 Q1428.3438,968.8281 1427.7344,968.6094 Q1427.125,968.3906 1426.5,968.3906 Q1425.7344,968.3906 1425.0938,968.7188 Q1424.4688,969.0469 1423.9688,969.7969 Q1423.4844,970.5469 1423.4844,971.5781 L1423.4844,972.6719 Q1423.4844,973.9063 1424.375,974.7344 Q1425.2656,975.5469 1426.8594,975.5469 Q1427.7969,975.5469 1428.4531,975.2969 Q1428.8438,975.1406 1429.2656,974.7031 Q1429.5313,974.4375 1429.6719,974.3594 Q1429.8281,974.2813 1430.0313,974.2813 Q1430.3594,974.2813 1430.6094,974.5469 Q1430.875,974.7969 1430.875,975.1406 Q1430.875,975.4844 1430.5313,975.8906 Q1430.0313,976.4688 1429.2344,976.7969 Q1428.1563,977.25 1426.8594,977.25 Q1425.3438,977.25 1424.1406,976.625 Q1423.1563,976.125 1422.4688,975.0625 Q1421.7813,973.9844 1421.7813,972.7031 L1421.7813,971.5469 Q1421.7813,970.2188 1422.3906,969.0781 Q1423.0156,967.9219 1424.1094,967.3125 Q1425.2031,966.6875 1426.4375,966.6875 Q1427.1719,966.6875 1427.8125,966.8594 Q1428.4688,967.0156 1429.0156,967.375 Z " fill="#000000"/><text fill="#000000" font-family="sans-serif" font-size="14" lengthAdjust="spacing" textLength="127" x="1446.75" y="977.2285">AdminReportScreen</text><line style="stroke:#181818;stroke-width:0.5;" x1="1261" x2="1727" y1="987.5" y2="987.5"/><text fill="#000000" font-family="sans-serif" font-size="14" lengthAdjust="spacing" textLength="134" x="1266" y="1006.0332">reports: List&lt;Report&gt;</text><text fill="#000000" font-family="sans-serif" font-size="14" lengthAdjust="spacing" textLength="10" x="1266" y="1023.6426">--</text><line style="stroke:#181818;stroke-width:0.5;" x1="1261" x2="1727" y1="1030.7188" y2="1030.7188"/><ellipse cx="1271" cy="1045.0234" fill="#84BE84" rx="3" ry="3" style="stroke:#038048;stroke-width:1.0;"/><text fill="#000000" font-family="sans-serif" font-size="14" lengthAdjust="spacing" textLength="91" x="1280" y="1049.252">fetchReports()</text><ellipse cx="1271" cy="1062.6328" fill="#84BE84" rx="3" ry="3" style="stroke:#038048;stroke-width:1.0;"/><text fill="#000000" font-family="sans-serif" font-size="14" lengthAdjust="spacing" textLength="442" x="1280" y="1066.8613">generateReport(reportType: String, parameters: Map&lt;String, Object&gt;)</text><ellipse cx="1271" cy="1080.2422" fill="#84BE84" rx="3" ry="3" style="stroke:#038048;stroke-width:1.0;"/><text fill="#000000" font-family="sans-serif" font-size="14" lengthAdjust="spacing" textLength="300" x="1280" y="1084.4707">downloadReport(reportId: String, format: String)</text><ellipse cx="1271" cy="1097.8516" fill="#84BE84" rx="3" ry="3" style="stroke:#038048;stroke-width:1.0;"/><text fill="#000000" font-family="sans-serif" font-size="14" lengthAdjust="spacing" textLength="225" x="1280" y="1102.0801">fetchReportStatuss(reportId: String)</text><ellipse cx="1271" cy="1115.4609" fill="#84BE84" rx="3" ry="3" style="stroke:#038048;stroke-width:1.0;"/><text fill="#000000" font-family="sans-serif" font-size="14" lengthAdjust="spacing" textLength="190" x="1280" y="1119.6895">navigateToAdminDashboard()</text></g><!--class AdminFinancialManagementScreen--><g id="elem_AdminFinancialManagementScreen"><rect codeLine="223" fill="#F1F1F1" height="224.0938" id="AdminFinancialManagementScreen" rx="2.5" ry="2.5" style="stroke:#181818;stroke-width:0.5;" width="391" x="1763.5" y="929"/><ellipse cx="1843.25" cy="945" fill="#ADD1B2" rx="11" ry="11" style="stroke:#181818;stroke-width:1.0;"/><path d="M1846.0156,940.875 Q1846.1719,940.6563 1846.3594,940.5469 Q1846.5469,940.4375 1846.7656,940.4375 Q1847.1406,940.4375 1847.375,940.7031 Q1847.6094,940.9531 1847.6094,941.5625 L1847.6094,943.0156 Q1847.6094,943.625 1847.375,943.8906 Q1847.1406,944.1563 1846.7656,944.1563 Q1846.4219,944.1563 1846.2188,943.9531 Q1846.0156,943.7656 1845.9063,943.25 Q1845.8594,942.8906 1845.6719,942.7031 Q1845.3438,942.3281 1844.7344,942.1094 Q1844.125,941.8906 1843.5,941.8906 Q1842.7344,941.8906 1842.0938,942.2188 Q1841.4688,942.5469 1840.9688,943.2969 Q1840.4844,944.0469 1840.4844,945.0781 L1840.4844,946.1719 Q1840.4844,947.4063 1841.375,948.2344 Q1842.2656,949.0469 1843.8594,949.0469 Q1844.7969,949.0469 1845.4531,948.7969 Q1845.8438,948.6406 1846.2656,948.2031 Q1846.5313,947.9375 1846.6719,947.8594 Q1846.8281,947.7813 1847.0313,947.7813 Q1847.3594,947.7813 1847.6094,948.0469 Q1847.875,948.2969 1847.875,948.6406 Q1847.875,948.9844 1847.5313,949.3906 Q1847.0313,949.9688 1846.2344,950.2969 Q1845.1563,950.75 1843.8594,950.75 Q1842.3438,950.75 1841.1406,950.125 Q1840.1563,949.625 1839.4688,948.5625 Q1838.7813,947.4844 1838.7813,946.2031 L1838.7813,945.0469 Q1838.7813,943.7188 1839.3906,942.5781 Q1840.0156,941.4219 1841.1094,940.8125 Q1842.2031,940.1875 1843.4375,940.1875 Q1844.1719,940.1875 1844.8125,940.3594 Q1845.4688,940.5156 1846.0156,940.875 Z " fill="#000000"/><text fill="#000000" font-family="sans-serif" font-size="14" lengthAdjust="spacing" textLength="223" x="1863.75" y="950.7285">AdminFinancialManagementScreen</text><line style="stroke:#181818;stroke-width:0.5;" x1="1764.5" x2="2153.5" y1="961" y2="961"/><text fill="#000000" font-family="sans-serif" font-size="14" lengthAdjust="spacing" textLength="167" x="1769.5" y="979.5332">users: List&lt;FinancialUser&gt;</text><text fill="#000000" font-family="sans-serif" font-size="14" lengthAdjust="spacing" textLength="258" x="1769.5" y="997.1426">userFinancialDetails: FinancialUserDetail</text><text fill="#000000" font-family="sans-serif" font-size="14" lengthAdjust="spacing" textLength="10" x="1769.5" y="1014.752">--</text><line style="stroke:#181818;stroke-width:0.5;" x1="1764.5" x2="2153.5" y1="1021.8281" y2="1021.8281"/><ellipse cx="1774.5" cy="1036.1328" fill="#84BE84" rx="3" ry="3" style="stroke:#038048;stroke-width:1.0;"/><text fill="#000000" font-family="sans-serif" font-size="14" lengthAdjust="spacing" textLength="77" x="1783.5" y="1040.3613">fetchUsers()</text><ellipse cx="1774.5" cy="1053.7422" fill="#84BE84" rx="3" ry="3" style="stroke:#038048;stroke-width:1.0;"/><text fill="#000000" font-family="sans-serif" font-size="14" lengthAdjust="spacing" textLength="286" x="1783.5" y="1057.9707">searchUser(searchQuery: SearchExpression)</text><ellipse cx="1774.5" cy="1071.3516" fill="#84BE84" rx="3" ry="3" style="stroke:#038048;stroke-width:1.0;"/><text fill="#000000" font-family="sans-serif" font-size="14" lengthAdjust="spacing" textLength="247" x="1783.5" y="1075.5801">fetchUserFinancialDetail(userId: String)</text><ellipse cx="1774.5" cy="1088.9609" fill="#84BE84" rx="3" ry="3" style="stroke:#038048;stroke-width:1.0;"/><text fill="#000000" font-family="sans-serif" font-size="14" lengthAdjust="spacing" textLength="365" x="1783.5" y="1093.1895">loadCreditForUser(userId: String, amount: Decimal(19, 4))</text><ellipse cx="1774.5" cy="1106.5703" fill="#84BE84" rx="3" ry="3" style="stroke:#038048;stroke-width:1.0;"/><text fill="#000000" font-family="sans-serif" font-size="14" lengthAdjust="spacing" textLength="246" x="1783.5" y="1110.7988">bulkLoadCreditsForUsers(csvFile: File)</text><ellipse cx="1774.5" cy="1124.1797" fill="#84BE84" rx="3" ry="3" style="stroke:#038048;stroke-width:1.0;"/><text fill="#000000" font-family="sans-serif" font-size="14" lengthAdjust="spacing" textLength="163" x="1783.5" y="1128.4082">displayLoadCreditErrors()</text><ellipse cx="1774.5" cy="1141.7891" fill="#84BE84" rx="3" ry="3" style="stroke:#038048;stroke-width:1.0;"/><text fill="#000000" font-family="sans-serif" font-size="14" lengthAdjust="spacing" textLength="190" x="1783.5" y="1146.0176">navigateToAdminDashboard()</text></g><!--class AdminAuditScreen--><g id="elem_AdminAuditScreen"><rect codeLine="236" fill="#F1F1F1" height="153.6563" id="AdminAuditScreen" rx="2.5" ry="2.5" style="stroke:#181818;stroke-width:0.5;" width="336" x="2190" y="964"/><ellipse cx="2295.75" cy="980" fill="#ADD1B2" rx="11" ry="11" style="stroke:#181818;stroke-width:1.0;"/><path d="M2298.5156,975.875 Q2298.6719,975.6563 2298.8594,975.5469 Q2299.0469,975.4375 2299.2656,975.4375 Q2299.6406,975.4375 2299.875,975.7031 Q2300.1094,975.9531 2300.1094,976.5625 L2300.1094,978.0156 Q2300.1094,978.625 2299.875,978.8906 Q2299.6406,979.1563 2299.2656,979.1563 Q2298.9219,979.1563 2298.7188,978.9531 Q2298.5156,978.7656 2298.4063,978.25 Q2298.3594,977.8906 2298.1719,977.7031 Q2297.8438,977.3281 2297.2344,977.1094 Q2296.625,976.8906 2296,976.8906 Q2295.2344,976.8906 2294.5938,977.2188 Q2293.9688,977.5469 2293.4688,978.2969 Q2292.9844,979.0469 2292.9844,980.0781 L2292.9844,981.1719 Q2292.9844,982.4063 2293.875,983.2344 Q2294.7656,984.0469 2296.3594,984.0469 Q2297.2969,984.0469 2297.9531,983.7969 Q2298.3438,983.6406 2298.7656,983.2031 Q2299.0313,982.9375 2299.1719,982.8594 Q2299.3281,982.7813 2299.5313,982.7813 Q2299.8594,982.7813 2300.1094,983.0469 Q2300.375,983.2969 2300.375,983.6406 Q2300.375,983.9844 2300.0313,984.3906 Q2299.5313,984.9688 2298.7344,985.2969 Q2297.6563,985.75 2296.3594,985.75 Q2294.8438,985.75 2293.6406,985.125 Q2292.6563,984.625 2291.9688,983.5625 Q2291.2813,982.4844 2291.2813,981.2031 L2291.2813,980.0469 Q2291.2813,978.7188 2291.8906,977.5781 Q2292.5156,976.4219 2293.6094,975.8125 Q2294.7031,975.1875 2295.9375,975.1875 Q2296.6719,975.1875 2297.3125,975.3594 Q2297.9688,975.5156 2298.5156,975.875 Z " fill="#000000"/><text fill="#000000" font-family="sans-serif" font-size="14" lengthAdjust="spacing" textLength="116" x="2316.25" y="985.7285">AdminAuditScreen</text><line style="stroke:#181818;stroke-width:0.5;" x1="2191" x2="2525" y1="996" y2="996"/><text fill="#000000" font-family="sans-serif" font-size="14" lengthAdjust="spacing" textLength="164" x="2196" y="1014.5332">auditLogs: List&lt;AuditLog&gt;</text><text fill="#000000" font-family="sans-serif" font-size="14" lengthAdjust="spacing" textLength="10" x="2196" y="1032.1426">--</text><line style="stroke:#181818;stroke-width:0.5;" x1="2191" x2="2525" y1="1039.2188" y2="1039.2188"/><ellipse cx="2201" cy="1053.5234" fill="#84BE84" rx="3" ry="3" style="stroke:#038048;stroke-width:1.0;"/><text fill="#000000" font-family="sans-serif" font-size="14" lengthAdjust="spacing" textLength="104" x="2210" y="1057.752">fetchAuditLogs()</text><ellipse cx="2201" cy="1071.1328" fill="#84BE84" rx="3" ry="3" style="stroke:#038048;stroke-width:1.0;"/><text fill="#000000" font-family="sans-serif" font-size="14" lengthAdjust="spacing" textLength="310" x="2210" y="1075.3613">filterAuditLogs(filterCriteria: Map&lt;String, Object&gt;)</text><ellipse cx="2201" cy="1088.7422" fill="#84BE84" rx="3" ry="3" style="stroke:#038048;stroke-width:1.0;"/><text fill="#000000" font-family="sans-serif" font-size="14" lengthAdjust="spacing" textLength="197" x="2210" y="1092.9707">exportAuditLogs(format: String)</text><ellipse cx="2201" cy="1106.3516" fill="#84BE84" rx="3" ry="3" style="stroke:#038048;stroke-width:1.0;"/><text fill="#000000" font-family="sans-serif" font-size="14" lengthAdjust="spacing" textLength="190" x="2210" y="1110.5801">navigateToAdminDashboard()</text></g><!--class AdminManagementScreen--><g id="elem_AdminManagementScreen"><rect codeLine="245" fill="#F1F1F1" height="329.75" id="AdminManagementScreen" rx="2.5" ry="2.5" style="stroke:#181818;stroke-width:0.5;" width="284" x="34" y="1213"/><ellipse cx="88.75" cy="1229" fill="#ADD1B2" rx="11" ry="11" style="stroke:#181818;stroke-width:1.0;"/><path d="M91.5156,1224.875 Q91.6719,1224.6563 91.8594,1224.5469 Q92.0469,1224.4375 92.2656,1224.4375 Q92.6406,1224.4375 92.875,1224.7031 Q93.1094,1224.9531 93.1094,1225.5625 L93.1094,1227.0156 Q93.1094,1227.625 92.875,1227.8906 Q92.6406,1228.1563 92.2656,1228.1563 Q91.9219,1228.1563 91.7188,1227.9531 Q91.5156,1227.7656 91.4063,1227.25 Q91.3594,1226.8906 91.1719,1226.7031 Q90.8438,1226.3281 90.2344,1226.1094 Q89.625,1225.8906 89,1225.8906 Q88.2344,1225.8906 87.5938,1226.2188 Q86.9688,1226.5469 86.4688,1227.2969 Q85.9844,1228.0469 85.9844,1229.0781 L85.9844,1230.1719 Q85.9844,1231.4063 86.875,1232.2344 Q87.7656,1233.0469 89.3594,1233.0469 Q90.2969,1233.0469 90.9531,1232.7969 Q91.3438,1232.6406 91.7656,1232.2031 Q92.0313,1231.9375 92.1719,1231.8594 Q92.3281,1231.7813 92.5313,1231.7813 Q92.8594,1231.7813 93.1094,1232.0469 Q93.375,1232.2969 93.375,1232.6406 Q93.375,1232.9844 93.0313,1233.3906 Q92.5313,1233.9688 91.7344,1234.2969 Q90.6563,1234.75 89.3594,1234.75 Q87.8438,1234.75 86.6406,1234.125 Q85.6563,1233.625 84.9688,1232.5625 Q84.2813,1231.4844 84.2813,1230.2031 L84.2813,1229.0469 Q84.2813,1227.7188 84.8906,1226.5781 Q85.5156,1225.4219 86.6094,1224.8125 Q87.7031,1224.1875 88.9375,1224.1875 Q89.6719,1224.1875 90.3125,1224.3594 Q90.9688,1224.5156 91.5156,1224.875 Z " fill="#000000"/><text fill="#000000" font-family="sans-serif" font-size="14" lengthAdjust="spacing" textLength="166" x="109.25" y="1234.7285">AdminManagementScreen</text><line style="stroke:#181818;stroke-width:0.5;" x1="35" x2="317" y1="1245" y2="1245"/><text fill="#000000" font-family="sans-serif" font-size="14" lengthAdjust="spacing" textLength="139" x="40" y="1263.5332">allergies: List&lt;Alergy&gt;</text><text fill="#000000" font-family="sans-serif" font-size="14" lengthAdjust="spacing" textLength="162" x="40" y="1281.1426">campuses: List&lt;Campus&gt;</text><text fill="#000000" font-family="sans-serif" font-size="14" lengthAdjust="spacing" textLength="182" x="40" y="1298.752">residences: List&lt;Residence&gt;</text><text fill="#000000" font-family="sans-serif" font-size="14" lengthAdjust="spacing" textLength="10" x="40" y="1316.3613">--</text><line style="stroke:#181818;stroke-width:0.5;" x1="35" x2="317" y1="1323.4375" y2="1323.4375"/><ellipse cx="45" cy="1337.7422" fill="#84BE84" rx="3" ry="3" style="stroke:#038048;stroke-width:1.0;"/><text fill="#000000" font-family="sans-serif" font-size="14" lengthAdjust="spacing" textLength="95" x="54" y="1341.9707">fetchAllergies()</text><ellipse cx="45" cy="1355.3516" fill="#84BE84" rx="3" ry="3" style="stroke:#038048;stroke-width:1.0;"/><text fill="#000000" font-family="sans-serif" font-size="14" lengthAdjust="spacing" textLength="186" x="54" y="1359.5801">createAllergy(allergy: Allergy)</text><ellipse cx="45" cy="1372.9609" fill="#84BE84" rx="3" ry="3" style="stroke:#038048;stroke-width:1.0;"/><text fill="#000000" font-family="sans-serif" font-size="14" lengthAdjust="spacing" textLength="190" x="54" y="1377.1895">updateAllergy(allergy: Allergy)</text><ellipse cx="45" cy="1390.5703" fill="#84BE84" rx="3" ry="3" style="stroke:#038048;stroke-width:1.0;"/><text fill="#000000" font-family="sans-serif" font-size="14" lengthAdjust="spacing" textLength="198" x="54" y="1394.7988">removeAllergy(allergyId: String)</text><ellipse cx="45" cy="1408.1797" fill="#84BE84" rx="3" ry="3" style="stroke:#038048;stroke-width:1.0;"/><text fill="#000000" font-family="sans-serif" font-size="14" lengthAdjust="spacing" textLength="108" x="54" y="1412.4082">fetchCampuses()</text><ellipse cx="45" cy="1425.7891" fill="#84BE84" rx="3" ry="3" style="stroke:#038048;stroke-width:1.0;"/><text fill="#000000" font-family="sans-serif" font-size="14" lengthAdjust="spacing" textLength="211" x="54" y="1430.0176">createCampus(campus: Campus)</text><ellipse cx="45" cy="1443.3984" fill="#84BE84" rx="3" ry="3" style="stroke:#038048;stroke-width:1.0;"/><text fill="#000000" font-family="sans-serif" font-size="14" lengthAdjust="spacing" textLength="215" x="54" y="1447.627">updateCampus(campus: Campus)</text><ellipse cx="45" cy="1461.0078" fill="#84BE84" rx="3" ry="3" style="stroke:#038048;stroke-width:1.0;"/><text fill="#000000" font-family="sans-serif" font-size="14" lengthAdjust="spacing" textLength="214" x="54" y="1465.2363">removeCampus(campusId: String)</text><ellipse cx="45" cy="1478.6172" fill="#84BE84" rx="3" ry="3" style="stroke:#038048;stroke-width:1.0;"/><text fill="#000000" font-family="sans-serif" font-size="14" lengthAdjust="spacing" textLength="115" x="54" y="1482.8457">fetchResidences()</text><ellipse cx="45" cy="1496.2266" fill="#84BE84" rx="3" ry="3" style="stroke:#038048;stroke-width:1.0;"/><text fill="#000000" font-family="sans-serif" font-size="14" lengthAdjust="spacing" textLength="254" x="54" y="1500.4551">createResidence(residence: Residence)</text><ellipse cx="45" cy="1513.8359" fill="#84BE84" rx="3" ry="3" style="stroke:#038048;stroke-width:1.0;"/><text fill="#000000" font-family="sans-serif" font-size="14" lengthAdjust="spacing" textLength="258" x="54" y="1518.0645">updateResidence(residence: Residence)</text><ellipse cx="45" cy="1531.4453" fill="#84BE84" rx="3" ry="3" style="stroke:#038048;stroke-width:1.0;"/><text fill="#000000" font-family="sans-serif" font-size="14" lengthAdjust="spacing" textLength="242" x="54" y="1535.6738">removeResidence(residenceId: String)</text></g><!--class Database--><g id="elem_Database"><rect codeLine="264" fill="#F1F1F1" height="48" id="Database" rx="2.5" ry="2.5" style="stroke:#181818;stroke-width:0.5;" width="93" x="353.5" y="1354"/><ellipse cx="368.5" cy="1370" fill="#ADD1B2" rx="11" ry="11" style="stroke:#181818;stroke-width:1.0;"/><path d="M371.2656,1365.875 Q371.4219,1365.6563 371.6094,1365.5469 Q371.7969,1365.4375 372.0156,1365.4375 Q372.3906,1365.4375 372.625,1365.7031 Q372.8594,1365.9531 372.8594,1366.5625 L372.8594,1368.0156 Q372.8594,1368.625 372.625,1368.8906 Q372.3906,1369.1563 372.0156,1369.1563 Q371.6719,1369.1563 371.4688,1368.9531 Q371.2656,1368.7656 371.1563,1368.25 Q371.1094,1367.8906 370.9219,1367.7031 Q370.5938,1367.3281 369.9844,1367.1094 Q369.375,1366.8906 368.75,1366.8906 Q367.9844,1366.8906 367.3438,1367.2188 Q366.7188,1367.5469 366.2188,1368.2969 Q365.7344,1369.0469 365.7344,1370.0781 L365.7344,1371.1719 Q365.7344,1372.4063 366.625,1373.2344 Q367.5156,1374.0469 369.1094,1374.0469 Q370.0469,1374.0469 370.7031,1373.7969 Q371.0938,1373.6406 371.5156,1373.2031 Q371.7813,1372.9375 371.9219,1372.8594 Q372.0781,1372.7813 372.2813,1372.7813 Q372.6094,1372.7813 372.8594,1373.0469 Q373.125,1373.2969 373.125,1373.6406 Q373.125,1373.9844 372.7813,1374.3906 Q372.2813,1374.9688 371.4844,1375.2969 Q370.4063,1375.75 369.1094,1375.75 Q367.5938,1375.75 366.3906,1375.125 Q365.4063,1374.625 364.7188,1373.5625 Q364.0313,1372.4844 364.0313,1371.2031 L364.0313,1370.0469 Q364.0313,1368.7188 364.6406,1367.5781 Q365.2656,1366.4219 366.3594,1365.8125 Q367.4531,1365.1875 368.6875,1365.1875 Q369.4219,1365.1875 370.0625,1365.3594 Q370.7188,1365.5156 371.2656,1365.875 Z " fill="#000000"/><text fill="#000000" font-family="sans-serif" font-size="14" lengthAdjust="spacing" textLength="61" x="382.5" y="1375.7285">Database</text><line style="stroke:#181818;stroke-width:0.5;" x1="354.5" x2="445.5" y1="1386" y2="1386"/><line style="stroke:#181818;stroke-width:0.5;" x1="354.5" x2="445.5" y1="1394" y2="1394"/></g><!--SRC=[lLZTRzis47_FNw5YBmhc02ks05sm6N1S6J3W9ftj5jZJG4jdXuiaUYILD2Zsl-z4KZG_PCL9Y_KbrNtV_Ox7ezyKiAKr9DFRc_NoTh78bdzDRnUto-I7xEtiSfQTlJ42gspvUJxDEkxiv-noTccviybqyjuoitUpo-oTephzj9ol_xIwCzJ-oRApcxN7pAwpxEmiBuaGoOBjQBtAEK2TV3rBy1zKX9PNoKfoMkyKPO-2ZumN7l7Y8b5_Vqn4iwceL8RISqDx82KjY0HB47ViyRCcKbPdd3CkKcZ_T18S2ieXbslsIG1_JyJTXX5Uf35_KbIqZWLgya1tw7FDbh2ZGdBbIkU6GlzsASTSatbDAl1oFB4KEQktb5SV-tZ84F8cD8nnnCISLFj6U2GEWXPGvxuWAKlWEmeeky1CVjEiSIyiRhBVWiwXk4x7fCzZPwlkCRooDyYv9YLHQRw7d5QaJD_-Eaf-EK_IPRPQ9qAYvtChVAMDWKHqXCdQ1B85cTyvN1kXOXWlFl43rCrSGYLw6kcM5y3x61yvsz8IUZWha1BHw5F2oh56kaNnEzchYdWI6DGACqVyQ8vOVo1x0_KekTtyZUKE8LVvh0B5da0-a9hie2tJSUxHr9UmProAuTHjXgPG4U0nXYtLI6kc-UZByIZ2ZbxKxI5T7n13dTwHUWSYhU6nBuXE9rTYtKbFMLc4ftwKj2OYuf4P4HTn-03fd4qTgJzgJXXVd9NHrF0Sc7IDW_zpUFbdeer5zs45jOowfrDsQZ8-rYU73a4hMEAMbaOjsCaq- -9PcO8AiYaFGlC1EAExokQf3fYN6LD7pgIcsBr91ITJHwo8gR9mfKtRhDkHLphy-MkwJ-dtznrjXwU9kXkcEd3992ad5Mjg6KvsFUDmI3bDOvrrLaxiypsdyTMXE0M8dDDzUwd5NhfnvOzTGpnzt8RpNkDXoOC6Nm20QYI5mf5pyStTir9eX3qo2b2oqnFgGgdTC4ctDDSRnhCD5f-7n9q_BV9ULbLtE_Ssc79tJSGzo92VfDUSFQ99N75pKguaurYrv6AComx1VILvfFBE-2IbEU7QzNbVtU8reLsQ9cgQFSthBUELlsGv5-h1GThbqzPemGuL8aNHajTCPsFbhknX62N_DAIML3vT9VDQmWwSrRbY3z0ApJYh0WkXfxm4OceMN8LwHiGxdKy_yQgAgXe0UaZiUoBPTSyWX2TWyJeSNCYxIA8p_C8MVxODzQtMqNi2ze_w2OAwdIB1rrrpBIupW693ydilxQqX3hugEyrKv8o3BNYxJrNj18ocqf3MIwVjODWTMfrGBreTiszR7YwPErNzHwh3w69mXNlZS0KEiLI4txkSYLW2ALBNGumvV86yuH8ynLnDlc75rXkEIoyKu_45mBZg_Uj11KBWVF1eaY9LuegAMq9h7p_DYafG-PhXMapg0FsZ2EoPnCwZf5pYmh6d-7zt7PqNu- -DapxXtZqR93bA9E4xa9-2tHY3INvFwgOi_MtGipKCcyZle6ZARtG_idRQsXzGiD7vjTTlJA_gN3yxZNKjq5l3y7swWneukjFqLDjPF-sTwFU4uqufLV03Mrh17kkIaSApv6vAUWa8A-X4fLSi4Qc-P3heqKHh119xy8H7afLj8HbRjYMRw_0gyGGrzVb7bS1jGjDI_Ty_6k1uDQxKH_PbZyz0WJqJFTC3_qTUKcszf-qg8cUCzxouHWdfVLzq-fkcl5zO6y8O4Mak7cRgaJzpNlVuiDkNvEaWRtu9Up4yamQLFK18IrcmNGVAn7ptjd37T7xSe2Msvu6klwSStrwSai6kXIzjhpcglKrwScf76Yvyra_KNZnsVXkmhAdw7Fk_4HmEjY7q5wRp4in6iuQdEWhiFaFmLv_dfFJU4qZ5BQaYcPgSWa0qEUr-3T6VVXI38Ze4J-H80BPGOGYMaJe_m5YY7yjfiZge7batDDibEDh9XWWuE_iF]--></g></svg>