<?xml version="1.0" encoding="us-ascii" standalone="no"?><svg xmlns="http://www.w3.org/2000/svg" xmlns:xlink="http://www.w3.org/1999/xlink" contentStyleType="text/css" height="1496px" preserveAspectRatio="none" style="width:2393px;height:1496px;background:#FFFFFF;" version="1.1" viewBox="0 0 2393 1496" width="2393px" zoomAndPan="magnify"><defs/><g><!--class LoginScreen--><g id="elem_LoginScreen"><rect codeLine="7" fill="#F1F1F1" height="206.4844" id="LoginScreen" rx="2.5" ry="2.5" style="stroke:#181818;stroke-width:0.5;" width="228" x="229" y="60"/><ellipse cx="298.75" cy="76" fill="#ADD1B2" rx="11" ry="11" style="stroke:#181818;stroke-width:1.0;"/><path d="M301.5156,71.875 Q301.6719,71.6563 301.8594,71.5469 Q302.0469,71.4375 302.2656,71.4375 Q302.6406,71.4375 302.875,71.7031 Q303.1094,71.9531 303.1094,72.5625 L303.1094,74.0156 Q303.1094,74.625 302.875,74.8906 Q302.6406,75.1563 302.2656,75.1563 Q301.9219,75.1563 301.7188,74.9531 Q301.5156,74.7656 301.4063,74.25 Q301.3594,73.8906 301.1719,73.7031 Q300.8438,73.3281 300.2344,73.1094 Q299.625,72.8906 299,72.8906 Q298.2344,72.8906 297.5938,73.2188 Q296.9688,73.5469 296.4688,74.2969 Q295.9844,75.0469 295.9844,76.0781 L295.9844,77.1719 Q295.9844,78.4063 296.875,79.2344 Q297.7656,80.0469 299.3594,80.0469 Q300.2969,80.0469 300.9531,79.7969 Q301.3438,79.6406 301.7656,79.2031 Q302.0313,78.9375 302.1719,78.8594 Q302.3281,78.7813 302.5313,78.7813 Q302.8594,78.7813 303.1094,79.0469 Q303.375,79.2969 303.375,79.6406 Q303.375,79.9844 303.0313,80.3906 Q302.5313,80.9688 301.7344,81.2969 Q300.6563,81.75 299.3594,81.75 Q297.8438,81.75 296.6406,81.125 Q295.6563,80.625 294.9688,79.5625 Q294.2813,78.4844 294.2813,77.2031 L294.2813,76.0469 Q294.2813,74.7188 294.8906,73.5781 Q295.5156,72.4219 296.6094,71.8125 Q297.7031,71.1875 298.9375,71.1875 Q299.6719,71.1875 300.3125,71.3594 Q300.9688,71.5156 301.5156,71.875 Z " fill="#000000"/><text fill="#000000" font-family="sans-serif" font-size="14" lengthAdjust="spacing" textLength="80" x="319.25" y="81.7285">LoginScreen</text><line style="stroke:#181818;stroke-width:0.5;" x1="230" x2="456" y1="92" y2="92"/><text fill="#000000" font-family="sans-serif" font-size="14" lengthAdjust="spacing" textLength="78" x="235" y="110.5332">email: String</text><text fill="#000000" font-family="sans-serif" font-size="14" lengthAdjust="spacing" textLength="105" x="235" y="128.1426">password: String</text><text fill="#000000" font-family="sans-serif" font-size="14" lengthAdjust="spacing" textLength="10" x="235" y="145.752">--</text><line style="stroke:#181818;stroke-width:0.5;" x1="230" x2="456" y1="152.8281" y2="152.8281"/><ellipse cx="240" cy="167.1328" fill="#84BE84" rx="3" ry="3" style="stroke:#038048;stroke-width:1.0;"/><text fill="#000000" font-family="sans-serif" font-size="14" lengthAdjust="spacing" textLength="86" x="249" y="171.3613">submitLogin()</text><ellipse cx="240" cy="184.7422" fill="#84BE84" rx="3" ry="3" style="stroke:#038048;stroke-width:1.0;"/><text fill="#000000" font-family="sans-serif" font-size="14" lengthAdjust="spacing" textLength="59" x="249" y="188.9707">validate()</text><ellipse cx="240" cy="202.3516" fill="#84BE84" rx="3" ry="3" style="stroke:#038048;stroke-width:1.0;"/><text fill="#000000" font-family="sans-serif" font-size="14" lengthAdjust="spacing" textLength="174" x="249" y="206.5801">showValidationErrors(error)</text><ellipse cx="240" cy="219.9609" fill="#84BE84" rx="3" ry="3" style="stroke:#038048;stroke-width:1.0;"/><text fill="#000000" font-family="sans-serif" font-size="14" lengthAdjust="spacing" textLength="174" x="249" y="224.1895">redirectToUserDashboard()</text><ellipse cx="240" cy="237.5703" fill="#84BE84" rx="3" ry="3" style="stroke:#038048;stroke-width:1.0;"/><text fill="#000000" font-family="sans-serif" font-size="14" lengthAdjust="spacing" textLength="184" x="249" y="241.7988">redirectToAdminDashboard()</text><ellipse cx="240" cy="255.1797" fill="#84BE84" rx="3" ry="3" style="stroke:#038048;stroke-width:1.0;"/><text fill="#000000" font-family="sans-serif" font-size="14" lengthAdjust="spacing" textLength="202" x="249" y="259.4082">navigateToRegistrationScreen()</text></g><!--class RegistrationScreen--><g id="elem_RegistrationScreen"><rect codeLine="19" fill="#F1F1F1" height="312.1406" id="RegistrationScreen" rx="2.5" ry="2.5" style="stroke:#181818;stroke-width:0.5;" width="200" x="492" y="7"/><ellipse cx="528.15" cy="23" fill="#ADD1B2" rx="11" ry="11" style="stroke:#181818;stroke-width:1.0;"/><path d="M530.9156,18.875 Q531.0719,18.6563 531.2594,18.5469 Q531.4469,18.4375 531.6656,18.4375 Q532.0406,18.4375 532.275,18.7031 Q532.5094,18.9531 532.5094,19.5625 L532.5094,21.0156 Q532.5094,21.625 532.275,21.8906 Q532.0406,22.1563 531.6656,22.1563 Q531.3219,22.1563 531.1188,21.9531 Q530.9156,21.7656 530.8063,21.25 Q530.7594,20.8906 530.5719,20.7031 Q530.2438,20.3281 529.6344,20.1094 Q529.025,19.8906 528.4,19.8906 Q527.6344,19.8906 526.9938,20.2188 Q526.3688,20.5469 525.8688,21.2969 Q525.3844,22.0469 525.3844,23.0781 L525.3844,24.1719 Q525.3844,25.4063 526.275,26.2344 Q527.1656,27.0469 528.7594,27.0469 Q529.6969,27.0469 530.3531,26.7969 Q530.7438,26.6406 531.1656,26.2031 Q531.4313,25.9375 531.5719,25.8594 Q531.7281,25.7813 531.9313,25.7813 Q532.2594,25.7813 532.5094,26.0469 Q532.775,26.2969 532.775,26.6406 Q532.775,26.9844 532.4313,27.3906 Q531.9313,27.9688 531.1344,28.2969 Q530.0563,28.75 528.7594,28.75 Q527.2438,28.75 526.0406,28.125 Q525.0563,27.625 524.3688,26.5625 Q523.6813,25.4844 523.6813,24.2031 L523.6813,23.0469 Q523.6813,21.7188 524.2906,20.5781 Q524.9156,19.4219 526.0094,18.8125 Q527.1031,18.1875 528.3375,18.1875 Q529.0719,18.1875 529.7125,18.3594 Q530.3688,18.5156 530.9156,18.875 Z " fill="#000000"/><text fill="#000000" font-family="sans-serif" font-size="14" lengthAdjust="spacing" textLength="121" x="546.85" y="28.7285">RegistrationScreen</text><line style="stroke:#181818;stroke-width:0.5;" x1="493" x2="691" y1="39" y2="39"/><text fill="#000000" font-family="sans-serif" font-size="14" lengthAdjust="spacing" textLength="80" x="498" y="57.5332">name: String</text><text fill="#000000" font-family="sans-serif" font-size="14" lengthAdjust="spacing" textLength="78" x="498" y="75.1426">email: String</text><text fill="#000000" font-family="sans-serif" font-size="14" lengthAdjust="spacing" textLength="105" x="498" y="92.752">password: String</text><text fill="#000000" font-family="sans-serif" font-size="14" lengthAdjust="spacing" textLength="152" x="498" y="110.3613">confirmPassword: String</text><text fill="#000000" font-family="sans-serif" font-size="14" lengthAdjust="spacing" textLength="104" x="498" y="127.9707">firstName: String</text><text fill="#000000" font-family="sans-serif" font-size="14" lengthAdjust="spacing" textLength="103" x="498" y="145.5801">lastName: String</text><text fill="#000000" font-family="sans-serif" font-size="14" lengthAdjust="spacing" textLength="94" x="498" y="163.1895">campus: String</text><text fill="#000000" font-family="sans-serif" font-size="14" lengthAdjust="spacing" textLength="107" x="498" y="180.7988">residence: String</text><text fill="#000000" font-family="sans-serif" font-size="14" lengthAdjust="spacing" textLength="136" x="498" y="198.4082">allergies: List&lt;String&gt;</text><text fill="#000000" font-family="sans-serif" font-size="14" lengthAdjust="spacing" textLength="10" x="498" y="216.0176">--</text><line style="stroke:#181818;stroke-width:0.5;" x1="493" x2="691" y1="223.0938" y2="223.0938"/><ellipse cx="503" cy="237.3984" fill="#84BE84" rx="3" ry="3" style="stroke:#038048;stroke-width:1.0;"/><text fill="#000000" font-family="sans-serif" font-size="14" lengthAdjust="spacing" textLength="127" x="512" y="241.627">submitRegistration()</text><ellipse cx="503" cy="255.0078" fill="#84BE84" rx="3" ry="3" style="stroke:#038048;stroke-width:1.0;"/><text fill="#000000" font-family="sans-serif" font-size="14" lengthAdjust="spacing" textLength="59" x="512" y="259.2363">validate()</text><ellipse cx="503" cy="272.6172" fill="#84BE84" rx="3" ry="3" style="stroke:#038048;stroke-width:1.0;"/><text fill="#000000" font-family="sans-serif" font-size="14" lengthAdjust="spacing" textLength="174" x="512" y="276.8457">showValidationErrors(error)</text><ellipse cx="503" cy="290.2266" fill="#84BE84" rx="3" ry="3" style="stroke:#038048;stroke-width:1.0;"/><text fill="#000000" font-family="sans-serif" font-size="14" lengthAdjust="spacing" textLength="161" x="512" y="294.4551">navigateToLoginScreen()</text><ellipse cx="503" cy="307.8359" fill="#84BE84" rx="3" ry="3" style="stroke:#038048;stroke-width:1.0;"/><text fill="#000000" font-family="sans-serif" font-size="14" lengthAdjust="spacing" textLength="174" x="512" y="312.0645">redirectToUserDashboard()</text></g><!--class UserDashboardScreen--><g id="elem_UserDashboardScreen"><rect codeLine="37" fill="#F1F1F1" height="206.4844" id="UserDashboardScreen" rx="2.5" ry="2.5" style="stroke:#181818;stroke-width:0.5;" width="277" x="727.5" y="60"/><ellipse cx="789.75" cy="76" fill="#ADD1B2" rx="11" ry="11" style="stroke:#181818;stroke-width:1.0;"/><path d="M792.5156,71.875 Q792.6719,71.6563 792.8594,71.5469 Q793.0469,71.4375 793.2656,71.4375 Q793.6406,71.4375 793.875,71.7031 Q794.1094,71.9531 794.1094,72.5625 L794.1094,74.0156 Q794.1094,74.625 793.875,74.8906 Q793.6406,75.1563 793.2656,75.1563 Q792.9219,75.1563 792.7188,74.9531 Q792.5156,74.7656 792.4063,74.25 Q792.3594,73.8906 792.1719,73.7031 Q791.8438,73.3281 791.2344,73.1094 Q790.625,72.8906 790,72.8906 Q789.2344,72.8906 788.5938,73.2188 Q787.9688,73.5469 787.4688,74.2969 Q786.9844,75.0469 786.9844,76.0781 L786.9844,77.1719 Q786.9844,78.4063 787.875,79.2344 Q788.7656,80.0469 790.3594,80.0469 Q791.2969,80.0469 791.9531,79.7969 Q792.3438,79.6406 792.7656,79.2031 Q793.0313,78.9375 793.1719,78.8594 Q793.3281,78.7813 793.5313,78.7813 Q793.8594,78.7813 794.1094,79.0469 Q794.375,79.2969 794.375,79.6406 Q794.375,79.9844 794.0313,80.3906 Q793.5313,80.9688 792.7344,81.2969 Q791.6563,81.75 790.3594,81.75 Q788.8438,81.75 787.6406,81.125 Q786.6563,80.625 785.9688,79.5625 Q785.2813,78.4844 785.2813,77.2031 L785.2813,76.0469 Q785.2813,74.7188 785.8906,73.5781 Q786.5156,72.4219 787.6094,71.8125 Q788.7031,71.1875 789.9375,71.1875 Q790.6719,71.1875 791.3125,71.3594 Q791.9688,71.5156 792.5156,71.875 Z " fill="#000000"/><text fill="#000000" font-family="sans-serif" font-size="14" lengthAdjust="spacing" textLength="144" x="810.25" y="81.7285">UserDashboardScreen</text><line style="stroke:#181818;stroke-width:0.5;" x1="728.5" x2="1003.5" y1="92" y2="92"/><text fill="#000000" font-family="sans-serif" font-size="14" lengthAdjust="spacing" textLength="265" x="733.5" y="110.5332">userBalance: Decimal(19, 4) (REST state)</text><text fill="#000000" font-family="sans-serif" font-size="14" lengthAdjust="spacing" textLength="108" x="733.5" y="128.1426">user: UserDetails</text><line style="stroke:#181818;stroke-width:1.0;" x1="728.5" x2="1003.5" y1="135.2188" y2="135.2188"/><ellipse cx="738.5" cy="149.5234" fill="#84BE84" rx="3" ry="3" style="stroke:#038048;stroke-width:1.0;"/><text fill="#000000" font-family="sans-serif" font-size="14" lengthAdjust="spacing" textLength="113" x="747.5" y="153.752">fetchUserDetails()</text><ellipse cx="738.5" cy="167.1328" fill="#84BE84" rx="3" ry="3" style="stroke:#038048;stroke-width:1.0;"/><text fill="#000000" font-family="sans-serif" font-size="14" lengthAdjust="spacing" textLength="92" x="747.5" y="171.3613">fetchBalance()</text><ellipse cx="738.5" cy="184.7422" fill="#84BE84" rx="3" ry="3" style="stroke:#038048;stroke-width:1.0;"/><text fill="#000000" font-family="sans-serif" font-size="14" lengthAdjust="spacing" textLength="109" x="747.5" y="188.9707">fetchMenuItems()</text><ellipse cx="738.5" cy="202.3516" fill="#84BE84" rx="3" ry="3" style="stroke:#038048;stroke-width:1.0;"/><text fill="#000000" font-family="sans-serif" font-size="14" lengthAdjust="spacing" textLength="125" x="747.5" y="206.5801">navigateToOrders()</text><ellipse cx="738.5" cy="219.9609" fill="#84BE84" rx="3" ry="3" style="stroke:#038048;stroke-width:1.0;"/><text fill="#000000" font-family="sans-serif" font-size="14" lengthAdjust="spacing" textLength="121" x="747.5" y="224.1895">navigateToProfile()</text><ellipse cx="738.5" cy="237.5703" fill="#84BE84" rx="3" ry="3" style="stroke:#038048;stroke-width:1.0;"/><text fill="#000000" font-family="sans-serif" font-size="14" lengthAdjust="spacing" textLength="132" x="747.5" y="241.7988">navigateToSettings()</text><ellipse cx="738.5" cy="255.1797" fill="#84BE84" rx="3" ry="3" style="stroke:#038048;stroke-width:1.0;"/><text fill="#000000" font-family="sans-serif" font-size="14" lengthAdjust="spacing" textLength="125" x="747.5" y="259.4082">navigateToLogout()</text></g><!--class AdminDashboardScreen--><g id="elem_AdminDashboardScreen"><rect codeLine="50" fill="#F1F1F1" height="171.2656" id="AdminDashboardScreen" rx="2.5" ry="2.5" style="stroke:#181818;stroke-width:0.5;" width="249" x="1039.5" y="77.5"/><ellipse cx="1082.85" cy="93.5" fill="#ADD1B2" rx="11" ry="11" style="stroke:#181818;stroke-width:1.0;"/><path d="M1085.6156,89.375 Q1085.7719,89.1563 1085.9594,89.0469 Q1086.1469,88.9375 1086.3656,88.9375 Q1086.7406,88.9375 1086.975,89.2031 Q1087.2094,89.4531 1087.2094,90.0625 L1087.2094,91.5156 Q1087.2094,92.125 1086.975,92.3906 Q1086.7406,92.6563 1086.3656,92.6563 Q1086.0219,92.6563 1085.8188,92.4531 Q1085.6156,92.2656 1085.5063,91.75 Q1085.4594,91.3906 1085.2719,91.2031 Q1084.9438,90.8281 1084.3344,90.6094 Q1083.725,90.3906 1083.1,90.3906 Q1082.3344,90.3906 1081.6938,90.7188 Q1081.0688,91.0469 1080.5688,91.7969 Q1080.0844,92.5469 1080.0844,93.5781 L1080.0844,94.6719 Q1080.0844,95.9063 1080.975,96.7344 Q1081.8656,97.5469 1083.4594,97.5469 Q1084.3969,97.5469 1085.0531,97.2969 Q1085.4438,97.1406 1085.8656,96.7031 Q1086.1313,96.4375 1086.2719,96.3594 Q1086.4281,96.2813 1086.6313,96.2813 Q1086.9594,96.2813 1087.2094,96.5469 Q1087.475,96.7969 1087.475,97.1406 Q1087.475,97.4844 1087.1313,97.8906 Q1086.6313,98.4688 1085.8344,98.7969 Q1084.7563,99.25 1083.4594,99.25 Q1081.9438,99.25 1080.7406,98.625 Q1079.7563,98.125 1079.0688,97.0625 Q1078.3813,95.9844 1078.3813,94.7031 L1078.3813,93.5469 Q1078.3813,92.2188 1078.9906,91.0781 Q1079.6156,89.9219 1080.7094,89.3125 Q1081.8031,88.6875 1083.0375,88.6875 Q1083.7719,88.6875 1084.4125,88.8594 Q1085.0688,89.0156 1085.6156,89.375 Z " fill="#000000"/><text fill="#000000" font-family="sans-serif" font-size="14" lengthAdjust="spacing" textLength="154" x="1103.15" y="99.2285">AdminDashboardScreen</text><line style="stroke:#181818;stroke-width:0.5;" x1="1040.5" x2="1287.5" y1="109.5" y2="109.5"/><text fill="#000000" font-family="sans-serif" font-size="14" lengthAdjust="spacing" textLength="237" x="1045.5" y="128.0332">systemStatistics: Map&lt;String, Object&gt;</text><text fill="#000000" font-family="sans-serif" font-size="14" lengthAdjust="spacing" textLength="10" x="1045.5" y="145.6426">--</text><line style="stroke:#181818;stroke-width:0.5;" x1="1040.5" x2="1287.5" y1="152.7188" y2="152.7188"/><ellipse cx="1050.5" cy="167.0234" fill="#84BE84" rx="3" ry="3" style="stroke:#038048;stroke-width:1.0;"/><text fill="#000000" font-family="sans-serif" font-size="14" lengthAdjust="spacing" textLength="143" x="1059.5" y="171.252">fetchSystemStatistics()</text><ellipse cx="1050.5" cy="184.6328" fill="#84BE84" rx="3" ry="3" style="stroke:#038048;stroke-width:1.0;"/><text fill="#000000" font-family="sans-serif" font-size="14" lengthAdjust="spacing" textLength="168" x="1059.5" y="188.8613">navigateToManageUsers()</text><ellipse cx="1050.5" cy="202.2422" fill="#84BE84" rx="3" ry="3" style="stroke:#038048;stroke-width:1.0;"/><text fill="#000000" font-family="sans-serif" font-size="14" lengthAdjust="spacing" textLength="176" x="1059.5" y="206.4707">navigateToManageOrders()</text><ellipse cx="1050.5" cy="219.8516" fill="#84BE84" rx="3" ry="3" style="stroke:#038048;stroke-width:1.0;"/><text fill="#000000" font-family="sans-serif" font-size="14" lengthAdjust="spacing" textLength="131" x="1059.5" y="224.0801">navigateToReports()</text><ellipse cx="1050.5" cy="237.4609" fill="#84BE84" rx="3" ry="3" style="stroke:#038048;stroke-width:1.0;"/><text fill="#000000" font-family="sans-serif" font-size="14" lengthAdjust="spacing" textLength="132" x="1059.5" y="241.6895">navigateToSettings()</text></g><!--class ProfileScreen--><g id="elem_ProfileScreen"><rect codeLine="60" fill="#F1F1F1" height="206.4844" id="ProfileScreen" rx="2.5" ry="2.5" style="stroke:#181818;stroke-width:0.5;" width="568" x="1324" y="60"/><ellipse cx="1561.25" cy="76" fill="#ADD1B2" rx="11" ry="11" style="stroke:#181818;stroke-width:1.0;"/><path d="M1564.0156,71.875 Q1564.1719,71.6563 1564.3594,71.5469 Q1564.5469,71.4375 1564.7656,71.4375 Q1565.1406,71.4375 1565.375,71.7031 Q1565.6094,71.9531 1565.6094,72.5625 L1565.6094,74.0156 Q1565.6094,74.625 1565.375,74.8906 Q1565.1406,75.1563 1564.7656,75.1563 Q1564.4219,75.1563 1564.2188,74.9531 Q1564.0156,74.7656 1563.9063,74.25 Q1563.8594,73.8906 1563.6719,73.7031 Q1563.3438,73.3281 1562.7344,73.1094 Q1562.125,72.8906 1561.5,72.8906 Q1560.7344,72.8906 1560.0938,73.2188 Q1559.4688,73.5469 1558.9688,74.2969 Q1558.4844,75.0469 1558.4844,76.0781 L1558.4844,77.1719 Q1558.4844,78.4063 1559.375,79.2344 Q1560.2656,80.0469 1561.8594,80.0469 Q1562.7969,80.0469 1563.4531,79.7969 Q1563.8438,79.6406 1564.2656,79.2031 Q1564.5313,78.9375 1564.6719,78.8594 Q1564.8281,78.7813 1565.0313,78.7813 Q1565.3594,78.7813 1565.6094,79.0469 Q1565.875,79.2969 1565.875,79.6406 Q1565.875,79.9844 1565.5313,80.3906 Q1565.0313,80.9688 1564.2344,81.2969 Q1563.1563,81.75 1561.8594,81.75 Q1560.3438,81.75 1559.1406,81.125 Q1558.1563,80.625 1557.4688,79.5625 Q1556.7813,78.4844 1556.7813,77.2031 L1556.7813,76.0469 Q1556.7813,74.7188 1557.3906,73.5781 Q1558.0156,72.4219 1559.1094,71.8125 Q1560.2031,71.1875 1561.4375,71.1875 Q1562.1719,71.1875 1562.8125,71.3594 Q1563.4688,71.5156 1564.0156,71.875 Z " fill="#000000"/><text fill="#000000" font-family="sans-serif" font-size="14" lengthAdjust="spacing" textLength="85" x="1581.75" y="81.7285">ProfileScreen</text><line style="stroke:#181818;stroke-width:0.5;" x1="1325" x2="1891" y1="92" y2="92"/><text fill="#000000" font-family="sans-serif" font-size="14" lengthAdjust="spacing" textLength="108" x="1330" y="110.5332">user: UserDetails</text><text fill="#000000" font-family="sans-serif" font-size="14" lengthAdjust="spacing" textLength="145" x="1330" y="128.1426">userProfile: UserProfile</text><text fill="#000000" font-family="sans-serif" font-size="14" lengthAdjust="spacing" textLength="10" x="1330" y="145.752">--</text><line style="stroke:#181818;stroke-width:0.5;" x1="1325" x2="1891" y1="152.8281" y2="152.8281"/><ellipse cx="1335" cy="167.1328" fill="#84BE84" rx="3" ry="3" style="stroke:#038048;stroke-width:1.0;"/><text fill="#000000" font-family="sans-serif" font-size="14" lengthAdjust="spacing" textLength="113" x="1344" y="171.3613">fetchUserDetails()</text><ellipse cx="1335" cy="184.7422" fill="#84BE84" rx="3" ry="3" style="stroke:#038048;stroke-width:1.0;"/><text fill="#000000" font-family="sans-serif" font-size="14" lengthAdjust="spacing" textLength="110" x="1344" y="188.9707">fetchUserProfile()</text><ellipse cx="1335" cy="202.3516" fill="#84BE84" rx="3" ry="3" style="stroke:#038048;stroke-width:1.0;"/><text fill="#000000" font-family="sans-serif" font-size="14" lengthAdjust="spacing" textLength="99" x="1344" y="206.5801">validateProfile()</text><ellipse cx="1335" cy="219.9609" fill="#84BE84" rx="3" ry="3" style="stroke:#038048;stroke-width:1.0;"/><text fill="#000000" font-family="sans-serif" font-size="14" lengthAdjust="spacing" textLength="290" x="1344" y="224.1895">submitProfileChanges(newProfile: UserProfile)</text><ellipse cx="1335" cy="237.5703" fill="#84BE84" rx="3" ry="3" style="stroke:#038048;stroke-width:1.0;"/><text fill="#000000" font-family="sans-serif" font-size="14" lengthAdjust="spacing" textLength="542" x="1344" y="241.7988">changePassword(oldPassword: String, newPassword: String, confirmPassword: String)</text><ellipse cx="1335" cy="255.1797" fill="#84BE84" rx="3" ry="3" style="stroke:#038048;stroke-width:1.0;"/><text fill="#000000" font-family="sans-serif" font-size="14" lengthAdjust="spacing" textLength="180" x="1344" y="259.4082">navigateToUserDashboard()</text></g><!--class UserDetails--><g id="elem_UserDetails"><rect codeLine="72" fill="#F1F1F1" height="118.4375" id="UserDetails" rx="2.5" ry="2.5" style="stroke:#181818;stroke-width:0.5;" width="126" x="280" y="405.5"/><ellipse cx="304.9" cy="421.5" fill="#ADD1B2" rx="11" ry="11" style="stroke:#181818;stroke-width:1.0;"/><path d="M307.6656,417.375 Q307.8219,417.1563 308.0094,417.0469 Q308.1969,416.9375 308.4156,416.9375 Q308.7906,416.9375 309.025,417.2031 Q309.2594,417.4531 309.2594,418.0625 L309.2594,419.5156 Q309.2594,420.125 309.025,420.3906 Q308.7906,420.6563 308.4156,420.6563 Q308.0719,420.6563 307.8688,420.4531 Q307.6656,420.2656 307.5563,419.75 Q307.5094,419.3906 307.3219,419.2031 Q306.9938,418.8281 306.3844,418.6094 Q305.775,418.3906 305.15,418.3906 Q304.3844,418.3906 303.7438,418.7188 Q303.1188,419.0469 302.6188,419.7969 Q302.1344,420.5469 302.1344,421.5781 L302.1344,422.6719 Q302.1344,423.9063 303.025,424.7344 Q303.9156,425.5469 305.5094,425.5469 Q306.4469,425.5469 307.1031,425.2969 Q307.4938,425.1406 307.9156,424.7031 Q308.1813,424.4375 308.3219,424.3594 Q308.4781,424.2813 308.6813,424.2813 Q309.0094,424.2813 309.2594,424.5469 Q309.525,424.7969 309.525,425.1406 Q309.525,425.4844 309.1813,425.8906 Q308.6813,426.4688 307.8844,426.7969 Q306.8063,427.25 305.5094,427.25 Q303.9938,427.25 302.7906,426.625 Q301.8063,426.125 301.1188,425.0625 Q300.4313,423.9844 300.4313,422.7031 L300.4313,421.5469 Q300.4313,420.2188 301.0406,419.0781 Q301.6656,417.9219 302.7594,417.3125 Q303.8531,416.6875 305.0875,416.6875 Q305.8219,416.6875 306.4625,416.8594 Q307.1188,417.0156 307.6656,417.375 Z " fill="#000000"/><text fill="#000000" font-family="sans-serif" font-size="14" lengthAdjust="spacing" textLength="72" x="321.1" y="427.2285">UserDetails</text><line style="stroke:#181818;stroke-width:0.5;" x1="281" x2="405" y1="437.5" y2="437.5"/><text fill="#000000" font-family="sans-serif" font-size="14" lengthAdjust="spacing" textLength="56" x="286" y="456.0332">id: String</text><text fill="#000000" font-family="sans-serif" font-size="14" lengthAdjust="spacing" textLength="80" x="286" y="473.6426">name: String</text><text fill="#000000" font-family="sans-serif" font-size="14" lengthAdjust="spacing" textLength="78" x="286" y="491.252">email: String</text><text fill="#000000" font-family="sans-serif" font-size="14" lengthAdjust="spacing" textLength="114" x="286" y="508.8613">roles: List&lt;String&gt;</text><line style="stroke:#181818;stroke-width:0.5;" x1="281" x2="405" y1="515.9375" y2="515.9375"/></g><!--class UserProfile--><g id="elem_UserProfile"><rect codeLine="79" fill="#F1F1F1" height="136.0469" id="UserProfile" rx="2.5" ry="2.5" style="stroke:#181818;stroke-width:0.5;" width="148" x="441" y="396.5"/><ellipse cx="477.15" cy="412.5" fill="#ADD1B2" rx="11" ry="11" style="stroke:#181818;stroke-width:1.0;"/><path d="M479.9156,408.375 Q480.0719,408.1563 480.2594,408.0469 Q480.4469,407.9375 480.6656,407.9375 Q481.0406,407.9375 481.275,408.2031 Q481.5094,408.4531 481.5094,409.0625 L481.5094,410.5156 Q481.5094,411.125 481.275,411.3906 Q481.0406,411.6563 480.6656,411.6563 Q480.3219,411.6563 480.1188,411.4531 Q479.9156,411.2656 479.8063,410.75 Q479.7594,410.3906 479.5719,410.2031 Q479.2438,409.8281 478.6344,409.6094 Q478.025,409.3906 477.4,409.3906 Q476.6344,409.3906 475.9938,409.7188 Q475.3688,410.0469 474.8688,410.7969 Q474.3844,411.5469 474.3844,412.5781 L474.3844,413.6719 Q474.3844,414.9063 475.275,415.7344 Q476.1656,416.5469 477.7594,416.5469 Q478.6969,416.5469 479.3531,416.2969 Q479.7438,416.1406 480.1656,415.7031 Q480.4313,415.4375 480.5719,415.3594 Q480.7281,415.2813 480.9313,415.2813 Q481.2594,415.2813 481.5094,415.5469 Q481.775,415.7969 481.775,416.1406 Q481.775,416.4844 481.4313,416.8906 Q480.9313,417.4688 480.1344,417.7969 Q479.0563,418.25 477.7594,418.25 Q476.2438,418.25 475.0406,417.625 Q474.0563,417.125 473.3688,416.0625 Q472.6813,414.9844 472.6813,413.7031 L472.6813,412.5469 Q472.6813,411.2188 473.2906,410.0781 Q473.9156,408.9219 475.0094,408.3125 Q476.1031,407.6875 477.3375,407.6875 Q478.0719,407.6875 478.7125,407.8594 Q479.3688,408.0156 479.9156,408.375 Z " fill="#000000"/><text fill="#000000" font-family="sans-serif" font-size="14" lengthAdjust="spacing" textLength="69" x="495.85" y="418.2285">UserProfile</text><line style="stroke:#181818;stroke-width:0.5;" x1="442" x2="588" y1="428.5" y2="428.5"/><text fill="#000000" font-family="sans-serif" font-size="14" lengthAdjust="spacing" textLength="104" x="447" y="447.0332">firstName: String</text><text fill="#000000" font-family="sans-serif" font-size="14" lengthAdjust="spacing" textLength="103" x="447" y="464.6426">lastName: String</text><text fill="#000000" font-family="sans-serif" font-size="14" lengthAdjust="spacing" textLength="94" x="447" y="482.252">campus: String</text><text fill="#000000" font-family="sans-serif" font-size="14" lengthAdjust="spacing" textLength="107" x="447" y="499.8613">residence: String</text><text fill="#000000" font-family="sans-serif" font-size="14" lengthAdjust="spacing" textLength="136" x="447" y="517.4707">allergies: List&lt;String&gt;</text><line style="stroke:#181818;stroke-width:0.5;" x1="442" x2="588" y1="524.5469" y2="524.5469"/></g><!--class AdminUserManagementScreen--><g id="elem_AdminUserManagementScreen"><rect codeLine="87" fill="#F1F1F1" height="171.2656" id="AdminUserManagementScreen" rx="2.5" ry="2.5" style="stroke:#181818;stroke-width:0.5;" width="227" x="624.5" y="379"/><ellipse cx="639.5" cy="395" fill="#ADD1B2" rx="11" ry="11" style="stroke:#181818;stroke-width:1.0;"/><path d="M642.2656,390.875 Q642.4219,390.6563 642.6094,390.5469 Q642.7969,390.4375 643.0156,390.4375 Q643.3906,390.4375 643.625,390.7031 Q643.8594,390.9531 643.8594,391.5625 L643.8594,393.0156 Q643.8594,393.625 643.625,393.8906 Q643.3906,394.1563 643.0156,394.1563 Q642.6719,394.1563 642.4688,393.9531 Q642.2656,393.7656 642.1563,393.25 Q642.1094,392.8906 641.9219,392.7031 Q641.5938,392.3281 640.9844,392.1094 Q640.375,391.8906 639.75,391.8906 Q638.9844,391.8906 638.3438,392.2188 Q637.7188,392.5469 637.2188,393.2969 Q636.7344,394.0469 636.7344,395.0781 L636.7344,396.1719 Q636.7344,397.4063 637.625,398.2344 Q638.5156,399.0469 640.1094,399.0469 Q641.0469,399.0469 641.7031,398.7969 Q642.0938,398.6406 642.5156,398.2031 Q642.7813,397.9375 642.9219,397.8594 Q643.0781,397.7813 643.2813,397.7813 Q643.6094,397.7813 643.8594,398.0469 Q644.125,398.2969 644.125,398.6406 Q644.125,398.9844 643.7813,399.3906 Q643.2813,399.9688 642.4844,400.2969 Q641.4063,400.75 640.1094,400.75 Q638.5938,400.75 637.3906,400.125 Q636.4063,399.625 635.7188,398.5625 Q635.0313,397.4844 635.0313,396.2031 L635.0313,395.0469 Q635.0313,393.7188 635.6406,392.5781 Q636.2656,391.4219 637.3594,390.8125 Q638.4531,390.1875 639.6875,390.1875 Q640.4219,390.1875 641.0625,390.3594 Q641.7188,390.5156 642.2656,390.875 Z " fill="#000000"/><text fill="#000000" font-family="sans-serif" font-size="14" lengthAdjust="spacing" textLength="195" x="653.5" y="400.7285">AdminUserManagementScreen</text><line style="stroke:#181818;stroke-width:0.5;" x1="625.5" x2="850.5" y1="411" y2="411"/><text fill="#000000" font-family="sans-serif" font-size="14" lengthAdjust="spacing" textLength="153" x="630.5" y="429.5332">users: List&lt;UserDetails&gt;</text><text fill="#000000" font-family="sans-serif" font-size="14" lengthAdjust="spacing" textLength="10" x="630.5" y="447.1426">--</text><line style="stroke:#181818;stroke-width:0.5;" x1="625.5" x2="850.5" y1="454.2188" y2="454.2188"/><ellipse cx="635.5" cy="468.5234" fill="#84BE84" rx="3" ry="3" style="stroke:#038048;stroke-width:1.0;"/><text fill="#000000" font-family="sans-serif" font-size="14" lengthAdjust="spacing" textLength="77" x="644.5" y="472.752">fetchUsers()</text><ellipse cx="635.5" cy="486.1328" fill="#84BE84" rx="3" ry="3" style="stroke:#038048;stroke-width:1.0;"/><text fill="#000000" font-family="sans-serif" font-size="14" lengthAdjust="spacing" textLength="187" x="644.5" y="490.3613">createUser(user: UserDetails)</text><ellipse cx="635.5" cy="503.7422" fill="#84BE84" rx="3" ry="3" style="stroke:#038048;stroke-width:1.0;"/><text fill="#000000" font-family="sans-serif" font-size="14" lengthAdjust="spacing" textLength="191" x="644.5" y="507.9707">updateUser(user: UserDetails)</text><ellipse cx="635.5" cy="521.3516" fill="#84BE84" rx="3" ry="3" style="stroke:#038048;stroke-width:1.0;"/><text fill="#000000" font-family="sans-serif" font-size="14" lengthAdjust="spacing" textLength="168" x="644.5" y="525.5801">disableUser(userId: String)</text><ellipse cx="635.5" cy="538.9609" fill="#84BE84" rx="3" ry="3" style="stroke:#038048;stroke-width:1.0;"/><text fill="#000000" font-family="sans-serif" font-size="14" lengthAdjust="spacing" textLength="190" x="644.5" y="543.1895">navigateToAdminDashboard()</text></g><!--class OrderScreen--><g id="elem_OrderScreen"><rect codeLine="97" fill="#F1F1F1" height="153.6563" id="OrderScreen" rx="2.5" ry="2.5" style="stroke:#181818;stroke-width:0.5;" width="206" x="887" y="387.5"/><ellipse cx="944.75" cy="403.5" fill="#ADD1B2" rx="11" ry="11" style="stroke:#181818;stroke-width:1.0;"/><path d="M947.5156,399.375 Q947.6719,399.1563 947.8594,399.0469 Q948.0469,398.9375 948.2656,398.9375 Q948.6406,398.9375 948.875,399.2031 Q949.1094,399.4531 949.1094,400.0625 L949.1094,401.5156 Q949.1094,402.125 948.875,402.3906 Q948.6406,402.6563 948.2656,402.6563 Q947.9219,402.6563 947.7188,402.4531 Q947.5156,402.2656 947.4063,401.75 Q947.3594,401.3906 947.1719,401.2031 Q946.8438,400.8281 946.2344,400.6094 Q945.625,400.3906 945,400.3906 Q944.2344,400.3906 943.5938,400.7188 Q942.9688,401.0469 942.4688,401.7969 Q941.9844,402.5469 941.9844,403.5781 L941.9844,404.6719 Q941.9844,405.9063 942.875,406.7344 Q943.7656,407.5469 945.3594,407.5469 Q946.2969,407.5469 946.9531,407.2969 Q947.3438,407.1406 947.7656,406.7031 Q948.0313,406.4375 948.1719,406.3594 Q948.3281,406.2813 948.5313,406.2813 Q948.8594,406.2813 949.1094,406.5469 Q949.375,406.7969 949.375,407.1406 Q949.375,407.4844 949.0313,407.8906 Q948.5313,408.4688 947.7344,408.7969 Q946.6563,409.25 945.3594,409.25 Q943.8438,409.25 942.6406,408.625 Q941.6563,408.125 940.9688,407.0625 Q940.2813,405.9844 940.2813,404.7031 L940.2813,403.5469 Q940.2813,402.2188 940.8906,401.0781 Q941.5156,399.9219 942.6094,399.3125 Q943.7031,398.6875 944.9375,398.6875 Q945.6719,398.6875 946.3125,398.8594 Q946.9688,399.0156 947.5156,399.375 Z " fill="#000000"/><text fill="#000000" font-family="sans-serif" font-size="14" lengthAdjust="spacing" textLength="82" x="965.25" y="409.2285">OrderScreen</text><line style="stroke:#181818;stroke-width:0.5;" x1="888" x2="1092" y1="419.5" y2="419.5"/><text fill="#000000" font-family="sans-serif" font-size="14" lengthAdjust="spacing" textLength="124" x="893" y="438.0332">orders: List&lt;Order&gt;</text><text fill="#000000" font-family="sans-serif" font-size="14" lengthAdjust="spacing" textLength="10" x="893" y="455.6426">--</text><line style="stroke:#181818;stroke-width:0.5;" x1="888" x2="1092" y1="462.7188" y2="462.7188"/><ellipse cx="898" cy="477.0234" fill="#84BE84" rx="3" ry="3" style="stroke:#038048;stroke-width:1.0;"/><text fill="#000000" font-family="sans-serif" font-size="14" lengthAdjust="spacing" textLength="85" x="907" y="481.252">fetchOrders()</text><ellipse cx="898" cy="494.6328" fill="#84BE84" rx="3" ry="3" style="stroke:#038048;stroke-width:1.0;"/><text fill="#000000" font-family="sans-serif" font-size="14" lengthAdjust="spacing" textLength="170" x="907" y="498.8613">updateOrder(order: Order)</text><ellipse cx="898" cy="512.2422" fill="#84BE84" rx="3" ry="3" style="stroke:#038048;stroke-width:1.0;"/><text fill="#000000" font-family="sans-serif" font-size="14" lengthAdjust="spacing" textLength="178" x="907" y="516.4707">cancelOrder(orderId: String)</text><ellipse cx="898" cy="529.8516" fill="#84BE84" rx="3" ry="3" style="stroke:#038048;stroke-width:1.0;"/><text fill="#000000" font-family="sans-serif" font-size="14" lengthAdjust="spacing" textLength="180" x="907" y="534.0801">navigateToUserDashboard()</text></g><!--class Order--><g id="elem_Order"><rect codeLine="106" fill="#F1F1F1" height="118.4375" id="Order" rx="2.5" ry="2.5" style="stroke:#181818;stroke-width:0.5;" width="187" x="1128.5" y="405.5"/><ellipse cx="1199.25" cy="421.5" fill="#ADD1B2" rx="11" ry="11" style="stroke:#181818;stroke-width:1.0;"/><path d="M1202.0156,417.375 Q1202.1719,417.1563 1202.3594,417.0469 Q1202.5469,416.9375 1202.7656,416.9375 Q1203.1406,416.9375 1203.375,417.2031 Q1203.6094,417.4531 1203.6094,418.0625 L1203.6094,419.5156 Q1203.6094,420.125 1203.375,420.3906 Q1203.1406,420.6563 1202.7656,420.6563 Q1202.4219,420.6563 1202.2188,420.4531 Q1202.0156,420.2656 1201.9063,419.75 Q1201.8594,419.3906 1201.6719,419.2031 Q1201.3438,418.8281 1200.7344,418.6094 Q1200.125,418.3906 1199.5,418.3906 Q1198.7344,418.3906 1198.0938,418.7188 Q1197.4688,419.0469 1196.9688,419.7969 Q1196.4844,420.5469 1196.4844,421.5781 L1196.4844,422.6719 Q1196.4844,423.9063 1197.375,424.7344 Q1198.2656,425.5469 1199.8594,425.5469 Q1200.7969,425.5469 1201.4531,425.2969 Q1201.8438,425.1406 1202.2656,424.7031 Q1202.5313,424.4375 1202.6719,424.3594 Q1202.8281,424.2813 1203.0313,424.2813 Q1203.3594,424.2813 1203.6094,424.5469 Q1203.875,424.7969 1203.875,425.1406 Q1203.875,425.4844 1203.5313,425.8906 Q1203.0313,426.4688 1202.2344,426.7969 Q1201.1563,427.25 1199.8594,427.25 Q1198.3438,427.25 1197.1406,426.625 Q1196.1563,426.125 1195.4688,425.0625 Q1194.7813,423.9844 1194.7813,422.7031 L1194.7813,421.5469 Q1194.7813,420.2188 1195.3906,419.0781 Q1196.0156,417.9219 1197.1094,417.3125 Q1198.2031,416.6875 1199.4375,416.6875 Q1200.1719,416.6875 1200.8125,416.8594 Q1201.4688,417.0156 1202.0156,417.375 Z " fill="#000000"/><text fill="#000000" font-family="sans-serif" font-size="14" lengthAdjust="spacing" textLength="37" x="1219.75" y="427.2285">Order</text><line style="stroke:#181818;stroke-width:0.5;" x1="1129.5" x2="1314.5" y1="437.5" y2="437.5"/><text fill="#000000" font-family="sans-serif" font-size="14" lengthAdjust="spacing" textLength="56" x="1134.5" y="456.0332">id: String</text><text fill="#000000" font-family="sans-serif" font-size="14" lengthAdjust="spacing" textLength="140" x="1134.5" y="473.6426">items: List&lt;MenuItem&gt;</text><text fill="#000000" font-family="sans-serif" font-size="14" lengthAdjust="spacing" textLength="83" x="1134.5" y="491.252">status: String</text><line style="stroke:#181818;stroke-width:0.5;" x1="1129.5" x2="1314.5" y1="498.3281" y2="498.3281"/><text fill="#000000" font-family="sans-serif" font-size="14" lengthAdjust="spacing" textLength="175" x="1134.5" y="516.8613">totalAmount: Decimal(19, 4)</text></g><!--class MenuItem--><g id="elem_MenuItem"><rect codeLine="113" fill="#F1F1F1" height="118.4375" id="MenuItem" rx="2.5" ry="2.5" style="stroke:#181818;stroke-width:0.5;" width="143" x="271.5" y="680.5"/><ellipse cx="309" cy="696.5" fill="#ADD1B2" rx="11" ry="11" style="stroke:#181818;stroke-width:1.0;"/><path d="M311.7656,692.375 Q311.9219,692.1563 312.1094,692.0469 Q312.2969,691.9375 312.5156,691.9375 Q312.8906,691.9375 313.125,692.2031 Q313.3594,692.4531 313.3594,693.0625 L313.3594,694.5156 Q313.3594,695.125 313.125,695.3906 Q312.8906,695.6563 312.5156,695.6563 Q312.1719,695.6563 311.9688,695.4531 Q311.7656,695.2656 311.6563,694.75 Q311.6094,694.3906 311.4219,694.2031 Q311.0938,693.8281 310.4844,693.6094 Q309.875,693.3906 309.25,693.3906 Q308.4844,693.3906 307.8438,693.7188 Q307.2188,694.0469 306.7188,694.7969 Q306.2344,695.5469 306.2344,696.5781 L306.2344,697.6719 Q306.2344,698.9063 307.125,699.7344 Q308.0156,700.5469 309.6094,700.5469 Q310.5469,700.5469 311.2031,700.2969 Q311.5938,700.1406 312.0156,699.7031 Q312.2813,699.4375 312.4219,699.3594 Q312.5781,699.2813 312.7813,699.2813 Q313.1094,699.2813 313.3594,699.5469 Q313.625,699.7969 313.625,700.1406 Q313.625,700.4844 313.2813,700.8906 Q312.7813,701.4688 311.9844,701.7969 Q310.9063,702.25 309.6094,702.25 Q308.0938,702.25 306.8906,701.625 Q305.9063,701.125 305.2188,700.0625 Q304.5313,698.9844 304.5313,697.7031 L304.5313,696.5469 Q304.5313,695.2188 305.1406,694.0781 Q305.7656,692.9219 306.8594,692.3125 Q307.9531,691.6875 309.1875,691.6875 Q309.9219,691.6875 310.5625,691.8594 Q311.2188,692.0156 311.7656,692.375 Z " fill="#000000"/><text fill="#000000" font-family="sans-serif" font-size="14" lengthAdjust="spacing" textLength="61" x="328" y="702.2285">MenuItem</text><line style="stroke:#181818;stroke-width:0.5;" x1="272.5" x2="413.5" y1="712.5" y2="712.5"/><text fill="#000000" font-family="sans-serif" font-size="14" lengthAdjust="spacing" textLength="56" x="277.5" y="731.0332">id: String</text><text fill="#000000" font-family="sans-serif" font-size="14" lengthAdjust="spacing" textLength="80" x="277.5" y="748.6426">name: String</text><text fill="#000000" font-family="sans-serif" font-size="14" lengthAdjust="spacing" textLength="114" x="277.5" y="766.252">description: String</text><line style="stroke:#181818;stroke-width:0.5;" x1="272.5" x2="413.5" y1="773.3281" y2="773.3281"/><text fill="#000000" font-family="sans-serif" font-size="14" lengthAdjust="spacing" textLength="131" x="277.5" y="791.8613">price: Decimal(19, 4)</text></g><!--class SettingsScreen--><g id="elem_SettingsScreen"><rect codeLine="120" fill="#F1F1F1" height="136.0469" id="SettingsScreen" rx="2.5" ry="2.5" style="stroke:#181818;stroke-width:0.5;" width="317" x="449.5" y="671.5"/><ellipse cx="555.75" cy="687.5" fill="#ADD1B2" rx="11" ry="11" style="stroke:#181818;stroke-width:1.0;"/><path d="M558.5156,683.375 Q558.6719,683.1563 558.8594,683.0469 Q559.0469,682.9375 559.2656,682.9375 Q559.6406,682.9375 559.875,683.2031 Q560.1094,683.4531 560.1094,684.0625 L560.1094,685.5156 Q560.1094,686.125 559.875,686.3906 Q559.6406,686.6563 559.2656,686.6563 Q558.9219,686.6563 558.7188,686.4531 Q558.5156,686.2656 558.4063,685.75 Q558.3594,685.3906 558.1719,685.2031 Q557.8438,684.8281 557.2344,684.6094 Q556.625,684.3906 556,684.3906 Q555.2344,684.3906 554.5938,684.7188 Q553.9688,685.0469 553.4688,685.7969 Q552.9844,686.5469 552.9844,687.5781 L552.9844,688.6719 Q552.9844,689.9063 553.875,690.7344 Q554.7656,691.5469 556.3594,691.5469 Q557.2969,691.5469 557.9531,691.2969 Q558.3438,691.1406 558.7656,690.7031 Q559.0313,690.4375 559.1719,690.3594 Q559.3281,690.2813 559.5313,690.2813 Q559.8594,690.2813 560.1094,690.5469 Q560.375,690.7969 560.375,691.1406 Q560.375,691.4844 560.0313,691.8906 Q559.5313,692.4688 558.7344,692.7969 Q557.6563,693.25 556.3594,693.25 Q554.8438,693.25 553.6406,692.625 Q552.6563,692.125 551.9688,691.0625 Q551.2813,689.9844 551.2813,688.7031 L551.2813,687.5469 Q551.2813,686.2188 551.8906,685.0781 Q552.5156,683.9219 553.6094,683.3125 Q554.7031,682.6875 555.9375,682.6875 Q556.6719,682.6875 557.3125,682.8594 Q557.9688,683.0156 558.5156,683.375 Z " fill="#000000"/><text fill="#000000" font-family="sans-serif" font-size="14" lengthAdjust="spacing" textLength="96" x="576.25" y="693.2285">SettingsScreen</text><line style="stroke:#181818;stroke-width:0.5;" x1="450.5" x2="765.5" y1="703.5" y2="703.5"/><text fill="#000000" font-family="sans-serif" font-size="14" lengthAdjust="spacing" textLength="186" x="455.5" y="722.0332">settings: Map&lt;String, Object&gt;</text><text fill="#000000" font-family="sans-serif" font-size="14" lengthAdjust="spacing" textLength="10" x="455.5" y="739.6426">--</text><line style="stroke:#181818;stroke-width:0.5;" x1="450.5" x2="765.5" y1="746.7188" y2="746.7188"/><ellipse cx="460.5" cy="761.0234" fill="#84BE84" rx="3" ry="3" style="stroke:#038048;stroke-width:1.0;"/><text fill="#000000" font-family="sans-serif" font-size="14" lengthAdjust="spacing" textLength="92" x="469.5" y="765.252">fetchSettings()</text><ellipse cx="460.5" cy="778.6328" fill="#84BE84" rx="3" ry="3" style="stroke:#038048;stroke-width:1.0;"/><text fill="#000000" font-family="sans-serif" font-size="14" lengthAdjust="spacing" textLength="291" x="469.5" y="782.8613">updateSettings(settings: Map&lt;String, Object&gt;)</text><ellipse cx="460.5" cy="796.2422" fill="#84BE84" rx="3" ry="3" style="stroke:#038048;stroke-width:1.0;"/><text fill="#000000" font-family="sans-serif" font-size="14" lengthAdjust="spacing" textLength="180" x="469.5" y="800.4707">navigateToUserDashboard()</text></g><!--class AdminOrderManagementScreen--><g id="elem_AdminOrderManagementScreen"><rect codeLine="128" fill="#F1F1F1" height="153.6563" id="AdminOrderManagementScreen" rx="2.5" ry="2.5" style="stroke:#181818;stroke-width:0.5;" width="338" x="802" y="662.5"/><ellipse cx="865.25" cy="678.5" fill="#ADD1B2" rx="11" ry="11" style="stroke:#181818;stroke-width:1.0;"/><path d="M868.0156,674.375 Q868.1719,674.1563 868.3594,674.0469 Q868.5469,673.9375 868.7656,673.9375 Q869.1406,673.9375 869.375,674.2031 Q869.6094,674.4531 869.6094,675.0625 L869.6094,676.5156 Q869.6094,677.125 869.375,677.3906 Q869.1406,677.6563 868.7656,677.6563 Q868.4219,677.6563 868.2188,677.4531 Q868.0156,677.2656 867.9063,676.75 Q867.8594,676.3906 867.6719,676.2031 Q867.3438,675.8281 866.7344,675.6094 Q866.125,675.3906 865.5,675.3906 Q864.7344,675.3906 864.0938,675.7188 Q863.4688,676.0469 862.9688,676.7969 Q862.4844,677.5469 862.4844,678.5781 L862.4844,679.6719 Q862.4844,680.9063 863.375,681.7344 Q864.2656,682.5469 865.8594,682.5469 Q866.7969,682.5469 867.4531,682.2969 Q867.8438,682.1406 868.2656,681.7031 Q868.5313,681.4375 868.6719,681.3594 Q868.8281,681.2813 869.0313,681.2813 Q869.3594,681.2813 869.6094,681.5469 Q869.875,681.7969 869.875,682.1406 Q869.875,682.4844 869.5313,682.8906 Q869.0313,683.4688 868.2344,683.7969 Q867.1563,684.25 865.8594,684.25 Q864.3438,684.25 863.1406,683.625 Q862.1563,683.125 861.4688,682.0625 Q860.7813,680.9844 860.7813,679.7031 L860.7813,678.5469 Q860.7813,677.2188 861.3906,676.0781 Q862.0156,674.9219 863.1094,674.3125 Q864.2031,673.6875 865.4375,673.6875 Q866.1719,673.6875 866.8125,673.8594 Q867.4688,674.0156 868.0156,674.375 Z " fill="#000000"/><text fill="#000000" font-family="sans-serif" font-size="14" lengthAdjust="spacing" textLength="203" x="885.75" y="684.2285">AdminOrderManagementScreen</text><line style="stroke:#181818;stroke-width:0.5;" x1="803" x2="1139" y1="694.5" y2="694.5"/><text fill="#000000" font-family="sans-serif" font-size="14" lengthAdjust="spacing" textLength="124" x="808" y="713.0332">orders: List&lt;Order&gt;</text><text fill="#000000" font-family="sans-serif" font-size="14" lengthAdjust="spacing" textLength="10" x="808" y="730.6426">--</text><line style="stroke:#181818;stroke-width:0.5;" x1="803" x2="1139" y1="737.7188" y2="737.7188"/><ellipse cx="813" cy="752.0234" fill="#84BE84" rx="3" ry="3" style="stroke:#038048;stroke-width:1.0;"/><text fill="#000000" font-family="sans-serif" font-size="14" lengthAdjust="spacing" textLength="85" x="822" y="756.252">fetchOrders()</text><ellipse cx="813" cy="769.6328" fill="#84BE84" rx="3" ry="3" style="stroke:#038048;stroke-width:1.0;"/><text fill="#000000" font-family="sans-serif" font-size="14" lengthAdjust="spacing" textLength="312" x="822" y="773.8613">updateOrderStatus(orderId: String, status: String)</text><ellipse cx="813" cy="787.2422" fill="#84BE84" rx="3" ry="3" style="stroke:#038048;stroke-width:1.0;"/><text fill="#000000" font-family="sans-serif" font-size="14" lengthAdjust="spacing" textLength="237" x="822" y="791.4707">sendOrderNotification(orderId: String)</text><ellipse cx="813" cy="804.8516" fill="#84BE84" rx="3" ry="3" style="stroke:#038048;stroke-width:1.0;"/><text fill="#000000" font-family="sans-serif" font-size="14" lengthAdjust="spacing" textLength="190" x="822" y="809.0801">navigateToAdminDashboard()</text></g><!--class UserMenuScreen--><g id="elem_UserMenuScreen"><rect codeLine="137" fill="#F1F1F1" height="259.3125" id="UserMenuScreen" rx="2.5" ry="2.5" style="stroke:#181818;stroke-width:0.5;" width="607" x="1175.5" y="610"/><ellipse cx="1420.25" cy="626" fill="#ADD1B2" rx="11" ry="11" style="stroke:#181818;stroke-width:1.0;"/><path d="M1423.0156,621.875 Q1423.1719,621.6563 1423.3594,621.5469 Q1423.5469,621.4375 1423.7656,621.4375 Q1424.1406,621.4375 1424.375,621.7031 Q1424.6094,621.9531 1424.6094,622.5625 L1424.6094,624.0156 Q1424.6094,624.625 1424.375,624.8906 Q1424.1406,625.1563 1423.7656,625.1563 Q1423.4219,625.1563 1423.2188,624.9531 Q1423.0156,624.7656 1422.9063,624.25 Q1422.8594,623.8906 1422.6719,623.7031 Q1422.3438,623.3281 1421.7344,623.1094 Q1421.125,622.8906 1420.5,622.8906 Q1419.7344,622.8906 1419.0938,623.2188 Q1418.4688,623.5469 1417.9688,624.2969 Q1417.4844,625.0469 1417.4844,626.0781 L1417.4844,627.1719 Q1417.4844,628.4063 1418.375,629.2344 Q1419.2656,630.0469 1420.8594,630.0469 Q1421.7969,630.0469 1422.4531,629.7969 Q1422.8438,629.6406 1423.2656,629.2031 Q1423.5313,628.9375 1423.6719,628.8594 Q1423.8281,628.7813 1424.0313,628.7813 Q1424.3594,628.7813 1424.6094,629.0469 Q1424.875,629.2969 1424.875,629.6406 Q1424.875,629.9844 1424.5313,630.3906 Q1424.0313,630.9688 1423.2344,631.2969 Q1422.1563,631.75 1420.8594,631.75 Q1419.3438,631.75 1418.1406,631.125 Q1417.1563,630.625 1416.4688,629.5625 Q1415.7813,628.4844 1415.7813,627.2031 L1415.7813,626.0469 Q1415.7813,624.7188 1416.3906,623.5781 Q1417.0156,622.4219 1418.1094,621.8125 Q1419.2031,621.1875 1420.4375,621.1875 Q1421.1719,621.1875 1421.8125,621.3594 Q1422.4688,621.5156 1423.0156,621.875 Z " fill="#000000"/><text fill="#000000" font-family="sans-serif" font-size="14" lengthAdjust="spacing" textLength="109" x="1440.75" y="631.7285">UserMenuScreen</text><line style="stroke:#181818;stroke-width:0.5;" x1="1176.5" x2="1781.5" y1="642" y2="642"/><text fill="#000000" font-family="sans-serif" font-size="14" lengthAdjust="spacing" textLength="175" x="1181.5" y="660.5332">menuItems: List&lt;MenuItem&gt;</text><text fill="#000000" font-family="sans-serif" font-size="14" lengthAdjust="spacing" textLength="10" x="1181.5" y="678.1426">--</text><line style="stroke:#181818;stroke-width:0.5;" x1="1176.5" x2="1781.5" y1="685.2188" y2="685.2188"/><text fill="#000000" font-family="sans-serif" font-size="14" lengthAdjust="spacing" textLength="581" x="1195.5" y="703.752">orderBasket: List&lt;MenuItem&gt; (Browser LocalStorage -&gt; shared with UserMealDetailsScreen)</text><ellipse cx="1186.5" cy="717.1328" fill="#84BE84" rx="3" ry="3" style="stroke:#038048;stroke-width:1.0;"/><text fill="#000000" font-family="sans-serif" font-size="14" lengthAdjust="spacing" textLength="109" x="1195.5" y="721.3613">fetchMenuItems()</text><ellipse cx="1186.5" cy="734.7422" fill="#84BE84" rx="3" ry="3" style="stroke:#038048;stroke-width:1.0;"/><text fill="#000000" font-family="sans-serif" font-size="14" lengthAdjust="spacing" textLength="155" x="1195.5" y="738.9707">showAllergyInformation()</text><ellipse cx="1186.5" cy="752.3516" fill="#84BE84" rx="3" ry="3" style="stroke:#038048;stroke-width:1.0;"/><text fill="#000000" font-family="sans-serif" font-size="14" lengthAdjust="spacing" textLength="266" x="1195.5" y="756.5801">navigateToMealDetails(menuItemId: Long)</text><ellipse cx="1186.5" cy="769.9609" fill="#84BE84" rx="3" ry="3" style="stroke:#038048;stroke-width:1.0;"/><text fill="#000000" font-family="sans-serif" font-size="14" lengthAdjust="spacing" textLength="360" x="1195.5" y="774.1895">addItemToBasket(menuItem: MenuItem, quantity: Integer)</text><ellipse cx="1186.5" cy="787.5703" fill="#84BE84" rx="3" ry="3" style="stroke:#038048;stroke-width:1.0;"/><text fill="#000000" font-family="sans-serif" font-size="14" lengthAdjust="spacing" textLength="271" x="1195.5" y="791.7988">removeItemFromBasket(menuItemId: Long)</text><ellipse cx="1186.5" cy="805.1797" fill="#84BE84" rx="3" ry="3" style="stroke:#038048;stroke-width:1.0;"/><text fill="#000000" font-family="sans-serif" font-size="14" lengthAdjust="spacing" textLength="84" x="1195.5" y="809.4082">clearBasket()</text><ellipse cx="1186.5" cy="822.7891" fill="#84BE84" rx="3" ry="3" style="stroke:#038048;stroke-width:1.0;"/><text fill="#000000" font-family="sans-serif" font-size="14" lengthAdjust="spacing" textLength="88" x="1195.5" y="827.0176">submitOrder()</text><ellipse cx="1186.5" cy="840.3984" fill="#84BE84" rx="3" ry="3" style="stroke:#038048;stroke-width:1.0;"/><text fill="#000000" font-family="sans-serif" font-size="14" lengthAdjust="spacing" textLength="112" x="1195.5" y="844.627">redirectToOrder()</text><ellipse cx="1186.5" cy="858.0078" fill="#84BE84" rx="3" ry="3" style="stroke:#038048;stroke-width:1.0;"/><text fill="#000000" font-family="sans-serif" font-size="14" lengthAdjust="spacing" textLength="180" x="1195.5" y="862.2363">navigateToUserDashboard()</text></g><!--class UserMealDetailsScreen--><g id="elem_UserMealDetailsScreen"><rect codeLine="152" fill="#F1F1F1" height="153.6563" id="UserMealDetailsScreen" rx="2.5" ry="2.5" style="stroke:#181818;stroke-width:0.5;" width="569" x="1817.5" y="662.5"/><ellipse cx="2024.25" cy="678.5" fill="#ADD1B2" rx="11" ry="11" style="stroke:#181818;stroke-width:1.0;"/><path d="M2027.0156,674.375 Q2027.1719,674.1563 2027.3594,674.0469 Q2027.5469,673.9375 2027.7656,673.9375 Q2028.1406,673.9375 2028.375,674.2031 Q2028.6094,674.4531 2028.6094,675.0625 L2028.6094,676.5156 Q2028.6094,677.125 2028.375,677.3906 Q2028.1406,677.6563 2027.7656,677.6563 Q2027.4219,677.6563 2027.2188,677.4531 Q2027.0156,677.2656 2026.9063,676.75 Q2026.8594,676.3906 2026.6719,676.2031 Q2026.3438,675.8281 2025.7344,675.6094 Q2025.125,675.3906 2024.5,675.3906 Q2023.7344,675.3906 2023.0938,675.7188 Q2022.4688,676.0469 2021.9688,676.7969 Q2021.4844,677.5469 2021.4844,678.5781 L2021.4844,679.6719 Q2021.4844,680.9063 2022.375,681.7344 Q2023.2656,682.5469 2024.8594,682.5469 Q2025.7969,682.5469 2026.4531,682.2969 Q2026.8438,682.1406 2027.2656,681.7031 Q2027.5313,681.4375 2027.6719,681.3594 Q2027.8281,681.2813 2028.0313,681.2813 Q2028.3594,681.2813 2028.6094,681.5469 Q2028.875,681.7969 2028.875,682.1406 Q2028.875,682.4844 2028.5313,682.8906 Q2028.0313,683.4688 2027.2344,683.7969 Q2026.1563,684.25 2024.8594,684.25 Q2023.3438,684.25 2022.1406,683.625 Q2021.1563,683.125 2020.4688,682.0625 Q2019.7813,680.9844 2019.7813,679.7031 L2019.7813,678.5469 Q2019.7813,677.2188 2020.3906,676.0781 Q2021.0156,674.9219 2022.1094,674.3125 Q2023.2031,673.6875 2024.4375,673.6875 Q2025.1719,673.6875 2025.8125,673.8594 Q2026.4688,674.0156 2027.0156,674.375 Z " fill="#000000"/><text fill="#000000" font-family="sans-serif" font-size="14" lengthAdjust="spacing" textLength="147" x="2044.75" y="684.2285">UserMealDetailsScreen</text><line style="stroke:#181818;stroke-width:0.5;" x1="1818.5" x2="2385.5" y1="694.5" y2="694.5"/><text fill="#000000" font-family="sans-serif" font-size="14" lengthAdjust="spacing" textLength="130" x="1823.5" y="713.0332">menuItem: MenuItem</text><text fill="#000000" font-family="sans-serif" font-size="14" lengthAdjust="spacing" textLength="10" x="1823.5" y="730.6426">--</text><line style="stroke:#181818;stroke-width:0.5;" x1="1818.5" x2="2385.5" y1="737.7188" y2="737.7188"/><text fill="#000000" font-family="sans-serif" font-size="14" lengthAdjust="spacing" textLength="543" x="1837.5" y="756.252">orderBasket: List&lt;MenuItem&gt; (Browser LocalStorage -&gt; shared with UserMenuScreen)</text><ellipse cx="1828.5" cy="769.6328" fill="#84BE84" rx="3" ry="3" style="stroke:#038048;stroke-width:1.0;"/><text fill="#000000" font-family="sans-serif" font-size="14" lengthAdjust="spacing" textLength="257" x="1837.5" y="773.8613">fetchMenuItemDetails(menuItemId: Long)</text><ellipse cx="1828.5" cy="787.2422" fill="#84BE84" rx="3" ry="3" style="stroke:#038048;stroke-width:1.0;"/><text fill="#000000" font-family="sans-serif" font-size="14" lengthAdjust="spacing" textLength="334" x="1837.5" y="791.4707">addToBasket(menuItem: MenuItem, quantity: Integer)</text><ellipse cx="1828.5" cy="804.8516" fill="#84BE84" rx="3" ry="3" style="stroke:#038048;stroke-width:1.0;"/><text fill="#000000" font-family="sans-serif" font-size="14" lengthAdjust="spacing" textLength="161" x="1837.5" y="809.0801">navigateToMenuScreen()</text></g><!--class AdminMenuScreen--><g id="elem_AdminMenuScreen"><rect codeLine="161" fill="#F1F1F1" height="171.2656" id="AdminMenuScreen" rx="2.5" ry="2.5" style="stroke:#181818;stroke-width:0.5;" width="271" x="207.5" y="929"/><ellipse cx="279.25" cy="945" fill="#ADD1B2" rx="11" ry="11" style="stroke:#181818;stroke-width:1.0;"/><path d="M282.0156,940.875 Q282.1719,940.6563 282.3594,940.5469 Q282.5469,940.4375 282.7656,940.4375 Q283.1406,940.4375 283.375,940.7031 Q283.6094,940.9531 283.6094,941.5625 L283.6094,943.0156 Q283.6094,943.625 283.375,943.8906 Q283.1406,944.1563 282.7656,944.1563 Q282.4219,944.1563 282.2188,943.9531 Q282.0156,943.7656 281.9063,943.25 Q281.8594,942.8906 281.6719,942.7031 Q281.3438,942.3281 280.7344,942.1094 Q280.125,941.8906 279.5,941.8906 Q278.7344,941.8906 278.0938,942.2188 Q277.4688,942.5469 276.9688,943.2969 Q276.4844,944.0469 276.4844,945.0781 L276.4844,946.1719 Q276.4844,947.4063 277.375,948.2344 Q278.2656,949.0469 279.8594,949.0469 Q280.7969,949.0469 281.4531,948.7969 Q281.8438,948.6406 282.2656,948.2031 Q282.5313,947.9375 282.6719,947.8594 Q282.8281,947.7813 283.0313,947.7813 Q283.3594,947.7813 283.6094,948.0469 Q283.875,948.2969 283.875,948.6406 Q283.875,948.9844 283.5313,949.3906 Q283.0313,949.9688 282.2344,950.2969 Q281.1563,950.75 279.8594,950.75 Q278.3438,950.75 277.1406,950.125 Q276.1563,949.625 275.4688,948.5625 Q274.7813,947.4844 274.7813,946.2031 L274.7813,945.0469 Q274.7813,943.7188 275.3906,942.5781 Q276.0156,941.4219 277.1094,940.8125 Q278.2031,940.1875 279.4375,940.1875 Q280.1719,940.1875 280.8125,940.3594 Q281.4688,940.5156 282.0156,940.875 Z " fill="#000000"/><text fill="#000000" font-family="sans-serif" font-size="14" lengthAdjust="spacing" textLength="119" x="299.75" y="950.7285">AdminMenuScreen</text><line style="stroke:#181818;stroke-width:0.5;" x1="208.5" x2="477.5" y1="961" y2="961"/><text fill="#000000" font-family="sans-serif" font-size="14" lengthAdjust="spacing" textLength="175" x="213.5" y="979.5332">menuItems: List&lt;MenuItem&gt;</text><text fill="#000000" font-family="sans-serif" font-size="14" lengthAdjust="spacing" textLength="10" x="213.5" y="997.1426">--</text><line style="stroke:#181818;stroke-width:0.5;" x1="208.5" x2="477.5" y1="1004.2188" y2="1004.2188"/><ellipse cx="218.5" cy="1018.5234" fill="#84BE84" rx="3" ry="3" style="stroke:#038048;stroke-width:1.0;"/><text fill="#000000" font-family="sans-serif" font-size="14" lengthAdjust="spacing" textLength="109" x="227.5" y="1022.752">fetchMenuItems()</text><ellipse cx="218.5" cy="1036.1328" fill="#84BE84" rx="3" ry="3" style="stroke:#038048;stroke-width:1.0;"/><text fill="#000000" font-family="sans-serif" font-size="14" lengthAdjust="spacing" textLength="241" x="227.5" y="1040.3613">createMenuItem(menuItem: MenuItem)</text><ellipse cx="218.5" cy="1053.7422" fill="#84BE84" rx="3" ry="3" style="stroke:#038048;stroke-width:1.0;"/><text fill="#000000" font-family="sans-serif" font-size="14" lengthAdjust="spacing" textLength="245" x="227.5" y="1057.9707">updateMenuItem(menuItem: MenuItem)</text><ellipse cx="218.5" cy="1071.3516" fill="#84BE84" rx="3" ry="3" style="stroke:#038048;stroke-width:1.0;"/><text fill="#000000" font-family="sans-serif" font-size="14" lengthAdjust="spacing" textLength="235" x="227.5" y="1075.5801">removeMenuItem(menuItemId: String)</text><ellipse cx="218.5" cy="1088.9609" fill="#84BE84" rx="3" ry="3" style="stroke:#038048;stroke-width:1.0;"/><text fill="#000000" font-family="sans-serif" font-size="14" lengthAdjust="spacing" textLength="190" x="227.5" y="1093.1895">navigateToAdminDashboard()</text></g><!--class UserFeedbackScreen--><g id="elem_UserFeedbackScreen"><rect codeLine="171" fill="#F1F1F1" height="136.0469" id="UserFeedbackScreen" rx="2.5" ry="2.5" style="stroke:#181818;stroke-width:0.5;" width="337" x="513.5" y="946.5"/><ellipse cx="609.25" cy="962.5" fill="#ADD1B2" rx="11" ry="11" style="stroke:#181818;stroke-width:1.0;"/><path d="M612.0156,958.375 Q612.1719,958.1563 612.3594,958.0469 Q612.5469,957.9375 612.7656,957.9375 Q613.1406,957.9375 613.375,958.2031 Q613.6094,958.4531 613.6094,959.0625 L613.6094,960.5156 Q613.6094,961.125 613.375,961.3906 Q613.1406,961.6563 612.7656,961.6563 Q612.4219,961.6563 612.2188,961.4531 Q612.0156,961.2656 611.9063,960.75 Q611.8594,960.3906 611.6719,960.2031 Q611.3438,959.8281 610.7344,959.6094 Q610.125,959.3906 609.5,959.3906 Q608.7344,959.3906 608.0938,959.7188 Q607.4688,960.0469 606.9688,960.7969 Q606.4844,961.5469 606.4844,962.5781 L606.4844,963.6719 Q606.4844,964.9063 607.375,965.7344 Q608.2656,966.5469 609.8594,966.5469 Q610.7969,966.5469 611.4531,966.2969 Q611.8438,966.1406 612.2656,965.7031 Q612.5313,965.4375 612.6719,965.3594 Q612.8281,965.2813 613.0313,965.2813 Q613.3594,965.2813 613.6094,965.5469 Q613.875,965.7969 613.875,966.1406 Q613.875,966.4844 613.5313,966.8906 Q613.0313,967.4688 612.2344,967.7969 Q611.1563,968.25 609.8594,968.25 Q608.3438,968.25 607.1406,967.625 Q606.1563,967.125 605.4688,966.0625 Q604.7813,964.9844 604.7813,963.7031 L604.7813,962.5469 Q604.7813,961.2188 605.3906,960.0781 Q606.0156,958.9219 607.1094,958.3125 Q608.2031,957.6875 609.4375,957.6875 Q610.1719,957.6875 610.8125,957.8594 Q611.4688,958.0156 612.0156,958.375 Z " fill="#000000"/><text fill="#000000" font-family="sans-serif" font-size="14" lengthAdjust="spacing" textLength="137" x="629.75" y="968.2285">UserFeedbackScreen</text><line style="stroke:#181818;stroke-width:0.5;" x1="514.5" x2="849.5" y1="978.5" y2="978.5"/><text fill="#000000" font-family="sans-serif" font-size="14" lengthAdjust="spacing" textLength="103" x="519.5" y="997.0332">feedback: String</text><text fill="#000000" font-family="sans-serif" font-size="14" lengthAdjust="spacing" textLength="10" x="519.5" y="1014.6426">--</text><line style="stroke:#181818;stroke-width:0.5;" x1="514.5" x2="849.5" y1="1021.7188" y2="1021.7188"/><ellipse cx="524.5" cy="1036.0234" fill="#84BE84" rx="3" ry="3" style="stroke:#038048;stroke-width:1.0;"/><text fill="#000000" font-family="sans-serif" font-size="14" lengthAdjust="spacing" textLength="311" x="533.5" y="1040.252">submitFeedback(score: Integer, comment: String)</text><ellipse cx="524.5" cy="1053.6328" fill="#84BE84" rx="3" ry="3" style="stroke:#038048;stroke-width:1.0;"/><text fill="#000000" font-family="sans-serif" font-size="14" lengthAdjust="spacing" textLength="201" x="533.5" y="1057.8613">submitFeedback(score: Integer)</text><ellipse cx="524.5" cy="1071.2422" fill="#84BE84" rx="3" ry="3" style="stroke:#038048;stroke-width:1.0;"/><text fill="#000000" font-family="sans-serif" font-size="14" lengthAdjust="spacing" textLength="180" x="533.5" y="1075.4707">navigateToUserDashboard()</text></g><!--class AdminFeedbackScreen--><g id="elem_AdminFeedbackScreen"><rect codeLine="179" fill="#F1F1F1" height="118.4375" id="AdminFeedbackScreen" rx="2.5" ry="2.5" style="stroke:#181818;stroke-width:0.5;" width="216" x="886" y="955.5"/><ellipse cx="917.65" cy="971.5" fill="#ADD1B2" rx="11" ry="11" style="stroke:#181818;stroke-width:1.0;"/><path d="M920.4156,967.375 Q920.5719,967.1563 920.7594,967.0469 Q920.9469,966.9375 921.1656,966.9375 Q921.5406,966.9375 921.775,967.2031 Q922.0094,967.4531 922.0094,968.0625 L922.0094,969.5156 Q922.0094,970.125 921.775,970.3906 Q921.5406,970.6563 921.1656,970.6563 Q920.8219,970.6563 920.6188,970.4531 Q920.4156,970.2656 920.3063,969.75 Q920.2594,969.3906 920.0719,969.2031 Q919.7438,968.8281 919.1344,968.6094 Q918.525,968.3906 917.9,968.3906 Q917.1344,968.3906 916.4938,968.7188 Q915.8688,969.0469 915.3688,969.7969 Q914.8844,970.5469 914.8844,971.5781 L914.8844,972.6719 Q914.8844,973.9063 915.775,974.7344 Q916.6656,975.5469 918.2594,975.5469 Q919.1969,975.5469 919.8531,975.2969 Q920.2438,975.1406 920.6656,974.7031 Q920.9313,974.4375 921.0719,974.3594 Q921.2281,974.2813 921.4313,974.2813 Q921.7594,974.2813 922.0094,974.5469 Q922.275,974.7969 922.275,975.1406 Q922.275,975.4844 921.9313,975.8906 Q921.4313,976.4688 920.6344,976.7969 Q919.5563,977.25 918.2594,977.25 Q916.7438,977.25 915.5406,976.625 Q914.5563,976.125 913.8688,975.0625 Q913.1813,973.9844 913.1813,972.7031 L913.1813,971.5469 Q913.1813,970.2188 913.7906,969.0781 Q914.4156,967.9219 915.5094,967.3125 Q916.6031,966.6875 917.8375,966.6875 Q918.5719,966.6875 919.2125,966.8594 Q919.8688,967.0156 920.4156,967.375 Z " fill="#000000"/><text fill="#000000" font-family="sans-serif" font-size="14" lengthAdjust="spacing" textLength="147" x="935.35" y="977.2285">AdminFeedbackScreen</text><line style="stroke:#181818;stroke-width:0.5;" x1="887" x2="1101" y1="987.5" y2="987.5"/><text fill="#000000" font-family="sans-serif" font-size="14" lengthAdjust="spacing" textLength="174" x="892" y="1006.0332">feedbacks: List&lt;Feedback&gt;</text><text fill="#000000" font-family="sans-serif" font-size="14" lengthAdjust="spacing" textLength="10" x="892" y="1023.6426">--</text><line style="stroke:#181818;stroke-width:0.5;" x1="887" x2="1101" y1="1030.7188" y2="1030.7188"/><ellipse cx="897" cy="1045.0234" fill="#84BE84" rx="3" ry="3" style="stroke:#038048;stroke-width:1.0;"/><text fill="#000000" font-family="sans-serif" font-size="14" lengthAdjust="spacing" textLength="111" x="906" y="1049.252">fetchFeedbacks()</text><ellipse cx="897" cy="1062.6328" fill="#84BE84" rx="3" ry="3" style="stroke:#038048;stroke-width:1.0;"/><text fill="#000000" font-family="sans-serif" font-size="14" lengthAdjust="spacing" textLength="190" x="906" y="1066.8613">navigateToAdminDashboard()</text></g><!--class UserNotificationScreen--><g id="elem_UserNotificationScreen"><rect codeLine="186" fill="#F1F1F1" height="171.2656" id="UserNotificationScreen" rx="2.5" ry="2.5" style="stroke:#181818;stroke-width:0.5;" width="322" x="1137" y="929"/><ellipse cx="1222.25" cy="945" fill="#ADD1B2" rx="11" ry="11" style="stroke:#181818;stroke-width:1.0;"/><path d="M1225.0156,940.875 Q1225.1719,940.6563 1225.3594,940.5469 Q1225.5469,940.4375 1225.7656,940.4375 Q1226.1406,940.4375 1226.375,940.7031 Q1226.6094,940.9531 1226.6094,941.5625 L1226.6094,943.0156 Q1226.6094,943.625 1226.375,943.8906 Q1226.1406,944.1563 1225.7656,944.1563 Q1225.4219,944.1563 1225.2188,943.9531 Q1225.0156,943.7656 1224.9063,943.25 Q1224.8594,942.8906 1224.6719,942.7031 Q1224.3438,942.3281 1223.7344,942.1094 Q1223.125,941.8906 1222.5,941.8906 Q1221.7344,941.8906 1221.0938,942.2188 Q1220.4688,942.5469 1219.9688,943.2969 Q1219.4844,944.0469 1219.4844,945.0781 L1219.4844,946.1719 Q1219.4844,947.4063 1220.375,948.2344 Q1221.2656,949.0469 1222.8594,949.0469 Q1223.7969,949.0469 1224.4531,948.7969 Q1224.8438,948.6406 1225.2656,948.2031 Q1225.5313,947.9375 1225.6719,947.8594 Q1225.8281,947.7813 1226.0313,947.7813 Q1226.3594,947.7813 1226.6094,948.0469 Q1226.875,948.2969 1226.875,948.6406 Q1226.875,948.9844 1226.5313,949.3906 Q1226.0313,949.9688 1225.2344,950.2969 Q1224.1563,950.75 1222.8594,950.75 Q1221.3438,950.75 1220.1406,950.125 Q1219.1563,949.625 1218.4688,948.5625 Q1217.7813,947.4844 1217.7813,946.2031 L1217.7813,945.0469 Q1217.7813,943.7188 1218.3906,942.5781 Q1219.0156,941.4219 1220.1094,940.8125 Q1221.2031,940.1875 1222.4375,940.1875 Q1223.1719,940.1875 1223.8125,940.3594 Q1224.4688,940.5156 1225.0156,940.875 Z " fill="#000000"/><text fill="#000000" font-family="sans-serif" font-size="14" lengthAdjust="spacing" textLength="143" x="1242.75" y="950.7285">UserNotificationScreen</text><line style="stroke:#181818;stroke-width:0.5;" x1="1138" x2="1458" y1="961" y2="961"/><text fill="#000000" font-family="sans-serif" font-size="14" lengthAdjust="spacing" textLength="190" x="1143" y="979.5332">notifications: List&lt;Notification&gt;</text><text fill="#000000" font-family="sans-serif" font-size="14" lengthAdjust="spacing" textLength="10" x="1143" y="997.1426">--</text><line style="stroke:#181818;stroke-width:0.5;" x1="1138" x2="1458" y1="1004.2188" y2="1004.2188"/><ellipse cx="1148" cy="1018.5234" fill="#84BE84" rx="3" ry="3" style="stroke:#038048;stroke-width:1.0;"/><text fill="#000000" font-family="sans-serif" font-size="14" lengthAdjust="spacing" textLength="117" x="1157" y="1022.752">fetchNotifications()</text><ellipse cx="1148" cy="1036.1328" fill="#84BE84" rx="3" ry="3" style="stroke:#038048;stroke-width:1.0;"/><text fill="#000000" font-family="sans-serif" font-size="14" lengthAdjust="spacing" textLength="284" x="1157" y="1040.3613">markNotificationAsRead(notificationId: String)</text><ellipse cx="1148" cy="1053.7422" fill="#84BE84" rx="3" ry="3" style="stroke:#038048;stroke-width:1.0;"/><text fill="#000000" font-family="sans-serif" font-size="14" lengthAdjust="spacing" textLength="296" x="1157" y="1057.9707">execurteNotificationAction(notificationId: String)</text><ellipse cx="1148" cy="1071.3516" fill="#84BE84" rx="3" ry="3" style="stroke:#038048;stroke-width:1.0;"/><text fill="#000000" font-family="sans-serif" font-size="14" lengthAdjust="spacing" textLength="182" x="1157" y="1075.5801">markAllNotificationsAsRead()</text><ellipse cx="1148" cy="1088.9609" fill="#84BE84" rx="3" ry="3" style="stroke:#038048;stroke-width:1.0;"/><text fill="#000000" font-family="sans-serif" font-size="14" lengthAdjust="spacing" textLength="180" x="1157" y="1093.1895">navigateToUserDashboard()</text></g><!--class Notification--><g id="elem_Notification"><rect codeLine="196" fill="#F1F1F1" height="118.4375" id="Notification" rx="2.5" ry="2.5" style="stroke:#181818;stroke-width:0.5;" width="145" x="1494.5" y="955.5"/><ellipse cx="1529.3" cy="971.5" fill="#ADD1B2" rx="11" ry="11" style="stroke:#181818;stroke-width:1.0;"/><path d="M1532.0656,967.375 Q1532.2219,967.1563 1532.4094,967.0469 Q1532.5969,966.9375 1532.8156,966.9375 Q1533.1906,966.9375 1533.425,967.2031 Q1533.6594,967.4531 1533.6594,968.0625 L1533.6594,969.5156 Q1533.6594,970.125 1533.425,970.3906 Q1533.1906,970.6563 1532.8156,970.6563 Q1532.4719,970.6563 1532.2688,970.4531 Q1532.0656,970.2656 1531.9563,969.75 Q1531.9094,969.3906 1531.7219,969.2031 Q1531.3938,968.8281 1530.7844,968.6094 Q1530.175,968.3906 1529.55,968.3906 Q1528.7844,968.3906 1528.1438,968.7188 Q1527.5188,969.0469 1527.0188,969.7969 Q1526.5344,970.5469 1526.5344,971.5781 L1526.5344,972.6719 Q1526.5344,973.9063 1527.425,974.7344 Q1528.3156,975.5469 1529.9094,975.5469 Q1530.8469,975.5469 1531.5031,975.2969 Q1531.8938,975.1406 1532.3156,974.7031 Q1532.5813,974.4375 1532.7219,974.3594 Q1532.8781,974.2813 1533.0813,974.2813 Q1533.4094,974.2813 1533.6594,974.5469 Q1533.925,974.7969 1533.925,975.1406 Q1533.925,975.4844 1533.5813,975.8906 Q1533.0813,976.4688 1532.2844,976.7969 Q1531.2063,977.25 1529.9094,977.25 Q1528.3938,977.25 1527.1906,976.625 Q1526.2063,976.125 1525.5188,975.0625 Q1524.8313,973.9844 1524.8313,972.7031 L1524.8313,971.5469 Q1524.8313,970.2188 1525.4406,969.0781 Q1526.0656,967.9219 1527.1594,967.3125 Q1528.2531,966.6875 1529.4875,966.6875 Q1530.2219,966.6875 1530.8625,966.8594 Q1531.5188,967.0156 1532.0656,967.375 Z " fill="#000000"/><text fill="#000000" font-family="sans-serif" font-size="14" lengthAdjust="spacing" textLength="69" x="1547.7" y="977.2285">Notification</text><line style="stroke:#181818;stroke-width:0.5;" x1="1495.5" x2="1638.5" y1="987.5" y2="987.5"/><text fill="#000000" font-family="sans-serif" font-size="14" lengthAdjust="spacing" textLength="56" x="1500.5" y="1006.0332">id: String</text><text fill="#000000" font-family="sans-serif" font-size="14" lengthAdjust="spacing" textLength="102" x="1500.5" y="1023.6426">message: String</text><text fill="#000000" font-family="sans-serif" font-size="14" lengthAdjust="spacing" textLength="133" x="1500.5" y="1041.252">timestamp: DateTime</text><text fill="#000000" font-family="sans-serif" font-size="14" lengthAdjust="spacing" textLength="89" x="1500.5" y="1058.8613">read: Boolean</text><line style="stroke:#181818;stroke-width:0.5;" x1="1495.5" x2="1638.5" y1="1065.9375" y2="1065.9375"/></g><!--class AdminNotificationScreen--><g id="elem_AdminNotificationScreen"><rect codeLine="203" fill="#F1F1F1" height="171.2656" id="AdminNotificationScreen" rx="2.5" ry="2.5" style="stroke:#181818;stroke-width:0.5;" width="672" x="7" y="1239.5"/><ellipse cx="262.25" cy="1255.5" fill="#ADD1B2" rx="11" ry="11" style="stroke:#181818;stroke-width:1.0;"/><path d="M265.0156,1251.375 Q265.1719,1251.1563 265.3594,1251.0469 Q265.5469,1250.9375 265.7656,1250.9375 Q266.1406,1250.9375 266.375,1251.2031 Q266.6094,1251.4531 266.6094,1252.0625 L266.6094,1253.5156 Q266.6094,1254.125 266.375,1254.3906 Q266.1406,1254.6563 265.7656,1254.6563 Q265.4219,1254.6563 265.2188,1254.4531 Q265.0156,1254.2656 264.9063,1253.75 Q264.8594,1253.3906 264.6719,1253.2031 Q264.3438,1252.8281 263.7344,1252.6094 Q263.125,1252.3906 262.5,1252.3906 Q261.7344,1252.3906 261.0938,1252.7188 Q260.4688,1253.0469 259.9688,1253.7969 Q259.4844,1254.5469 259.4844,1255.5781 L259.4844,1256.6719 Q259.4844,1257.9063 260.375,1258.7344 Q261.2656,1259.5469 262.8594,1259.5469 Q263.7969,1259.5469 264.4531,1259.2969 Q264.8438,1259.1406 265.2656,1258.7031 Q265.5313,1258.4375 265.6719,1258.3594 Q265.8281,1258.2813 266.0313,1258.2813 Q266.3594,1258.2813 266.6094,1258.5469 Q266.875,1258.7969 266.875,1259.1406 Q266.875,1259.4844 266.5313,1259.8906 Q266.0313,1260.4688 265.2344,1260.7969 Q264.1563,1261.25 262.8594,1261.25 Q261.3438,1261.25 260.1406,1260.625 Q259.1563,1260.125 258.4688,1259.0625 Q257.7813,1257.9844 257.7813,1256.7031 L257.7813,1255.5469 Q257.7813,1254.2188 258.3906,1253.0781 Q259.0156,1251.9219 260.1094,1251.3125 Q261.2031,1250.6875 262.4375,1250.6875 Q263.1719,1250.6875 263.8125,1250.8594 Q264.4688,1251.0156 265.0156,1251.375 Z " fill="#000000"/><text fill="#000000" font-family="sans-serif" font-size="14" lengthAdjust="spacing" textLength="153" x="282.75" y="1261.2285">AdminNotificationScreen</text><line style="stroke:#181818;stroke-width:0.5;" x1="8" x2="678" y1="1271.5" y2="1271.5"/><text fill="#000000" font-family="sans-serif" font-size="14" lengthAdjust="spacing" textLength="206" x="13" y="1290.0332">potentialRecipients: List&lt;UserId&gt;</text><text fill="#000000" font-family="sans-serif" font-size="14" lengthAdjust="spacing" textLength="190" x="13" y="1307.6426">notifications: List&lt;Notification&gt;</text><text fill="#000000" font-family="sans-serif" font-size="14" lengthAdjust="spacing" textLength="10" x="13" y="1325.252">--</text><line style="stroke:#181818;stroke-width:0.5;" x1="8" x2="678" y1="1332.3281" y2="1332.3281"/><ellipse cx="18" cy="1346.6328" fill="#84BE84" rx="3" ry="3" style="stroke:#038048;stroke-width:1.0;"/><text fill="#000000" font-family="sans-serif" font-size="14" lengthAdjust="spacing" textLength="117" x="27" y="1350.8613">fetchNotifications()</text><ellipse cx="18" cy="1364.2422" fill="#84BE84" rx="3" ry="3" style="stroke:#038048;stroke-width:1.0;"/><text fill="#000000" font-family="sans-serif" font-size="14" lengthAdjust="spacing" textLength="426" x="27" y="1368.4707">createNotification(message: String, targetUsers: List&lt;UserId&gt; = null)</text><ellipse cx="18" cy="1381.8516" fill="#84BE84" rx="3" ry="3" style="stroke:#038048;stroke-width:1.0;"/><text fill="#000000" font-family="sans-serif" font-size="14" lengthAdjust="spacing" textLength="244" x="27" y="1386.0801">cancelNotification(notificationId: String)</text><ellipse cx="18" cy="1399.4609" fill="#84BE84" rx="3" ry="3" style="stroke:#038048;stroke-width:1.0;"/><text fill="#000000" font-family="sans-serif" font-size="14" lengthAdjust="spacing" textLength="646" x="27" y="1403.6895">scheduleNotification(message: String, targetUsers: List&lt;UserId&gt; = null, scheduleTime: DateTime = null)</text></g><!--class AdminReportScreen--><g id="elem_AdminReportScreen"><rect codeLine="213" fill="#F1F1F1" height="171.2656" id="AdminReportScreen" rx="2.5" ry="2.5" style="stroke:#181818;stroke-width:0.5;" width="468" x="714" y="1239.5"/><ellipse cx="880.25" cy="1255.5" fill="#ADD1B2" rx="11" ry="11" style="stroke:#181818;stroke-width:1.0;"/><path d="M883.0156,1251.375 Q883.1719,1251.1563 883.3594,1251.0469 Q883.5469,1250.9375 883.7656,1250.9375 Q884.1406,1250.9375 884.375,1251.2031 Q884.6094,1251.4531 884.6094,1252.0625 L884.6094,1253.5156 Q884.6094,1254.125 884.375,1254.3906 Q884.1406,1254.6563 883.7656,1254.6563 Q883.4219,1254.6563 883.2188,1254.4531 Q883.0156,1254.2656 882.9063,1253.75 Q882.8594,1253.3906 882.6719,1253.2031 Q882.3438,1252.8281 881.7344,1252.6094 Q881.125,1252.3906 880.5,1252.3906 Q879.7344,1252.3906 879.0938,1252.7188 Q878.4688,1253.0469 877.9688,1253.7969 Q877.4844,1254.5469 877.4844,1255.5781 L877.4844,1256.6719 Q877.4844,1257.9063 878.375,1258.7344 Q879.2656,1259.5469 880.8594,1259.5469 Q881.7969,1259.5469 882.4531,1259.2969 Q882.8438,1259.1406 883.2656,1258.7031 Q883.5313,1258.4375 883.6719,1258.3594 Q883.8281,1258.2813 884.0313,1258.2813 Q884.3594,1258.2813 884.6094,1258.5469 Q884.875,1258.7969 884.875,1259.1406 Q884.875,1259.4844 884.5313,1259.8906 Q884.0313,1260.4688 883.2344,1260.7969 Q882.1563,1261.25 880.8594,1261.25 Q879.3438,1261.25 878.1406,1260.625 Q877.1563,1260.125 876.4688,1259.0625 Q875.7813,1257.9844 875.7813,1256.7031 L875.7813,1255.5469 Q875.7813,1254.2188 876.3906,1253.0781 Q877.0156,1251.9219 878.1094,1251.3125 Q879.2031,1250.6875 880.4375,1250.6875 Q881.1719,1250.6875 881.8125,1250.8594 Q882.4688,1251.0156 883.0156,1251.375 Z " fill="#000000"/><text fill="#000000" font-family="sans-serif" font-size="14" lengthAdjust="spacing" textLength="127" x="900.75" y="1261.2285">AdminReportScreen</text><line style="stroke:#181818;stroke-width:0.5;" x1="715" x2="1181" y1="1271.5" y2="1271.5"/><text fill="#000000" font-family="sans-serif" font-size="14" lengthAdjust="spacing" textLength="134" x="720" y="1290.0332">reports: List&lt;Report&gt;</text><text fill="#000000" font-family="sans-serif" font-size="14" lengthAdjust="spacing" textLength="10" x="720" y="1307.6426">--</text><line style="stroke:#181818;stroke-width:0.5;" x1="715" x2="1181" y1="1314.7188" y2="1314.7188"/><ellipse cx="725" cy="1329.0234" fill="#84BE84" rx="3" ry="3" style="stroke:#038048;stroke-width:1.0;"/><text fill="#000000" font-family="sans-serif" font-size="14" lengthAdjust="spacing" textLength="91" x="734" y="1333.252">fetchReports()</text><ellipse cx="725" cy="1346.6328" fill="#84BE84" rx="3" ry="3" style="stroke:#038048;stroke-width:1.0;"/><text fill="#000000" font-family="sans-serif" font-size="14" lengthAdjust="spacing" textLength="442" x="734" y="1350.8613">generateReport(reportType: String, parameters: Map&lt;String, Object&gt;)</text><ellipse cx="725" cy="1364.2422" fill="#84BE84" rx="3" ry="3" style="stroke:#038048;stroke-width:1.0;"/><text fill="#000000" font-family="sans-serif" font-size="14" lengthAdjust="spacing" textLength="300" x="734" y="1368.4707">downloadReport(reportId: String, format: String)</text><ellipse cx="725" cy="1381.8516" fill="#84BE84" rx="3" ry="3" style="stroke:#038048;stroke-width:1.0;"/><text fill="#000000" font-family="sans-serif" font-size="14" lengthAdjust="spacing" textLength="225" x="734" y="1386.0801">fetchReportStatuss(reportId: String)</text><ellipse cx="725" cy="1399.4609" fill="#84BE84" rx="3" ry="3" style="stroke:#038048;stroke-width:1.0;"/><text fill="#000000" font-family="sans-serif" font-size="14" lengthAdjust="spacing" textLength="190" x="734" y="1403.6895">navigateToAdminDashboard()</text></g><!--class AdminFinancialManagementScreen--><g id="elem_AdminFinancialManagementScreen"><rect codeLine="223" fill="#F1F1F1" height="224.0938" id="AdminFinancialManagementScreen" rx="2.5" ry="2.5" style="stroke:#181818;stroke-width:0.5;" width="391" x="1217.5" y="1213"/><ellipse cx="1297.25" cy="1229" fill="#ADD1B2" rx="11" ry="11" style="stroke:#181818;stroke-width:1.0;"/><path d="M1300.0156,1224.875 Q1300.1719,1224.6563 1300.3594,1224.5469 Q1300.5469,1224.4375 1300.7656,1224.4375 Q1301.1406,1224.4375 1301.375,1224.7031 Q1301.6094,1224.9531 1301.6094,1225.5625 L1301.6094,1227.0156 Q1301.6094,1227.625 1301.375,1227.8906 Q1301.1406,1228.1563 1300.7656,1228.1563 Q1300.4219,1228.1563 1300.2188,1227.9531 Q1300.0156,1227.7656 1299.9063,1227.25 Q1299.8594,1226.8906 1299.6719,1226.7031 Q1299.3438,1226.3281 1298.7344,1226.1094 Q1298.125,1225.8906 1297.5,1225.8906 Q1296.7344,1225.8906 1296.0938,1226.2188 Q1295.4688,1226.5469 1294.9688,1227.2969 Q1294.4844,1228.0469 1294.4844,1229.0781 L1294.4844,1230.1719 Q1294.4844,1231.4063 1295.375,1232.2344 Q1296.2656,1233.0469 1297.8594,1233.0469 Q1298.7969,1233.0469 1299.4531,1232.7969 Q1299.8438,1232.6406 1300.2656,1232.2031 Q1300.5313,1231.9375 1300.6719,1231.8594 Q1300.8281,1231.7813 1301.0313,1231.7813 Q1301.3594,1231.7813 1301.6094,1232.0469 Q1301.875,1232.2969 1301.875,1232.6406 Q1301.875,1232.9844 1301.5313,1233.3906 Q1301.0313,1233.9688 1300.2344,1234.2969 Q1299.1563,1234.75 1297.8594,1234.75 Q1296.3438,1234.75 1295.1406,1234.125 Q1294.1563,1233.625 1293.4688,1232.5625 Q1292.7813,1231.4844 1292.7813,1230.2031 L1292.7813,1229.0469 Q1292.7813,1227.7188 1293.3906,1226.5781 Q1294.0156,1225.4219 1295.1094,1224.8125 Q1296.2031,1224.1875 1297.4375,1224.1875 Q1298.1719,1224.1875 1298.8125,1224.3594 Q1299.4688,1224.5156 1300.0156,1224.875 Z " fill="#000000"/><text fill="#000000" font-family="sans-serif" font-size="14" lengthAdjust="spacing" textLength="223" x="1317.75" y="1234.7285">AdminFinancialManagementScreen</text><line style="stroke:#181818;stroke-width:0.5;" x1="1218.5" x2="1607.5" y1="1245" y2="1245"/><text fill="#000000" font-family="sans-serif" font-size="14" lengthAdjust="spacing" textLength="167" x="1223.5" y="1263.5332">users: List&lt;FinancialUser&gt;</text><text fill="#000000" font-family="sans-serif" font-size="14" lengthAdjust="spacing" textLength="258" x="1223.5" y="1281.1426">userFinancialDetails: FinancialUserDetail</text><text fill="#000000" font-family="sans-serif" font-size="14" lengthAdjust="spacing" textLength="10" x="1223.5" y="1298.752">--</text><line style="stroke:#181818;stroke-width:0.5;" x1="1218.5" x2="1607.5" y1="1305.8281" y2="1305.8281"/><ellipse cx="1228.5" cy="1320.1328" fill="#84BE84" rx="3" ry="3" style="stroke:#038048;stroke-width:1.0;"/><text fill="#000000" font-family="sans-serif" font-size="14" lengthAdjust="spacing" textLength="77" x="1237.5" y="1324.3613">fetchUsers()</text><ellipse cx="1228.5" cy="1337.7422" fill="#84BE84" rx="3" ry="3" style="stroke:#038048;stroke-width:1.0;"/><text fill="#000000" font-family="sans-serif" font-size="14" lengthAdjust="spacing" textLength="286" x="1237.5" y="1341.9707">searchUser(searchQuery: SearchExpression)</text><ellipse cx="1228.5" cy="1355.3516" fill="#84BE84" rx="3" ry="3" style="stroke:#038048;stroke-width:1.0;"/><text fill="#000000" font-family="sans-serif" font-size="14" lengthAdjust="spacing" textLength="247" x="1237.5" y="1359.5801">fetchUserFinancialDetail(userId: String)</text><ellipse cx="1228.5" cy="1372.9609" fill="#84BE84" rx="3" ry="3" style="stroke:#038048;stroke-width:1.0;"/><text fill="#000000" font-family="sans-serif" font-size="14" lengthAdjust="spacing" textLength="365" x="1237.5" y="1377.1895">loadCreditForUser(userId: String, amount: Decimal(19, 4))</text><ellipse cx="1228.5" cy="1390.5703" fill="#84BE84" rx="3" ry="3" style="stroke:#038048;stroke-width:1.0;"/><text fill="#000000" font-family="sans-serif" font-size="14" lengthAdjust="spacing" textLength="246" x="1237.5" y="1394.7988">bulkLoadCreditsForUsers(csvFile: File)</text><ellipse cx="1228.5" cy="1408.1797" fill="#84BE84" rx="3" ry="3" style="stroke:#038048;stroke-width:1.0;"/><text fill="#000000" font-family="sans-serif" font-size="14" lengthAdjust="spacing" textLength="163" x="1237.5" y="1412.4082">displayLoadCreditErrors()</text><ellipse cx="1228.5" cy="1425.7891" fill="#84BE84" rx="3" ry="3" style="stroke:#038048;stroke-width:1.0;"/><text fill="#000000" font-family="sans-serif" font-size="14" lengthAdjust="spacing" textLength="190" x="1237.5" y="1430.0176">navigateToAdminDashboard()</text></g><!--class AdminAuditScreen--><g id="elem_AdminAuditScreen"><rect codeLine="236" fill="#F1F1F1" height="153.6563" id="AdminAuditScreen" rx="2.5" ry="2.5" style="stroke:#181818;stroke-width:0.5;" width="336" x="1644" y="1248"/><ellipse cx="1749.75" cy="1264" fill="#ADD1B2" rx="11" ry="11" style="stroke:#181818;stroke-width:1.0;"/><path d="M1752.5156,1259.875 Q1752.6719,1259.6563 1752.8594,1259.5469 Q1753.0469,1259.4375 1753.2656,1259.4375 Q1753.6406,1259.4375 1753.875,1259.7031 Q1754.1094,1259.9531 1754.1094,1260.5625 L1754.1094,1262.0156 Q1754.1094,1262.625 1753.875,1262.8906 Q1753.6406,1263.1563 1753.2656,1263.1563 Q1752.9219,1263.1563 1752.7188,1262.9531 Q1752.5156,1262.7656 1752.4063,1262.25 Q1752.3594,1261.8906 1752.1719,1261.7031 Q1751.8438,1261.3281 1751.2344,1261.1094 Q1750.625,1260.8906 1750,1260.8906 Q1749.2344,1260.8906 1748.5938,1261.2188 Q1747.9688,1261.5469 1747.4688,1262.2969 Q1746.9844,1263.0469 1746.9844,1264.0781 L1746.9844,1265.1719 Q1746.9844,1266.4063 1747.875,1267.2344 Q1748.7656,1268.0469 1750.3594,1268.0469 Q1751.2969,1268.0469 1751.9531,1267.7969 Q1752.3438,1267.6406 1752.7656,1267.2031 Q1753.0313,1266.9375 1753.1719,1266.8594 Q1753.3281,1266.7813 1753.5313,1266.7813 Q1753.8594,1266.7813 1754.1094,1267.0469 Q1754.375,1267.2969 1754.375,1267.6406 Q1754.375,1267.9844 1754.0313,1268.3906 Q1753.5313,1268.9688 1752.7344,1269.2969 Q1751.6563,1269.75 1750.3594,1269.75 Q1748.8438,1269.75 1747.6406,1269.125 Q1746.6563,1268.625 1745.9688,1267.5625 Q1745.2813,1266.4844 1745.2813,1265.2031 L1745.2813,1264.0469 Q1745.2813,1262.7188 1745.8906,1261.5781 Q1746.5156,1260.4219 1747.6094,1259.8125 Q1748.7031,1259.1875 1749.9375,1259.1875 Q1750.6719,1259.1875 1751.3125,1259.3594 Q1751.9688,1259.5156 1752.5156,1259.875 Z " fill="#000000"/><text fill="#000000" font-family="sans-serif" font-size="14" lengthAdjust="spacing" textLength="116" x="1770.25" y="1269.7285">AdminAuditScreen</text><line style="stroke:#181818;stroke-width:0.5;" x1="1645" x2="1979" y1="1280" y2="1280"/><text fill="#000000" font-family="sans-serif" font-size="14" lengthAdjust="spacing" textLength="164" x="1650" y="1298.5332">auditLogs: List&lt;AuditLog&gt;</text><text fill="#000000" font-family="sans-serif" font-size="14" lengthAdjust="spacing" textLength="10" x="1650" y="1316.1426">--</text><line style="stroke:#181818;stroke-width:0.5;" x1="1645" x2="1979" y1="1323.2188" y2="1323.2188"/><ellipse cx="1655" cy="1337.5234" fill="#84BE84" rx="3" ry="3" style="stroke:#038048;stroke-width:1.0;"/><text fill="#000000" font-family="sans-serif" font-size="14" lengthAdjust="spacing" textLength="104" x="1664" y="1341.752">fetchAuditLogs()</text><ellipse cx="1655" cy="1355.1328" fill="#84BE84" rx="3" ry="3" style="stroke:#038048;stroke-width:1.0;"/><text fill="#000000" font-family="sans-serif" font-size="14" lengthAdjust="spacing" textLength="310" x="1664" y="1359.3613">filterAuditLogs(filterCriteria: Map&lt;String, Object&gt;)</text><ellipse cx="1655" cy="1372.7422" fill="#84BE84" rx="3" ry="3" style="stroke:#038048;stroke-width:1.0;"/><text fill="#000000" font-family="sans-serif" font-size="14" lengthAdjust="spacing" textLength="197" x="1664" y="1376.9707">exportAuditLogs(format: String)</text><ellipse cx="1655" cy="1390.3516" fill="#84BE84" rx="3" ry="3" style="stroke:#038048;stroke-width:1.0;"/><text fill="#000000" font-family="sans-serif" font-size="14" lengthAdjust="spacing" textLength="190" x="1664" y="1394.5801">navigateToAdminDashboard()</text></g><!--class AdminManagementScreen--><g id="elem_AdminManagementScreen"><rect codeLine="245" fill="#F1F1F1" height="329.75" id="AdminManagementScreen" rx="2.5" ry="2.5" style="stroke:#181818;stroke-width:0.5;" width="284" x="2015" y="1160"/><ellipse cx="2069.75" cy="1176" fill="#ADD1B2" rx="11" ry="11" style="stroke:#181818;stroke-width:1.0;"/><path d="M2072.5156,1171.875 Q2072.6719,1171.6563 2072.8594,1171.5469 Q2073.0469,1171.4375 2073.2656,1171.4375 Q2073.6406,1171.4375 2073.875,1171.7031 Q2074.1094,1171.9531 2074.1094,1172.5625 L2074.1094,1174.0156 Q2074.1094,1174.625 2073.875,1174.8906 Q2073.6406,1175.1563 2073.2656,1175.1563 Q2072.9219,1175.1563 2072.7188,1174.9531 Q2072.5156,1174.7656 2072.4063,1174.25 Q2072.3594,1173.8906 2072.1719,1173.7031 Q2071.8438,1173.3281 2071.2344,1173.1094 Q2070.625,1172.8906 2070,1172.8906 Q2069.2344,1172.8906 2068.5938,1173.2188 Q2067.9688,1173.5469 2067.4688,1174.2969 Q2066.9844,1175.0469 2066.9844,1176.0781 L2066.9844,1177.1719 Q2066.9844,1178.4063 2067.875,1179.2344 Q2068.7656,1180.0469 2070.3594,1180.0469 Q2071.2969,1180.0469 2071.9531,1179.7969 Q2072.3438,1179.6406 2072.7656,1179.2031 Q2073.0313,1178.9375 2073.1719,1178.8594 Q2073.3281,1178.7813 2073.5313,1178.7813 Q2073.8594,1178.7813 2074.1094,1179.0469 Q2074.375,1179.2969 2074.375,1179.6406 Q2074.375,1179.9844 2074.0313,1180.3906 Q2073.5313,1180.9688 2072.7344,1181.2969 Q2071.6563,1181.75 2070.3594,1181.75 Q2068.8438,1181.75 2067.6406,1181.125 Q2066.6563,1180.625 2065.9688,1179.5625 Q2065.2813,1178.4844 2065.2813,1177.2031 L2065.2813,1176.0469 Q2065.2813,1174.7188 2065.8906,1173.5781 Q2066.5156,1172.4219 2067.6094,1171.8125 Q2068.7031,1171.1875 2069.9375,1171.1875 Q2070.6719,1171.1875 2071.3125,1171.3594 Q2071.9688,1171.5156 2072.5156,1171.875 Z " fill="#000000"/><text fill="#000000" font-family="sans-serif" font-size="14" lengthAdjust="spacing" textLength="166" x="2090.25" y="1181.7285">AdminManagementScreen</text><line style="stroke:#181818;stroke-width:0.5;" x1="2016" x2="2298" y1="1192" y2="1192"/><text fill="#000000" font-family="sans-serif" font-size="14" lengthAdjust="spacing" textLength="139" x="2021" y="1210.5332">allergies: List&lt;Alergy&gt;</text><text fill="#000000" font-family="sans-serif" font-size="14" lengthAdjust="spacing" textLength="162" x="2021" y="1228.1426">campuses: List&lt;Campus&gt;</text><text fill="#000000" font-family="sans-serif" font-size="14" lengthAdjust="spacing" textLength="182" x="2021" y="1245.752">residences: List&lt;Residence&gt;</text><text fill="#000000" font-family="sans-serif" font-size="14" lengthAdjust="spacing" textLength="10" x="2021" y="1263.3613">--</text><line style="stroke:#181818;stroke-width:0.5;" x1="2016" x2="2298" y1="1270.4375" y2="1270.4375"/><ellipse cx="2026" cy="1284.7422" fill="#84BE84" rx="3" ry="3" style="stroke:#038048;stroke-width:1.0;"/><text fill="#000000" font-family="sans-serif" font-size="14" lengthAdjust="spacing" textLength="95" x="2035" y="1288.9707">fetchAllergies()</text><ellipse cx="2026" cy="1302.3516" fill="#84BE84" rx="3" ry="3" style="stroke:#038048;stroke-width:1.0;"/><text fill="#000000" font-family="sans-serif" font-size="14" lengthAdjust="spacing" textLength="186" x="2035" y="1306.5801">createAllergy(allergy: Allergy)</text><ellipse cx="2026" cy="1319.9609" fill="#84BE84" rx="3" ry="3" style="stroke:#038048;stroke-width:1.0;"/><text fill="#000000" font-family="sans-serif" font-size="14" lengthAdjust="spacing" textLength="190" x="2035" y="1324.1895">updateAllergy(allergy: Allergy)</text><ellipse cx="2026" cy="1337.5703" fill="#84BE84" rx="3" ry="3" style="stroke:#038048;stroke-width:1.0;"/><text fill="#000000" font-family="sans-serif" font-size="14" lengthAdjust="spacing" textLength="198" x="2035" y="1341.7988">removeAllergy(allergyId: String)</text><ellipse cx="2026" cy="1355.1797" fill="#84BE84" rx="3" ry="3" style="stroke:#038048;stroke-width:1.0;"/><text fill="#000000" font-family="sans-serif" font-size="14" lengthAdjust="spacing" textLength="108" x="2035" y="1359.4082">fetchCampuses()</text><ellipse cx="2026" cy="1372.7891" fill="#84BE84" rx="3" ry="3" style="stroke:#038048;stroke-width:1.0;"/><text fill="#000000" font-family="sans-serif" font-size="14" lengthAdjust="spacing" textLength="211" x="2035" y="1377.0176">createCampus(campus: Campus)</text><ellipse cx="2026" cy="1390.3984" fill="#84BE84" rx="3" ry="3" style="stroke:#038048;stroke-width:1.0;"/><text fill="#000000" font-family="sans-serif" font-size="14" lengthAdjust="spacing" textLength="215" x="2035" y="1394.627">updateCampus(campus: Campus)</text><ellipse cx="2026" cy="1408.0078" fill="#84BE84" rx="3" ry="3" style="stroke:#038048;stroke-width:1.0;"/><text fill="#000000" font-family="sans-serif" font-size="14" lengthAdjust="spacing" textLength="214" x="2035" y="1412.2363">removeCampus(campusId: String)</text><ellipse cx="2026" cy="1425.6172" fill="#84BE84" rx="3" ry="3" style="stroke:#038048;stroke-width:1.0;"/><text fill="#000000" font-family="sans-serif" font-size="14" lengthAdjust="spacing" textLength="115" x="2035" y="1429.8457">fetchResidences()</text><ellipse cx="2026" cy="1443.2266" fill="#84BE84" rx="3" ry="3" style="stroke:#038048;stroke-width:1.0;"/><text fill="#000000" font-family="sans-serif" font-size="14" lengthAdjust="spacing" textLength="254" x="2035" y="1447.4551">createResidence(residence: Residence)</text><ellipse cx="2026" cy="1460.8359" fill="#84BE84" rx="3" ry="3" style="stroke:#038048;stroke-width:1.0;"/><text fill="#000000" font-family="sans-serif" font-size="14" lengthAdjust="spacing" textLength="258" x="2035" y="1465.0645">updateResidence(residence: Residence)</text><ellipse cx="2026" cy="1478.4453" fill="#84BE84" rx="3" ry="3" style="stroke:#038048;stroke-width:1.0;"/><text fill="#000000" font-family="sans-serif" font-size="14" lengthAdjust="spacing" textLength="242" x="2035" y="1482.6738">removeResidence(residenceId: String)</text></g><!--SRC=[lLZTRzis47_FNw5YBmhc0Yks05sm6N1S6J3W9ftj5jZJm4YqmqKIDP9A6WpzttVyD3zanMcBzINLVT_zZiUZNrLuHrgSpM-kj-kRrQfO_pM_MTsiin-ADukBHN7soWXiYlMdvRomtCNFnSNYmd4Ni_didMCMRnSNnLjFTVvnlTp-wNGNeFsJOnVNsu1PN1N5sLbP8ywp5TsJTbCoZDlitxCC_k46aVeosmX6shsYT23uI5aL45-_pjJV7pFUtpP4A4FvkQ4ze9fKI617u7VqyPCc4jeMZ576Sop_M0c6Ay9mARRq8yVi7U9tjnInAa_viweXRIhGeWUo1vzRkiPxmWLJhdHk8FJ5ffnoJUOjQd2GuucbA6cx8wpvCCG31XVNiM688oMMgEbw7f0OvgJ2RHaAehh6R4ymoAuWazyqQpe8Yv_ijw1pAAxNCVdpsBcg1uoWx3rmhb2DL9hlS4aQLETlVfralvnd-RhOR3CkmFEv4xxKnh00TBZ9sWIomwAyyxWkGiKmNaBYUzpsIu4RFj18Dwp2R8ZnWT4TgV40PuE503I6bA1oj1T-KS9E3gh2dpW4jO7C0JzI0jRlKMUWdcGtjtz3kMF8LJwRI74WaFUeHNiiotISUpJrDUue4tmyTPUXALG2U8gXf1ffpJGVGpaUHTZJIxezfki3OgZpEzJkCSzR_3WKXDKfbPWzwJcjg_ZKJp9f8Y4UcH5f4SSFaCxPr964e-Q4ySLedKoDm859rpZuFuTNU2PaBBeF6zoAf7kiibUJwR4-ENG8M84IIrgUjA2LwRlgMPcAS7HR7uIM8t0cTvNBKnsm83EgZfn9JR47aufEfevO4NDbuLARTbdBaLTx_ENNT9_I7-ux8eUdYTeEKnsue0BLiuRshOWdkvvnCAIyfd7Eh9KJ-xnZ9Bqw5AV2l6IaavTQwiMEgt3i6kBfupQUzneFHnur-080L2Cf58wSYs_kder28-wHIOIIcvwuhPJQDHLaHqgzOJpROEbvoFpv8v4FichixJpOOChT5UBtMCJyBBzYz15CmefRedeZA8EgPQ-diEmWs5UoHoBkZ4zKcnEkNPyFrIrT4-JID5FJx6dPxYXhmYNBkr0F3dARZwpHYXugXAfAahTKP-FaBjrXc6J_zAWLH3nTPijMu3tsLkU6Fc0fj62qYIp4dieQ8rEpw2hKCoBTwKBwYLTLKjK8q4DYtnD9spsZ49w0nTVXu4Dk8qdEy0jR_DasrBUQfGy471xr4mHrEoM2NtVDILmM65UtgBmFqjuPukYhqchclAGCkuBBVQgH4p2PIcDQBvsses5RjApG85gMERGjZvVCdwhX8zLZs1XyuS4uV853B0rYzpvdnjSOLRdl8SKSVyPbpmGE54ir-SOLfJSObq4enkCBWF7LXzU31dCEyo6W2G9K0IigR0dIFdoQ5HM1yXM5jHYr4Vf74UYeWCuZg5x3mj4H-B-_ZYwhwVV6IP_mu9wDafna0h4z5X-ZtHY2oNxFshwkmsqmi3KE6o_lSDNNt-X-ukp8sXzGSD65jTTlpA3gJ3yxZNKjC5Z3-7swnorcu4xJSsrd-zHvqNU8mKufLF0ZMrf57zkQeYgmv6zAUWc8A-X5fLSidgY-P3heqKHQ019wy8H7afELa4mTsv7DTNYP1OAQ-loZYiCseMcv_kyVFMPmDMxKH_6vWsSWXvv9dkcH_oClALdlkLn5n8AoWHVN94E3xmkhVzlNzojdWniZF2_vmq8zyXVUwnuUTbsDdWxovfUm5yCpwq4v00H9oehkBIWpyptOmfRf_RX1QcZF0rr_pncylHX1ersBFyjUyrG7c_Jar8uqNFoidwczUEhzDk1OS_Kv3NyZE1niGnWkZFKIpKQpXkSw2kW-GmXNd-UazDuJIQKjgIAPcvoYG3Gvjx-6wCymYb4H7K8WSYG0LwWu1CV8lHzW736CvJHP7TI0h1_QbxF_0000]--></g></svg>